M48
; DRILL file {KiCad 8.0.4-8.0.4-0~ubuntu22.04.1} date 2024-08-22T14:24:18+0200
; FORMAT={-:-/ absolute / inch / decimal}
; #@! TF.CreationDate,2024-08-22T14:24:18+02:00
; #@! TF.GenerationSoftware,Kicad,Pcbnew,8.0.4-8.0.4-0~ubuntu22.04.1
; #@! TF.FileFunction,Plated,1,2,PTH
FMAT,2
INCH
; #@! TA.AperFunction,Plated,PTH,ViaDrill
T1C0.0120
; #@! TA.AperFunction,Plated,PTH,ComponentDrill
T2C0.0394
; #@! TA.AperFunction,Plated,PTH,ComponentDrill
T3C0.0433
; #@! TA.AperFunction,Plated,PTH,ComponentDrill
T4C0.0472
; #@! TA.AperFunction,Plated,PTH,ViaDrill
T5C0.1260
%
G90
G05
T1
X5.2902Y-5.2579
X5.3807Y-2.8071
X5.4898Y-4.2551
X5.4929Y-3.1854
X5.7243Y-4.9527
X6.7579Y-2.7567
X6.7579Y-2.9894
X6.9504Y-2.9792
T2
X5.0591Y-3.1551
X5.0591Y-3.2551
X5.0591Y-3.3551
X5.0591Y-3.4551
X5.0591Y-3.5551
X5.0591Y-3.6551
X5.0591Y-3.7551
X5.0591Y-3.8551
X5.0591Y-3.9551
X5.0591Y-4.0551
X5.0591Y-4.1551
X5.0591Y-4.2551
X5.0591Y-4.3551
X5.0591Y-4.4551
X5.0591Y-4.5551
X5.0591Y-4.6551
X5.0591Y-4.7551
X5.0591Y-4.8551
X5.0591Y-4.9551
X5.1591Y-3.1551
X5.1591Y-3.2551
X5.1591Y-3.3551
X5.1591Y-3.4551
X5.1591Y-3.5551
X5.1591Y-3.6551
X5.1591Y-3.7551
X5.1591Y-3.8551
X5.1591Y-3.9551
X5.1591Y-4.0551
X5.1591Y-4.1551
X5.1591Y-4.2551
X5.1591Y-4.3551
X5.1591Y-4.4551
X5.1591Y-4.5551
X5.1591Y-4.6551
X5.1591Y-4.7551
X5.1591Y-4.8551
X5.1591Y-4.9551
X7.4591Y-3.1551
X7.4591Y-3.2551
X7.4591Y-3.3551
X7.4591Y-3.4551
X7.4591Y-3.5551
X7.4591Y-3.6551
X7.4591Y-3.7551
X7.4591Y-3.8551
X7.4591Y-3.9551
X7.4591Y-4.0551
X7.4591Y-4.1551
X7.4591Y-4.2551
X7.4591Y-4.3551
X7.4591Y-4.4551
X7.4591Y-4.5551
X7.4591Y-4.6551
X7.4591Y-4.7551
X7.4591Y-4.8551
X7.4591Y-4.9551
X7.5591Y-3.1551
X7.5591Y-3.2551
X7.5591Y-3.3551
X7.5591Y-3.4551
X7.5591Y-3.5551
X7.5591Y-3.6551
X7.5591Y-3.7551
X7.5591Y-3.8551
X7.5591Y-3.9551
X7.5591Y-4.0551
X7.5591Y-4.1551
X7.5591Y-4.2551
X7.5591Y-4.3551
X7.5591Y-4.4551
X7.5591Y-4.5551
X7.5591Y-4.6551
X7.5591Y-4.7551
X7.5591Y-4.8551
X7.5591Y-4.9551
T3
X5.4496Y-5.4469
X5.4496Y-5.624
X5.6768Y-2.8419
X5.6768Y-2.9419
X5.6768Y-3.0419
X5.7055Y-5.4469
X5.7055Y-5.624
X5.7276Y-4.6004
X5.8276Y-4.6004
X5.9276Y-4.6004
X5.9713Y-5.4469
X5.9713Y-5.624
X6.2272Y-5.4469
X6.2272Y-5.624
X6.4831Y-5.4469
X6.4831Y-5.624
X6.739Y-5.4469
X6.739Y-5.624
X6.9654Y-5.4469
X6.9654Y-5.624
X7.2213Y-5.4469
X7.2213Y-5.624
T4
X4.5441Y-2.8071
X4.5441Y-2.9449
X4.5441Y-3.2386
X4.5441Y-3.3764
X4.5441Y-3.5142
X4.5441Y-3.652
X4.5441Y-3.7898
X4.5441Y-3.9276
X4.5441Y-4.213
X4.5441Y-4.3508
X4.5441Y-4.4886
X4.5441Y-4.6264
X4.5441Y-4.7642
X4.5441Y-4.902
X4.5441Y-5.189
X4.5441Y-5.3268
X8.0606Y-3.1909
X8.0606Y-3.3287
X8.0606Y-3.4665
X8.0606Y-3.6043
X8.0606Y-3.7421
X8.0606Y-3.8799
X8.0606Y-4.1654
X8.0606Y-4.3031
X8.0606Y-4.4409
X8.0606Y-4.5787
X8.0606Y-4.7165
X8.0606Y-4.8543
X8.0618Y-2.7628
X8.0618Y-2.9006
T5
X4.4161Y-2.4823
X4.4161Y-5.6319
X8.1957Y-2.4823
X8.1957Y-5.6319
M30
