%TF.GenerationSoftware,KiCad,Pcbnew,8.0.4-8.0.4-0~ubuntu22.04.1*%
%TF.CreationDate,2024-08-22T14:24:29+02:00*%
%TF.ProjectId,PCB_robot_controller,5043425f-726f-4626-9f74-5f636f6e7472,rev?*%
%TF.SameCoordinates,Original*%
%TF.FileFunction,Paste,Top*%
%TF.FilePolarity,Positive*%
%FSLAX46Y46*%
G04 Gerber Fmt 4.6, Leading zero omitted, Abs format (unit mm)*
G04 Created by KiCad (PCBNEW 8.0.4-8.0.4-0~ubuntu22.04.1) date 2024-08-22 14:24:29*
%MOMM*%
%LPD*%
G01*
G04 APERTURE LIST*
G04 Aperture macros list*
%AMRoundRect*
0 Rectangle with rounded corners*
0 $1 Rounding radius*
0 $2 $3 $4 $5 $6 $7 $8 $9 X,Y pos of 4 corners*
0 Add a 4 corners polygon primitive as box body*
4,1,4,$2,$3,$4,$5,$6,$7,$8,$9,$2,$3,0*
0 Add four circle primitives for the rounded corners*
1,1,$1+$1,$2,$3*
1,1,$1+$1,$4,$5*
1,1,$1+$1,$6,$7*
1,1,$1+$1,$8,$9*
0 Add four rect primitives between the rounded corners*
20,1,$1+$1,$2,$3,$4,$5,0*
20,1,$1+$1,$4,$5,$6,$7,0*
20,1,$1+$1,$6,$7,$8,$9,0*
20,1,$1+$1,$8,$9,$2,$3,0*%
G04 Aperture macros list end*
%ADD10RoundRect,0.250000X-0.475000X0.250000X-0.475000X-0.250000X0.475000X-0.250000X0.475000X0.250000X0*%
%ADD11RoundRect,0.150000X-0.725000X-0.150000X0.725000X-0.150000X0.725000X0.150000X-0.725000X0.150000X0*%
%ADD12RoundRect,0.250000X0.262500X0.450000X-0.262500X0.450000X-0.262500X-0.450000X0.262500X-0.450000X0*%
%ADD13RoundRect,0.250000X0.450000X-0.262500X0.450000X0.262500X-0.450000X0.262500X-0.450000X-0.262500X0*%
%ADD14RoundRect,0.250000X0.250000X0.475000X-0.250000X0.475000X-0.250000X-0.475000X0.250000X-0.475000X0*%
%ADD15RoundRect,0.250000X-0.250000X-0.475000X0.250000X-0.475000X0.250000X0.475000X-0.250000X0.475000X0*%
%ADD16RoundRect,0.243750X0.243750X0.456250X-0.243750X0.456250X-0.243750X-0.456250X0.243750X-0.456250X0*%
%ADD17RoundRect,0.250000X0.475000X-0.250000X0.475000X0.250000X-0.475000X0.250000X-0.475000X-0.250000X0*%
%ADD18RoundRect,0.243750X0.456250X-0.243750X0.456250X0.243750X-0.456250X0.243750X-0.456250X-0.243750X0*%
G04 APERTURE END LIST*
D10*
%TO.C,C2*%
X139520000Y-71350000D03*
X139520000Y-73250000D03*
%TD*%
D11*
%TO.C,U2*%
X174195000Y-70045000D03*
X174195000Y-71315000D03*
X174195000Y-72585000D03*
X174195000Y-73855000D03*
X179345000Y-73855000D03*
X179345000Y-72585000D03*
X179345000Y-71315000D03*
X179345000Y-70045000D03*
%TD*%
D12*
%TO.C,R4*%
X152745000Y-135350000D03*
X150920000Y-135350000D03*
%TD*%
%TO.C,R6*%
X177995000Y-135350000D03*
X176170000Y-135350000D03*
%TD*%
D13*
%TO.C,R7*%
X188170000Y-72875000D03*
X188170000Y-71050000D03*
%TD*%
%TO.C,R2*%
X150560000Y-123175000D03*
X150560000Y-121350000D03*
%TD*%
D14*
%TO.C,C7*%
X184170000Y-135350000D03*
X182270000Y-135350000D03*
%TD*%
D13*
%TO.C,R1*%
X148020000Y-123175000D03*
X148020000Y-121350000D03*
%TD*%
D14*
%TO.C,C6*%
X171920000Y-135350000D03*
X170020000Y-135350000D03*
%TD*%
D12*
%TO.C,R3*%
X139495000Y-135350000D03*
X137670000Y-135350000D03*
%TD*%
D15*
%TO.C,C1*%
X183020000Y-70050000D03*
X184920000Y-70050000D03*
%TD*%
D12*
%TO.C,R5*%
X165745000Y-135350000D03*
X163920000Y-135350000D03*
%TD*%
D16*
%TO.C,D2*%
X129070000Y-71300000D03*
X127195000Y-71300000D03*
%TD*%
D14*
%TO.C,C4*%
X145670000Y-135350000D03*
X143770000Y-135350000D03*
%TD*%
%TO.C,C5*%
X158920000Y-135350000D03*
X157020000Y-135350000D03*
%TD*%
D17*
%TO.C,C3*%
X139520000Y-78000000D03*
X139520000Y-76100000D03*
%TD*%
D18*
%TO.C,D1*%
X127470000Y-133687500D03*
X127470000Y-131812500D03*
%TD*%
M02*
