%TF.GenerationSoftware,KiCad,Pcbnew,8.0.4-8.0.4-0~ubuntu22.04.1*%
%TF.CreationDate,2024-08-22T14:24:44+02:00*%
%TF.ProjectId,PCB_robot_controller,5043425f-726f-4626-9f74-5f636f6e7472,rev?*%
%TF.SameCoordinates,Original*%
%TF.FileFunction,Soldermask,Bot*%
%TF.FilePolarity,Negative*%
%FSLAX46Y46*%
G04 Gerber Fmt 4.6, Leading zero omitted, Abs format (unit mm)*
G04 Created by KiCad (PCBNEW 8.0.4-8.0.4-0~ubuntu22.04.1) date 2024-08-22 14:24:44*
%MOMM*%
%LPD*%
G01*
G04 APERTURE LIST*
%ADD10O,3.500000X3.500000*%
%ADD11R,2.000000X1.905000*%
%ADD12O,2.000000X1.905000*%
%ADD13C,2.400000*%
%ADD14C,2.000000*%
%ADD15R,1.905000X2.000000*%
%ADD16O,1.905000X2.000000*%
%ADD17R,1.700000X1.700000*%
%ADD18O,1.700000X1.700000*%
G04 APERTURE END LIST*
D10*
%TO.C,U1*%
X160850000Y-74725000D03*
D11*
X144190000Y-72185000D03*
D12*
X144190000Y-74725000D03*
X144190000Y-77265000D03*
%TD*%
D13*
%TO.C,POWER*%
X115420000Y-71300000D03*
X115420000Y-74800000D03*
%TD*%
D14*
%TO.C,SW4*%
X183420000Y-142850000D03*
X176920000Y-142850000D03*
X183420000Y-138350000D03*
X176920000Y-138350000D03*
%TD*%
D13*
%TO.C,COM*%
X204770000Y-73675000D03*
X204770000Y-70175000D03*
%TD*%
%TO.C,MOTOR4*%
X115420000Y-107010000D03*
X115420000Y-110510000D03*
X115420000Y-114010000D03*
X115420000Y-117510000D03*
X115420000Y-121010000D03*
X115420000Y-124510000D03*
%TD*%
D14*
%TO.C,SW2*%
X158170000Y-142850000D03*
X151670000Y-142850000D03*
X158170000Y-138350000D03*
X151670000Y-138350000D03*
%TD*%
D13*
%TO.C,MOTOR3*%
X115420000Y-82260000D03*
X115420000Y-85760000D03*
X115420000Y-89260000D03*
X115420000Y-92760000D03*
X115420000Y-96260000D03*
X115420000Y-99760000D03*
%TD*%
D10*
%TO.C,Q1*%
X148020000Y-100190000D03*
D15*
X145480000Y-116850000D03*
D16*
X148020000Y-116850000D03*
X150560000Y-116850000D03*
%TD*%
D13*
%TO.C,MOTOR2*%
X204740000Y-123300000D03*
X204740000Y-119800000D03*
X204740000Y-116300000D03*
X204740000Y-112800000D03*
X204740000Y-109300000D03*
X204740000Y-105800000D03*
%TD*%
%TO.C,MOTOR1*%
X204740000Y-98550000D03*
X204740000Y-95050000D03*
X204740000Y-91550000D03*
X204740000Y-88050000D03*
X204740000Y-84550000D03*
X204740000Y-81050000D03*
%TD*%
D14*
%TO.C,SW1*%
X144920000Y-142850000D03*
X138420000Y-142850000D03*
X144920000Y-138350000D03*
X138420000Y-138350000D03*
%TD*%
%TO.C,SW3*%
X171170000Y-142850000D03*
X164670000Y-142850000D03*
X171170000Y-138350000D03*
X164670000Y-138350000D03*
%TD*%
D13*
%TO.C,GRIPPER*%
X115420000Y-131800000D03*
X115420000Y-135300000D03*
%TD*%
D17*
%TO.C,J4*%
X189460000Y-80140000D03*
D18*
X192000000Y-80140000D03*
X189460000Y-82680000D03*
X192000000Y-82680000D03*
X189460000Y-85220000D03*
X192000000Y-85220000D03*
X189460000Y-87760000D03*
X192000000Y-87760000D03*
X189460000Y-90300000D03*
X192000000Y-90300000D03*
X189460000Y-92840000D03*
X192000000Y-92840000D03*
X189460000Y-95380000D03*
X192000000Y-95380000D03*
X189460000Y-97920000D03*
X192000000Y-97920000D03*
X189460000Y-100460000D03*
X192000000Y-100460000D03*
X189460000Y-103000000D03*
X192000000Y-103000000D03*
X189460000Y-105540000D03*
X192000000Y-105540000D03*
X189460000Y-108080000D03*
X192000000Y-108080000D03*
X189460000Y-110620000D03*
X192000000Y-110620000D03*
X189460000Y-113160000D03*
X192000000Y-113160000D03*
X189460000Y-115700000D03*
X192000000Y-115700000D03*
X189460000Y-118240000D03*
X192000000Y-118240000D03*
X189460000Y-120780000D03*
X192000000Y-120780000D03*
X189460000Y-123320000D03*
X192000000Y-123320000D03*
X189460000Y-125860000D03*
X192000000Y-125860000D03*
%TD*%
D17*
%TO.C,J3*%
X128500000Y-80140000D03*
D18*
X131040000Y-80140000D03*
X128500000Y-82680000D03*
X131040000Y-82680000D03*
X128500000Y-85220000D03*
X131040000Y-85220000D03*
X128500000Y-87760000D03*
X131040000Y-87760000D03*
X128500000Y-90300000D03*
X131040000Y-90300000D03*
X128500000Y-92840000D03*
X131040000Y-92840000D03*
X128500000Y-95380000D03*
X131040000Y-95380000D03*
X128500000Y-97920000D03*
X131040000Y-97920000D03*
X128500000Y-100460000D03*
X131040000Y-100460000D03*
X128500000Y-103000000D03*
X131040000Y-103000000D03*
X128500000Y-105540000D03*
X131040000Y-105540000D03*
X128500000Y-108080000D03*
X131040000Y-108080000D03*
X128500000Y-110620000D03*
X131040000Y-110620000D03*
X128500000Y-113160000D03*
X131040000Y-113160000D03*
X128500000Y-115700000D03*
X131040000Y-115700000D03*
X128500000Y-118240000D03*
X131040000Y-118240000D03*
X128500000Y-120780000D03*
X131040000Y-120780000D03*
X128500000Y-123320000D03*
X131040000Y-123320000D03*
X128500000Y-125860000D03*
X131040000Y-125860000D03*
%TD*%
M02*
