%TF.GenerationSoftware,KiCad,Pcbnew,8.0.4-8.0.4-0~ubuntu22.04.1*%
%TF.CreationDate,2024-08-22T14:24:41+02:00*%
%TF.ProjectId,PCB_robot_controller,5043425f-726f-4626-9f74-5f636f6e7472,rev?*%
%TF.SameCoordinates,Original*%
%TF.FileFunction,Soldermask,Top*%
%TF.FilePolarity,Negative*%
%FSLAX46Y46*%
G04 Gerber Fmt 4.6, Leading zero omitted, Abs format (unit mm)*
G04 Created by KiCad (PCBNEW 8.0.4-8.0.4-0~ubuntu22.04.1) date 2024-08-22 14:24:41*
%MOMM*%
%LPD*%
G01*
G04 APERTURE LIST*
G04 Aperture macros list*
%AMRoundRect*
0 Rectangle with rounded corners*
0 $1 Rounding radius*
0 $2 $3 $4 $5 $6 $7 $8 $9 X,Y pos of 4 corners*
0 Add a 4 corners polygon primitive as box body*
4,1,4,$2,$3,$4,$5,$6,$7,$8,$9,$2,$3,0*
0 Add four circle primitives for the rounded corners*
1,1,$1+$1,$2,$3*
1,1,$1+$1,$4,$5*
1,1,$1+$1,$6,$7*
1,1,$1+$1,$8,$9*
0 Add four rect primitives between the rounded corners*
20,1,$1+$1,$2,$3,$4,$5,0*
20,1,$1+$1,$4,$5,$6,$7,0*
20,1,$1+$1,$6,$7,$8,$9,0*
20,1,$1+$1,$8,$9,$2,$3,0*%
G04 Aperture macros list end*
%ADD10O,3.500000X3.500000*%
%ADD11R,2.000000X1.905000*%
%ADD12O,2.000000X1.905000*%
%ADD13RoundRect,0.250000X-0.475000X0.250000X-0.475000X-0.250000X0.475000X-0.250000X0.475000X0.250000X0*%
%ADD14RoundRect,0.150000X-0.725000X-0.150000X0.725000X-0.150000X0.725000X0.150000X-0.725000X0.150000X0*%
%ADD15C,2.400000*%
%ADD16C,2.000000*%
%ADD17RoundRect,0.250000X0.262500X0.450000X-0.262500X0.450000X-0.262500X-0.450000X0.262500X-0.450000X0*%
%ADD18RoundRect,0.250000X0.450000X-0.262500X0.450000X0.262500X-0.450000X0.262500X-0.450000X-0.262500X0*%
%ADD19R,1.905000X2.000000*%
%ADD20O,1.905000X2.000000*%
%ADD21RoundRect,0.250000X0.250000X0.475000X-0.250000X0.475000X-0.250000X-0.475000X0.250000X-0.475000X0*%
%ADD22RoundRect,0.250000X-0.250000X-0.475000X0.250000X-0.475000X0.250000X0.475000X-0.250000X0.475000X0*%
%ADD23RoundRect,0.243750X0.243750X0.456250X-0.243750X0.456250X-0.243750X-0.456250X0.243750X-0.456250X0*%
%ADD24RoundRect,0.250000X0.475000X-0.250000X0.475000X0.250000X-0.475000X0.250000X-0.475000X-0.250000X0*%
%ADD25RoundRect,0.243750X0.456250X-0.243750X0.456250X0.243750X-0.456250X0.243750X-0.456250X-0.243750X0*%
%ADD26R,1.700000X1.700000*%
%ADD27O,1.700000X1.700000*%
G04 APERTURE END LIST*
D10*
%TO.C,U1*%
X160850000Y-74725000D03*
D11*
X144190000Y-72185000D03*
D12*
X144190000Y-74725000D03*
X144190000Y-77265000D03*
%TD*%
D13*
%TO.C,C2*%
X139520000Y-71350000D03*
X139520000Y-73250000D03*
%TD*%
D14*
%TO.C,U2*%
X174195000Y-70045000D03*
X174195000Y-71315000D03*
X174195000Y-72585000D03*
X174195000Y-73855000D03*
X179345000Y-73855000D03*
X179345000Y-72585000D03*
X179345000Y-71315000D03*
X179345000Y-70045000D03*
%TD*%
D15*
%TO.C,POWER*%
X115420000Y-71300000D03*
X115420000Y-74800000D03*
%TD*%
D16*
%TO.C,SW4*%
X183420000Y-142850000D03*
X176920000Y-142850000D03*
X183420000Y-138350000D03*
X176920000Y-138350000D03*
%TD*%
D17*
%TO.C,R4*%
X152745000Y-135350000D03*
X150920000Y-135350000D03*
%TD*%
%TO.C,R6*%
X177995000Y-135350000D03*
X176170000Y-135350000D03*
%TD*%
D15*
%TO.C,COM*%
X204770000Y-73675000D03*
X204770000Y-70175000D03*
%TD*%
%TO.C,MOTOR4*%
X115420000Y-107010000D03*
X115420000Y-110510000D03*
X115420000Y-114010000D03*
X115420000Y-117510000D03*
X115420000Y-121010000D03*
X115420000Y-124510000D03*
%TD*%
D18*
%TO.C,R7*%
X188170000Y-72875000D03*
X188170000Y-71050000D03*
%TD*%
%TO.C,R2*%
X150560000Y-123175000D03*
X150560000Y-121350000D03*
%TD*%
D16*
%TO.C,SW2*%
X158170000Y-142850000D03*
X151670000Y-142850000D03*
X158170000Y-138350000D03*
X151670000Y-138350000D03*
%TD*%
D15*
%TO.C,MOTOR3*%
X115420000Y-82260000D03*
X115420000Y-85760000D03*
X115420000Y-89260000D03*
X115420000Y-92760000D03*
X115420000Y-96260000D03*
X115420000Y-99760000D03*
%TD*%
D10*
%TO.C,Q1*%
X148020000Y-100190000D03*
D19*
X145480000Y-116850000D03*
D20*
X148020000Y-116850000D03*
X150560000Y-116850000D03*
%TD*%
D21*
%TO.C,C7*%
X184170000Y-135350000D03*
X182270000Y-135350000D03*
%TD*%
D15*
%TO.C,MOTOR2*%
X204740000Y-123300000D03*
X204740000Y-119800000D03*
X204740000Y-116300000D03*
X204740000Y-112800000D03*
X204740000Y-109300000D03*
X204740000Y-105800000D03*
%TD*%
D18*
%TO.C,R1*%
X148020000Y-123175000D03*
X148020000Y-121350000D03*
%TD*%
D21*
%TO.C,C6*%
X171920000Y-135350000D03*
X170020000Y-135350000D03*
%TD*%
D15*
%TO.C,MOTOR1*%
X204740000Y-98550000D03*
X204740000Y-95050000D03*
X204740000Y-91550000D03*
X204740000Y-88050000D03*
X204740000Y-84550000D03*
X204740000Y-81050000D03*
%TD*%
D16*
%TO.C,SW1*%
X144920000Y-142850000D03*
X138420000Y-142850000D03*
X144920000Y-138350000D03*
X138420000Y-138350000D03*
%TD*%
%TO.C,SW3*%
X171170000Y-142850000D03*
X164670000Y-142850000D03*
X171170000Y-138350000D03*
X164670000Y-138350000D03*
%TD*%
D17*
%TO.C,R3*%
X139495000Y-135350000D03*
X137670000Y-135350000D03*
%TD*%
D22*
%TO.C,C1*%
X183020000Y-70050000D03*
X184920000Y-70050000D03*
%TD*%
D17*
%TO.C,R5*%
X165745000Y-135350000D03*
X163920000Y-135350000D03*
%TD*%
D23*
%TO.C,D2*%
X129070000Y-71300000D03*
X127195000Y-71300000D03*
%TD*%
D21*
%TO.C,C4*%
X145670000Y-135350000D03*
X143770000Y-135350000D03*
%TD*%
%TO.C,C5*%
X158920000Y-135350000D03*
X157020000Y-135350000D03*
%TD*%
D15*
%TO.C,GRIPPER*%
X115420000Y-131800000D03*
X115420000Y-135300000D03*
%TD*%
D24*
%TO.C,C3*%
X139520000Y-78000000D03*
X139520000Y-76100000D03*
%TD*%
D25*
%TO.C,D1*%
X127470000Y-133687500D03*
X127470000Y-131812500D03*
%TD*%
D26*
%TO.C,J4*%
X189460000Y-80140000D03*
D27*
X192000000Y-80140000D03*
X189460000Y-82680000D03*
X192000000Y-82680000D03*
X189460000Y-85220000D03*
X192000000Y-85220000D03*
X189460000Y-87760000D03*
X192000000Y-87760000D03*
X189460000Y-90300000D03*
X192000000Y-90300000D03*
X189460000Y-92840000D03*
X192000000Y-92840000D03*
X189460000Y-95380000D03*
X192000000Y-95380000D03*
X189460000Y-97920000D03*
X192000000Y-97920000D03*
X189460000Y-100460000D03*
X192000000Y-100460000D03*
X189460000Y-103000000D03*
X192000000Y-103000000D03*
X189460000Y-105540000D03*
X192000000Y-105540000D03*
X189460000Y-108080000D03*
X192000000Y-108080000D03*
X189460000Y-110620000D03*
X192000000Y-110620000D03*
X189460000Y-113160000D03*
X192000000Y-113160000D03*
X189460000Y-115700000D03*
X192000000Y-115700000D03*
X189460000Y-118240000D03*
X192000000Y-118240000D03*
X189460000Y-120780000D03*
X192000000Y-120780000D03*
X189460000Y-123320000D03*
X192000000Y-123320000D03*
X189460000Y-125860000D03*
X192000000Y-125860000D03*
%TD*%
D26*
%TO.C,J3*%
X128500000Y-80140000D03*
D27*
X131040000Y-80140000D03*
X128500000Y-82680000D03*
X131040000Y-82680000D03*
X128500000Y-85220000D03*
X131040000Y-85220000D03*
X128500000Y-87760000D03*
X131040000Y-87760000D03*
X128500000Y-90300000D03*
X131040000Y-90300000D03*
X128500000Y-92840000D03*
X131040000Y-92840000D03*
X128500000Y-95380000D03*
X131040000Y-95380000D03*
X128500000Y-97920000D03*
X131040000Y-97920000D03*
X128500000Y-100460000D03*
X131040000Y-100460000D03*
X128500000Y-103000000D03*
X131040000Y-103000000D03*
X128500000Y-105540000D03*
X131040000Y-105540000D03*
X128500000Y-108080000D03*
X131040000Y-108080000D03*
X128500000Y-110620000D03*
X131040000Y-110620000D03*
X128500000Y-113160000D03*
X131040000Y-113160000D03*
X128500000Y-115700000D03*
X131040000Y-115700000D03*
X128500000Y-118240000D03*
X131040000Y-118240000D03*
X128500000Y-120780000D03*
X131040000Y-120780000D03*
X128500000Y-123320000D03*
X131040000Y-123320000D03*
X128500000Y-125860000D03*
X131040000Y-125860000D03*
%TD*%
M02*
