M48
; DRILL file {KiCad 8.0.5-8.0.5-0~ubuntu22.04.1} date 2024-09-30T17:11:06+0200
; FORMAT={-:-/ absolute / inch / decimal}
; #@! TF.CreationDate,2024-09-30T17:11:06+02:00
; #@! TF.GenerationSoftware,Kicad,Pcbnew,8.0.5-8.0.5-0~ubuntu22.04.1
; #@! TF.FileFunction,Plated,1,2,PTH
FMAT,2
INCH
; #@! TA.AperFunction,Plated,PTH,ViaDrill
T1C0.0200
; #@! TA.AperFunction,Plated,PTH,ComponentDrill
T2C0.0374
; #@! TA.AperFunction,Plated,PTH,ComponentDrill
T3C0.0394
; #@! TA.AperFunction,Plated,PTH,ComponentDrill
T4C0.0551
; #@! TA.AperFunction,Plated,PTH,ComponentDrill
T5C0.0591
; #@! TA.AperFunction,Plated,PTH,ViaDrill
T6C0.1378
%
G90
G05
T1
X5.2362Y-1.8504
X5.2362Y-2.0079
X6.1417Y-3.0512
X6.2992Y-3.1102
X6.378Y-3.7205
X6.378Y-3.8583
X6.4567Y-3.1693
X6.5354Y-3.7205
X6.5354Y-4.0748
X6.7323Y-3.6024
X6.8504Y-3.6024
X6.9882Y-3.6024
X7.126Y-3.6024
X7.2638Y-3.6024
T2
X4.2913Y-2.1654
X4.3898Y-2.1654
X4.4882Y-2.1654
X4.5866Y-2.1654
X5.1378Y-2.1654
X5.2362Y-2.1654
X5.3346Y-2.1654
X5.4331Y-2.1654
X5.6693Y-2.1654
X5.7677Y-2.1654
X5.8661Y-2.1654
X5.9646Y-2.1654
X6.7126Y-2.1654
X6.811Y-2.1654
X6.9094Y-2.1654
X7.0079Y-2.1654
T3
X7.3593Y-2.3228
X7.4593Y-2.3228
X7.5593Y-2.3228
X7.6593Y-2.3228
X7.6756Y-3.7945
X7.6756Y-3.8945
X7.6756Y-3.9945
X7.6756Y-4.0945
X7.6756Y-4.1945
X7.7593Y-2.3228
X7.7756Y-3.7945
X7.7756Y-3.8945
X7.7756Y-3.9945
X7.7756Y-4.0945
X7.7756Y-4.1945
T4
X4.1142Y-5.1575
X4.1339Y-1.4567
X4.252Y-5.1575
X4.2717Y-1.4567
X4.3898Y-5.1575
X4.4094Y-1.4567
X4.5276Y-5.1575
X4.5472Y-1.4567
X4.6654Y-5.1575
X4.685Y-1.4567
X4.8031Y-5.1575
X4.8228Y-1.4567
X4.9409Y-5.1575
X4.9606Y-1.4567
X5.0787Y-5.1575
X5.0984Y-1.4567
X5.502Y-1.4567
X5.6398Y-1.4567
X5.7776Y-1.4567
X5.9154Y-1.4567
X6.0531Y-1.4567
X6.1909Y-1.4567
X6.3287Y-1.4567
X6.4665Y-1.4567
X6.7126Y-4.9803
X6.8504Y-4.9803
X6.8602Y-1.4567
X6.9882Y-4.9803
X6.998Y-1.4567
X7.126Y-4.9803
X7.1358Y-1.4567
X7.2638Y-4.9803
X7.2736Y-1.4567
X7.4016Y-4.9803
X7.4114Y-1.4567
X7.5492Y-1.4567
X7.687Y-1.4567
X7.8248Y-1.4567
T5
X4.6654Y-4.5079
X4.8819Y-4.5079
T6
X4.1547Y-3.4281
X4.8579Y-2.051
X5.4071Y-3.5321
X7.3051Y-2.0431
X7.922Y-4.5892
M30
