%TF.GenerationSoftware,KiCad,Pcbnew,8.0.5-8.0.5-0~ubuntu22.04.1*%
%TF.CreationDate,2024-09-30T17:11:09+02:00*%
%TF.ProjectId,BTT-SKR-MINI-E3_shield,4254542d-534b-4522-9d4d-494e492d4533,rev?*%
%TF.SameCoordinates,Original*%
%TF.FileFunction,Copper,L1,Top*%
%TF.FilePolarity,Positive*%
%FSLAX46Y46*%
G04 Gerber Fmt 4.6, Leading zero omitted, Abs format (unit mm)*
G04 Created by KiCad (PCBNEW 8.0.5-8.0.5-0~ubuntu22.04.1) date 2024-09-30 17:11:09*
%MOMM*%
%LPD*%
G01*
G04 APERTURE LIST*
G04 Aperture macros list*
%AMRoundRect*
0 Rectangle with rounded corners*
0 $1 Rounding radius*
0 $2 $3 $4 $5 $6 $7 $8 $9 X,Y pos of 4 corners*
0 Add a 4 corners polygon primitive as box body*
4,1,4,$2,$3,$4,$5,$6,$7,$8,$9,$2,$3,0*
0 Add four circle primitives for the rounded corners*
1,1,$1+$1,$2,$3*
1,1,$1+$1,$4,$5*
1,1,$1+$1,$6,$7*
1,1,$1+$1,$8,$9*
0 Add four rect primitives between the rounded corners*
20,1,$1+$1,$2,$3,$4,$5,0*
20,1,$1+$1,$4,$5,$6,$7,0*
20,1,$1+$1,$6,$7,$8,$9,0*
20,1,$1+$1,$8,$9,$2,$3,0*%
G04 Aperture macros list end*
%TA.AperFunction,ComponentPad*%
%ADD10R,1.700000X1.700000*%
%TD*%
%TA.AperFunction,ComponentPad*%
%ADD11O,1.700000X1.700000*%
%TD*%
%TA.AperFunction,ComponentPad*%
%ADD12R,2.500000X2.500000*%
%TD*%
%TA.AperFunction,ComponentPad*%
%ADD13C,2.500000*%
%TD*%
%TA.AperFunction,ComponentPad*%
%ADD14RoundRect,0.250000X-0.600000X-0.725000X0.600000X-0.725000X0.600000X0.725000X-0.600000X0.725000X0*%
%TD*%
%TA.AperFunction,ComponentPad*%
%ADD15O,1.700000X1.950000*%
%TD*%
%TA.AperFunction,SMDPad,CuDef*%
%ADD16RoundRect,0.250000X0.450000X-0.262500X0.450000X0.262500X-0.450000X0.262500X-0.450000X-0.262500X0*%
%TD*%
%TA.AperFunction,ComponentPad*%
%ADD17RoundRect,0.250000X-0.600000X-0.600000X0.600000X-0.600000X0.600000X0.600000X-0.600000X0.600000X0*%
%TD*%
%TA.AperFunction,ComponentPad*%
%ADD18C,1.700000*%
%TD*%
%TA.AperFunction,ComponentPad*%
%ADD19C,3.000000*%
%TD*%
%TA.AperFunction,ViaPad*%
%ADD20C,1.016000*%
%TD*%
%TA.AperFunction,ViaPad*%
%ADD21C,6.000000*%
%TD*%
%TA.AperFunction,Conductor*%
%ADD22C,0.889000*%
%TD*%
%TA.AperFunction,Conductor*%
%ADD23C,1.270000*%
%TD*%
G04 APERTURE END LIST*
D10*
%TO.P,GPIO1,1,Pin_1*%
%TO.N,PD0*%
X186925000Y-59000000D03*
D11*
%TO.P,GPIO1,2,Pin_2*%
%TO.N,BTN1*%
X189465000Y-59000000D03*
%TO.P,GPIO1,3,Pin_3*%
%TO.N,LED1*%
X192005000Y-59000000D03*
%TO.P,GPIO1,4,Pin_4*%
%TO.N,BTN2*%
X194545000Y-59000000D03*
%TO.P,GPIO1,5,Pin_5*%
%TO.N,LED2*%
X197085000Y-59000000D03*
%TD*%
D12*
%TO.P,MOTOR1,1,Pin_1*%
%TO.N,M1_2A*%
X129500000Y-37000000D03*
D13*
%TO.P,MOTOR1,2,Pin_2*%
%TO.N,M1_1A*%
X126000000Y-37000000D03*
%TO.P,MOTOR1,3,Pin_3*%
%TO.N,M1_1B*%
X122500000Y-37000000D03*
%TO.P,MOTOR1,4,Pin_4*%
%TO.N,M1_2B*%
X119000000Y-37000000D03*
%TO.P,MOTOR1,5,Pin_5*%
%TO.N,+5V*%
X115500000Y-37000000D03*
%TO.P,MOTOR1,6,Pin_6*%
%TO.N,GND*%
X112000000Y-37000000D03*
%TO.P,MOTOR1,7,Pin_7*%
%TO.N,E1_A*%
X108500000Y-37000000D03*
%TO.P,MOTOR1,8,Pin_8*%
%TO.N,E1_B*%
X105000000Y-37000000D03*
%TD*%
D12*
%TO.P,MOTOR3,1,Pin_1*%
%TO.N,M3_2A*%
X198750000Y-37000000D03*
D13*
%TO.P,MOTOR3,2,Pin_2*%
%TO.N,M3_1A*%
X195250000Y-37000000D03*
%TO.P,MOTOR3,3,Pin_3*%
%TO.N,M3_1B*%
X191750000Y-37000000D03*
%TO.P,MOTOR3,4,Pin_4*%
%TO.N,M3_2B*%
X188250000Y-37000000D03*
%TO.P,MOTOR3,5,Pin_5*%
%TO.N,+5V*%
X184750000Y-37000000D03*
%TO.P,MOTOR3,6,Pin_6*%
%TO.N,GND*%
X181250000Y-37000000D03*
%TO.P,MOTOR3,7,Pin_7*%
%TO.N,E3_A*%
X177750000Y-37000000D03*
%TO.P,MOTOR3,8,Pin_8*%
%TO.N,E3_B*%
X174250000Y-37000000D03*
%TD*%
D14*
%TO.P,EM1,1,Pin_1*%
%TO.N,M4_2B*%
X170500000Y-55000000D03*
D15*
%TO.P,EM1,2,Pin_2*%
%TO.N,M4_1B*%
X173000000Y-55000000D03*
%TO.P,EM1,3,Pin_3*%
%TO.N,M4_1A*%
X175500000Y-55000000D03*
%TO.P,EM1,4,Pin_4*%
%TO.N,M4_2A*%
X178000000Y-55000000D03*
%TD*%
D16*
%TO.P,R2,1*%
%TO.N,+5V*%
X181000000Y-134325000D03*
%TO.P,R2,2*%
%TO.N,BTN2*%
X181000000Y-132500000D03*
%TD*%
D14*
%TO.P,ZM1,1,Pin_1*%
%TO.N,M3_2B*%
X144000000Y-55000000D03*
D15*
%TO.P,ZM1,2,Pin_2*%
%TO.N,M3_1B*%
X146500000Y-55000000D03*
%TO.P,ZM1,3,Pin_3*%
%TO.N,M3_1A*%
X149000000Y-55000000D03*
%TO.P,ZM1,4,Pin_4*%
%TO.N,M3_2A*%
X151500000Y-55000000D03*
%TD*%
D16*
%TO.P,R1,1*%
%TO.N,+5V*%
X174000000Y-134325000D03*
%TO.P,R1,2*%
%TO.N,BTN1*%
X174000000Y-132500000D03*
%TD*%
D12*
%TO.P,MOTOR4,1,Pin_1*%
%TO.N,M4_2B*%
X104500000Y-131000000D03*
D13*
%TO.P,MOTOR4,2,Pin_2*%
%TO.N,M4_1B*%
X108000000Y-131000000D03*
%TO.P,MOTOR4,3,Pin_3*%
%TO.N,M4_1A*%
X111500000Y-131000000D03*
%TO.P,MOTOR4,4,Pin_4*%
%TO.N,M4_2A*%
X115000000Y-131000000D03*
%TO.P,MOTOR4,5,Pin_5*%
%TO.N,GRP-*%
X118500000Y-131000000D03*
%TO.P,MOTOR4,6,Pin_6*%
%TO.N,GRP+*%
X122000000Y-131000000D03*
%TO.P,MOTOR4,7,Pin_7*%
%TO.N,PD0*%
X125500000Y-131000000D03*
%TO.P,MOTOR4,8,Pin_8*%
%TO.N,GND*%
X129000000Y-131000000D03*
%TD*%
D14*
%TO.P,YM1,1,Pin_1*%
%TO.N,M2_2B*%
X130500000Y-55000000D03*
D15*
%TO.P,YM1,2,Pin_2*%
%TO.N,M2_1B*%
X133000000Y-55000000D03*
%TO.P,YM1,3,Pin_3*%
%TO.N,M2_1A*%
X135500000Y-55000000D03*
%TO.P,YM1,4,Pin_4*%
%TO.N,M2_2A*%
X138000000Y-55000000D03*
%TD*%
D17*
%TO.P,EXP1,1,Pin_1*%
%TO.N,+5V*%
X197500000Y-106540000D03*
D18*
%TO.P,EXP1,2,Pin_2*%
%TO.N,GND*%
X194960000Y-106540000D03*
%TO.P,EXP1,3,Pin_3*%
%TO.N,E3_B*%
X197500000Y-104000000D03*
%TO.P,EXP1,4,Pin_4*%
%TO.N,E3_A*%
X194960000Y-104000000D03*
%TO.P,EXP1,5,Pin_5*%
%TO.N,E2_B*%
X197500000Y-101460000D03*
%TO.P,EXP1,6,Pin_6*%
%TO.N,E2_A*%
X194960000Y-101460000D03*
%TO.P,EXP1,7,Pin_7*%
%TO.N,unconnected-(EXP1-Pin_7-Pad7)*%
X197500000Y-98920000D03*
%TO.P,EXP1,8,Pin_8*%
%TO.N,unconnected-(EXP1-Pin_8-Pad8)*%
X194960000Y-98920000D03*
%TO.P,EXP1,9,Pin_9*%
%TO.N,E1_B*%
X197500000Y-96380000D03*
%TO.P,EXP1,10,Pin_10*%
%TO.N,E1_A*%
X194960000Y-96380000D03*
%TD*%
D14*
%TO.P,XM1,1,Pin_1*%
%TO.N,M1_2B*%
X109000000Y-55000000D03*
D15*
%TO.P,XM1,2,Pin_2*%
%TO.N,M1_1B*%
X111500000Y-55000000D03*
%TO.P,XM1,3,Pin_3*%
%TO.N,M1_1A*%
X114000000Y-55000000D03*
%TO.P,XM1,4,Pin_4*%
%TO.N,M1_2A*%
X116500000Y-55000000D03*
%TD*%
D19*
%TO.P,GRP-,1*%
%TO.N,GRP-*%
X118500000Y-114500000D03*
%TD*%
D12*
%TO.P,PWR1,1,Pin_1*%
%TO.N,+5V*%
X170500000Y-126500000D03*
D13*
%TO.P,PWR1,2,Pin_2*%
%TO.N,BTN1*%
X174000000Y-126500000D03*
%TO.P,PWR1,3,Pin_3*%
%TO.N,LED1*%
X177500000Y-126500000D03*
%TO.P,PWR1,4,Pin_4*%
%TO.N,BTN2*%
X181000000Y-126500000D03*
%TO.P,PWR1,5,Pin_5*%
%TO.N,LED2*%
X184500000Y-126500000D03*
%TO.P,PWR1,6,Pin_6*%
%TO.N,GND*%
X188000000Y-126500000D03*
%TD*%
D19*
%TO.P,GRP+,1*%
%TO.N,GRP+*%
X124000000Y-114500000D03*
%TD*%
D12*
%TO.P,MOTOR2,1,Pin_1*%
%TO.N,M2_2A*%
X164250000Y-37000000D03*
D13*
%TO.P,MOTOR2,2,Pin_2*%
%TO.N,M2_1A*%
X160750000Y-37000000D03*
%TO.P,MOTOR2,3,Pin_3*%
%TO.N,M2_1B*%
X157250000Y-37000000D03*
%TO.P,MOTOR2,4,Pin_4*%
%TO.N,M2_2B*%
X153750000Y-37000000D03*
%TO.P,MOTOR2,5,Pin_5*%
%TO.N,+5V*%
X150250000Y-37000000D03*
%TO.P,MOTOR2,6,Pin_6*%
%TO.N,GND*%
X146750000Y-37000000D03*
%TO.P,MOTOR2,7,Pin_7*%
%TO.N,E2_A*%
X143250000Y-37000000D03*
%TO.P,MOTOR2,8,Pin_8*%
%TO.N,E2_B*%
X139750000Y-37000000D03*
%TD*%
D20*
%TO.N,PD0*%
X171000000Y-91500000D03*
D21*
%TO.N,*%
X123390000Y-52095000D03*
X201220000Y-116565000D03*
X105530000Y-87075000D03*
X137340000Y-89715000D03*
X185550000Y-51895000D03*
D20*
%TO.N,LED1*%
X177500000Y-91500000D03*
%TO.N,LED2*%
X184500000Y-91500000D03*
%TO.N,BTN1*%
X174000000Y-91500000D03*
%TO.N,BTN2*%
X181000000Y-91500000D03*
%TO.N,E2_B*%
X160000000Y-79000000D03*
%TO.N,E1_B*%
X156000000Y-77500000D03*
%TO.N,E3_A*%
X166000000Y-94500000D03*
X166000000Y-103500000D03*
%TO.N,E3_B*%
X164000000Y-80500000D03*
%TO.N,E2_A*%
X162000000Y-94500000D03*
X162000000Y-98000000D03*
%TO.N,M2_1B*%
X133000000Y-47000000D03*
X133000000Y-51000000D03*
%TD*%
D22*
%TO.N,PD0*%
X171000000Y-91500000D02*
X171000000Y-87500000D01*
X171000000Y-87500000D02*
X186925000Y-71575000D01*
X186925000Y-71575000D02*
X186925000Y-59000000D01*
%TO.N,LED2*%
X184500000Y-91500000D02*
X184500000Y-88000000D01*
X184500000Y-88000000D02*
X197085000Y-75415000D01*
X197085000Y-75415000D02*
X197085000Y-59000000D01*
%TO.N,BTN2*%
X181000000Y-91500000D02*
X181000000Y-88000000D01*
X181000000Y-88000000D02*
X194545000Y-74455000D01*
X194545000Y-74455000D02*
X194545000Y-59000000D01*
%TO.N,LED1*%
X177500000Y-91500000D02*
X177500000Y-88000000D01*
X192005000Y-73495000D02*
X192005000Y-59000000D01*
X177500000Y-88000000D02*
X192005000Y-73495000D01*
%TO.N,BTN1*%
X174000000Y-91500000D02*
X174000000Y-88500000D01*
X174000000Y-88500000D02*
X189465000Y-73035000D01*
X189465000Y-73035000D02*
X189465000Y-59000000D01*
X174000000Y-132500000D02*
X174000000Y-126500000D01*
%TO.N,BTN2*%
X181000000Y-132500000D02*
X181000000Y-126500000D01*
D23*
%TO.N,+5V*%
X170500000Y-132500000D02*
X170500000Y-126500000D01*
X202500000Y-105500000D02*
X201460000Y-106540000D01*
X164000000Y-33000000D02*
X152000000Y-33000000D01*
X150250000Y-34750000D02*
X148500000Y-33000000D01*
X200500000Y-33000000D02*
X202500000Y-35000000D01*
X115500000Y-34500000D02*
X115500000Y-37000000D01*
X196500000Y-114500000D02*
X196500000Y-132500000D01*
X172500000Y-134500000D02*
X170500000Y-132500000D01*
X184750000Y-34750000D02*
X186500000Y-33000000D01*
X150250000Y-37000000D02*
X150250000Y-34750000D01*
X194500000Y-134500000D02*
X172500000Y-134500000D01*
X201460000Y-106540000D02*
X199000000Y-106540000D01*
X200500000Y-110500000D02*
X196500000Y-114500000D01*
X200500000Y-107540000D02*
X200500000Y-110500000D01*
X117000000Y-33000000D02*
X115500000Y-34500000D01*
X152000000Y-33000000D02*
X150250000Y-34750000D01*
X184750000Y-34750000D02*
X183000000Y-33000000D01*
X186500000Y-33000000D02*
X200500000Y-33000000D01*
X148500000Y-33000000D02*
X117000000Y-33000000D01*
X183000000Y-33000000D02*
X164000000Y-33000000D01*
X202500000Y-35000000D02*
X202500000Y-105500000D01*
X199000000Y-106540000D02*
X197500000Y-106540000D01*
X196500000Y-132500000D02*
X194500000Y-134500000D01*
X184750000Y-37000000D02*
X184750000Y-34750000D01*
X199500000Y-106540000D02*
X200500000Y-107540000D01*
D22*
%TO.N,E1_A*%
X155500000Y-44000000D02*
X158000000Y-46500000D01*
X108500000Y-37000000D02*
X108500000Y-42000000D01*
X159880000Y-96380000D02*
X194960000Y-96380000D01*
X108500000Y-42000000D02*
X110500000Y-44000000D01*
X158000000Y-46500000D02*
X158000000Y-94500000D01*
X158000000Y-94500000D02*
X159880000Y-96380000D01*
X110500000Y-44000000D02*
X155500000Y-44000000D01*
%TO.N,E2_B*%
X143000000Y-42500000D02*
X139750000Y-39250000D01*
X160000000Y-79000000D02*
X160000000Y-46000000D01*
X139750000Y-39250000D02*
X139750000Y-37000000D01*
X160000000Y-46000000D02*
X156500000Y-42500000D01*
X156500000Y-42500000D02*
X143000000Y-42500000D01*
%TO.N,E1_B*%
X105000000Y-42000000D02*
X105000000Y-37000000D01*
X156000000Y-47000000D02*
X154500000Y-45500000D01*
X154500000Y-45500000D02*
X108500000Y-45500000D01*
X156000000Y-77500000D02*
X156000000Y-47000000D01*
X108500000Y-45500000D02*
X105000000Y-42000000D01*
%TO.N,E3_A*%
X174500000Y-43500000D02*
X168000000Y-43500000D01*
X166000000Y-45500000D02*
X166000000Y-94500000D01*
X177750000Y-37000000D02*
X177750000Y-40250000D01*
X168000000Y-43500000D02*
X166000000Y-45500000D01*
X166500000Y-104000000D02*
X194960000Y-104000000D01*
X166000000Y-103500000D02*
X166500000Y-104000000D01*
X177750000Y-40250000D02*
X174500000Y-43500000D01*
%TO.N,E3_B*%
X164000000Y-44500000D02*
X167000000Y-41500000D01*
X167000000Y-41500000D02*
X172500000Y-41500000D01*
X174250000Y-39750000D02*
X174250000Y-37000000D01*
X164000000Y-80500000D02*
X164000000Y-44500000D01*
X172500000Y-41500000D02*
X174250000Y-39750000D01*
%TO.N,E2_A*%
X194920000Y-101500000D02*
X194960000Y-101460000D01*
X162000000Y-98000000D02*
X165500000Y-101500000D01*
X145000000Y-41000000D02*
X158000000Y-41000000D01*
X162000000Y-45000000D02*
X162000000Y-94500000D01*
X143250000Y-39250000D02*
X145000000Y-41000000D01*
X165500000Y-101500000D02*
X194920000Y-101500000D01*
X143250000Y-37000000D02*
X143250000Y-39250000D01*
X158000000Y-41000000D02*
X162000000Y-45000000D01*
%TO.N,M2_1B*%
X133000000Y-47000000D02*
X133000000Y-51000000D01*
D23*
%TO.N,GRP+*%
X122000000Y-123500000D02*
X124000000Y-121500000D01*
X122000000Y-131000000D02*
X122000000Y-123500000D01*
X124000000Y-121500000D02*
X124000000Y-114500000D01*
%TO.N,GRP-*%
X118500000Y-131000000D02*
X118500000Y-114500000D01*
%TD*%
%TA.AperFunction,Conductor*%
%TO.N,GND*%
G36*
X203442539Y-30520185D02*
G01*
X203488294Y-30572989D01*
X203499500Y-30624500D01*
X203499500Y-34094298D01*
X203479815Y-34161337D01*
X203427011Y-34207092D01*
X203357853Y-34217036D01*
X203294297Y-34188011D01*
X203287819Y-34181979D01*
X201239730Y-32133891D01*
X201239729Y-32133890D01*
X201095132Y-32028833D01*
X200935881Y-31947691D01*
X200935875Y-31947688D01*
X200894194Y-31934146D01*
X200827453Y-31912460D01*
X200765897Y-31892459D01*
X200765895Y-31892458D01*
X200765894Y-31892458D01*
X200589370Y-31864500D01*
X200589366Y-31864500D01*
X186589366Y-31864500D01*
X186410634Y-31864500D01*
X186410630Y-31864500D01*
X186234105Y-31892458D01*
X186105805Y-31934146D01*
X186105804Y-31934145D01*
X186064118Y-31947690D01*
X185904867Y-32028833D01*
X185760270Y-32133890D01*
X185760269Y-32133891D01*
X184837681Y-33056480D01*
X184776358Y-33089965D01*
X184706666Y-33084981D01*
X184662319Y-33056480D01*
X183739729Y-32133890D01*
X183595132Y-32028833D01*
X183435881Y-31947691D01*
X183435875Y-31947688D01*
X183394194Y-31934146D01*
X183327453Y-31912460D01*
X183265897Y-31892459D01*
X183265895Y-31892458D01*
X183265894Y-31892458D01*
X183089370Y-31864500D01*
X183089366Y-31864500D01*
X164089366Y-31864500D01*
X152089366Y-31864500D01*
X151910634Y-31864500D01*
X151910630Y-31864500D01*
X151734105Y-31892458D01*
X151605805Y-31934146D01*
X151605804Y-31934145D01*
X151564118Y-31947690D01*
X151404867Y-32028833D01*
X151260270Y-32133890D01*
X151260269Y-32133891D01*
X150337681Y-33056480D01*
X150276358Y-33089965D01*
X150206666Y-33084981D01*
X150162319Y-33056480D01*
X149239729Y-32133890D01*
X149095132Y-32028833D01*
X148935881Y-31947691D01*
X148935875Y-31947688D01*
X148894194Y-31934146D01*
X148827453Y-31912460D01*
X148765897Y-31892459D01*
X148765895Y-31892458D01*
X148765894Y-31892458D01*
X148589370Y-31864500D01*
X148589366Y-31864500D01*
X116910634Y-31864500D01*
X116851790Y-31873820D01*
X116734101Y-31892460D01*
X116734098Y-31892460D01*
X116564121Y-31947689D01*
X116564118Y-31947690D01*
X116404866Y-32028834D01*
X116321116Y-32089681D01*
X116321115Y-32089680D01*
X116260276Y-32133884D01*
X116260267Y-32133891D01*
X114760272Y-33633889D01*
X114633891Y-33760269D01*
X114633890Y-33760270D01*
X114528833Y-33904867D01*
X114447243Y-34064997D01*
X114446184Y-34068754D01*
X114393490Y-34230929D01*
X114392459Y-34234103D01*
X114379786Y-34314120D01*
X114379786Y-34314122D01*
X114364500Y-34410629D01*
X114364500Y-35611527D01*
X114344815Y-35678566D01*
X114324842Y-35702425D01*
X114213197Y-35806016D01*
X114213195Y-35806019D01*
X114049614Y-36011143D01*
X113918433Y-36238354D01*
X113865159Y-36374093D01*
X113822343Y-36429306D01*
X113756473Y-36452607D01*
X113688462Y-36436596D01*
X113639904Y-36386358D01*
X113634302Y-36374092D01*
X113581113Y-36238567D01*
X113449972Y-36011426D01*
X113402124Y-35951427D01*
X112639309Y-36714242D01*
X112620332Y-36668426D01*
X112543726Y-36553776D01*
X112446224Y-36456274D01*
X112331574Y-36379668D01*
X112285757Y-36360690D01*
X113049168Y-35597278D01*
X112877454Y-35480206D01*
X112877445Y-35480201D01*
X112641142Y-35366404D01*
X112641144Y-35366404D01*
X112390505Y-35289092D01*
X112390499Y-35289090D01*
X112131151Y-35250000D01*
X111868848Y-35250000D01*
X111609500Y-35289090D01*
X111609494Y-35289092D01*
X111358858Y-35366404D01*
X111358854Y-35366405D01*
X111122547Y-35480205D01*
X111122539Y-35480210D01*
X110950830Y-35597277D01*
X111714243Y-36360690D01*
X111668426Y-36379668D01*
X111553776Y-36456274D01*
X111456274Y-36553776D01*
X111379668Y-36668426D01*
X111360690Y-36714242D01*
X110597875Y-35951427D01*
X110597874Y-35951427D01*
X110550028Y-36011425D01*
X110418883Y-36238573D01*
X110365696Y-36374092D01*
X110322880Y-36429306D01*
X110257010Y-36452607D01*
X110189000Y-36436596D01*
X110140441Y-36386358D01*
X110134840Y-36374092D01*
X110105761Y-36300000D01*
X110081568Y-36238357D01*
X109950386Y-36011143D01*
X109786805Y-35806019D01*
X109786804Y-35806018D01*
X109786801Y-35806014D01*
X109594479Y-35627567D01*
X109439202Y-35521701D01*
X109377704Y-35479772D01*
X109377700Y-35479770D01*
X109377697Y-35479768D01*
X109377696Y-35479767D01*
X109141325Y-35365938D01*
X109141327Y-35365938D01*
X108890623Y-35288606D01*
X108890619Y-35288605D01*
X108890615Y-35288604D01*
X108765823Y-35269794D01*
X108631187Y-35249500D01*
X108631182Y-35249500D01*
X108368818Y-35249500D01*
X108368812Y-35249500D01*
X108207247Y-35273853D01*
X108109385Y-35288604D01*
X108109382Y-35288605D01*
X108109376Y-35288606D01*
X107858673Y-35365938D01*
X107622303Y-35479767D01*
X107622302Y-35479768D01*
X107622296Y-35479771D01*
X107622296Y-35479772D01*
X107621654Y-35480210D01*
X107405520Y-35627567D01*
X107213198Y-35806014D01*
X107049614Y-36011143D01*
X106918432Y-36238356D01*
X106865428Y-36373409D01*
X106822612Y-36428623D01*
X106756742Y-36451924D01*
X106688732Y-36435913D01*
X106640173Y-36385675D01*
X106634572Y-36373409D01*
X106605761Y-36300000D01*
X106581568Y-36238357D01*
X106450386Y-36011143D01*
X106286805Y-35806019D01*
X106286804Y-35806018D01*
X106286801Y-35806014D01*
X106094479Y-35627567D01*
X105939202Y-35521701D01*
X105877704Y-35479772D01*
X105877700Y-35479770D01*
X105877697Y-35479768D01*
X105877696Y-35479767D01*
X105641325Y-35365938D01*
X105641327Y-35365938D01*
X105390623Y-35288606D01*
X105390619Y-35288605D01*
X105390615Y-35288604D01*
X105265823Y-35269794D01*
X105131187Y-35249500D01*
X105131182Y-35249500D01*
X104868818Y-35249500D01*
X104868812Y-35249500D01*
X104707247Y-35273853D01*
X104609385Y-35288604D01*
X104609382Y-35288605D01*
X104609376Y-35288606D01*
X104358673Y-35365938D01*
X104122303Y-35479767D01*
X104122302Y-35479768D01*
X104122296Y-35479771D01*
X104122296Y-35479772D01*
X104121654Y-35480210D01*
X103905520Y-35627567D01*
X103713198Y-35806014D01*
X103549614Y-36011143D01*
X103418432Y-36238356D01*
X103322582Y-36482578D01*
X103322576Y-36482597D01*
X103264197Y-36738374D01*
X103264196Y-36738379D01*
X103244592Y-36999995D01*
X103244592Y-37000004D01*
X103264196Y-37261620D01*
X103264197Y-37261625D01*
X103322576Y-37517402D01*
X103322578Y-37517411D01*
X103322580Y-37517416D01*
X103418432Y-37761643D01*
X103549614Y-37988857D01*
X103681736Y-38154533D01*
X103713198Y-38193985D01*
X103825163Y-38297872D01*
X103905521Y-38372433D01*
X104000853Y-38437429D01*
X104045154Y-38491457D01*
X104055000Y-38539882D01*
X104055000Y-42093074D01*
X104055000Y-42093076D01*
X104054999Y-42093076D01*
X104079545Y-42216468D01*
X104083038Y-42234029D01*
X104091316Y-42275646D01*
X104162552Y-42447627D01*
X104265967Y-42602398D01*
X104265973Y-42602406D01*
X107897592Y-46234025D01*
X107897595Y-46234027D01*
X107897597Y-46234029D01*
X108001016Y-46303130D01*
X108039490Y-46328838D01*
X108052373Y-46337447D01*
X108052374Y-46337447D01*
X108052375Y-46337448D01*
X108153117Y-46379176D01*
X108153118Y-46379176D01*
X108153119Y-46379177D01*
X108224345Y-46408681D01*
X108224347Y-46408681D01*
X108224353Y-46408684D01*
X108260669Y-46415907D01*
X108377674Y-46439181D01*
X108406925Y-46445000D01*
X108406926Y-46445000D01*
X131947435Y-46445000D01*
X132014474Y-46464685D01*
X132060229Y-46517489D01*
X132070173Y-46586647D01*
X132064821Y-46606151D01*
X132065528Y-46606366D01*
X132006091Y-46802300D01*
X131986620Y-47000000D01*
X132006091Y-47197699D01*
X132049661Y-47341328D01*
X132055000Y-47377323D01*
X132055000Y-50622675D01*
X132049661Y-50658670D01*
X132006091Y-50802300D01*
X131986620Y-51000000D01*
X132006091Y-51197699D01*
X132063760Y-51387808D01*
X132157401Y-51562998D01*
X132157405Y-51563005D01*
X132283431Y-51716568D01*
X132436994Y-51842594D01*
X132437001Y-51842598D01*
X132612191Y-51936239D01*
X132612193Y-51936239D01*
X132612196Y-51936241D01*
X132802299Y-51993908D01*
X132802298Y-51993908D01*
X132820024Y-51995653D01*
X133000000Y-52013380D01*
X133197701Y-51993908D01*
X133387804Y-51936241D01*
X133563004Y-51842595D01*
X133716568Y-51716568D01*
X133842595Y-51563004D01*
X133936241Y-51387804D01*
X133993908Y-51197701D01*
X134013380Y-51000000D01*
X133993908Y-50802299D01*
X133950339Y-50658670D01*
X133945000Y-50622675D01*
X133945000Y-47377323D01*
X133950339Y-47341328D01*
X133993908Y-47197701D01*
X134013380Y-47000000D01*
X133993908Y-46802299D01*
X133936241Y-46612196D01*
X133936239Y-46612193D01*
X133934472Y-46606366D01*
X133936843Y-46605646D01*
X133930534Y-46546992D01*
X133961804Y-46484511D01*
X134021891Y-46448854D01*
X134052565Y-46445000D01*
X154057206Y-46445000D01*
X154124245Y-46464685D01*
X154144887Y-46481319D01*
X155018681Y-47355113D01*
X155052166Y-47416436D01*
X155055000Y-47442794D01*
X155055000Y-77122675D01*
X155049661Y-77158670D01*
X155006091Y-77302300D01*
X154986620Y-77500000D01*
X155006091Y-77697699D01*
X155063760Y-77887808D01*
X155157401Y-78062998D01*
X155157405Y-78063005D01*
X155283431Y-78216568D01*
X155436994Y-78342594D01*
X155437001Y-78342598D01*
X155612191Y-78436239D01*
X155612193Y-78436239D01*
X155612196Y-78436241D01*
X155802299Y-78493908D01*
X155802298Y-78493908D01*
X155820024Y-78495653D01*
X156000000Y-78513380D01*
X156197701Y-78493908D01*
X156387804Y-78436241D01*
X156563004Y-78342595D01*
X156716568Y-78216568D01*
X156835147Y-78072078D01*
X156892892Y-78032745D01*
X156962737Y-78030874D01*
X157022505Y-78067061D01*
X157053221Y-78129817D01*
X157055000Y-78150744D01*
X157055000Y-94593074D01*
X157070094Y-94668954D01*
X157087094Y-94754425D01*
X157091316Y-94775647D01*
X157162552Y-94947627D01*
X157265967Y-95102398D01*
X157265973Y-95102406D01*
X159277592Y-97114025D01*
X159277595Y-97114027D01*
X159277597Y-97114029D01*
X159381016Y-97183130D01*
X159432375Y-97217448D01*
X159604354Y-97288684D01*
X159786921Y-97324999D01*
X159786924Y-97325000D01*
X159786926Y-97325000D01*
X161010386Y-97325000D01*
X161077425Y-97344685D01*
X161123180Y-97397489D01*
X161133124Y-97466647D01*
X161119745Y-97507453D01*
X161063759Y-97612195D01*
X161006091Y-97802300D01*
X160986620Y-98000000D01*
X161006091Y-98197699D01*
X161063760Y-98387808D01*
X161157401Y-98562998D01*
X161157405Y-98563005D01*
X161283431Y-98716568D01*
X161436992Y-98842592D01*
X161436996Y-98842595D01*
X161569368Y-98913349D01*
X161598591Y-98935023D01*
X164897591Y-102234024D01*
X164897592Y-102234025D01*
X164897595Y-102234027D01*
X164897597Y-102234029D01*
X165001016Y-102303130D01*
X165039490Y-102328838D01*
X165052373Y-102337447D01*
X165052374Y-102337447D01*
X165052375Y-102337448D01*
X165153117Y-102379176D01*
X165153118Y-102379176D01*
X165153119Y-102379177D01*
X165224345Y-102408681D01*
X165224347Y-102408681D01*
X165224353Y-102408684D01*
X165260669Y-102415907D01*
X165382316Y-102440104D01*
X165444226Y-102472489D01*
X165478800Y-102533205D01*
X165475059Y-102602975D01*
X165436788Y-102657574D01*
X165283431Y-102783431D01*
X165157405Y-102936994D01*
X165157401Y-102937001D01*
X165063760Y-103112191D01*
X165006091Y-103302300D01*
X164986620Y-103500000D01*
X165006091Y-103697699D01*
X165063760Y-103887808D01*
X165157401Y-104062998D01*
X165157405Y-104063005D01*
X165283431Y-104216568D01*
X165436994Y-104342594D01*
X165436997Y-104342596D01*
X165569366Y-104413348D01*
X165598594Y-104435025D01*
X165897594Y-104734026D01*
X165897598Y-104734029D01*
X166052368Y-104837444D01*
X166052374Y-104837447D01*
X166052375Y-104837448D01*
X166224354Y-104908684D01*
X166406921Y-104944999D01*
X166406924Y-104945000D01*
X166406926Y-104945000D01*
X166593074Y-104945000D01*
X193943742Y-104945000D01*
X194010781Y-104964685D01*
X194031423Y-104981319D01*
X194088599Y-105038495D01*
X194274594Y-105168730D01*
X194318218Y-105223307D01*
X194325411Y-105292806D01*
X194293889Y-105355160D01*
X194274593Y-105371880D01*
X194198626Y-105425072D01*
X194198625Y-105425072D01*
X194830590Y-106057037D01*
X194767007Y-106074075D01*
X194652993Y-106139901D01*
X194559901Y-106232993D01*
X194494075Y-106347007D01*
X194477037Y-106410589D01*
X193845073Y-105778625D01*
X193845072Y-105778625D01*
X193786401Y-105862419D01*
X193686570Y-106076507D01*
X193686566Y-106076516D01*
X193625432Y-106304673D01*
X193625430Y-106304684D01*
X193604843Y-106539998D01*
X193604843Y-106540001D01*
X193625430Y-106775315D01*
X193625432Y-106775326D01*
X193686566Y-107003483D01*
X193686570Y-107003492D01*
X193786400Y-107217579D01*
X193786402Y-107217583D01*
X193845072Y-107301373D01*
X193845073Y-107301373D01*
X194477037Y-106669409D01*
X194494075Y-106732993D01*
X194559901Y-106847007D01*
X194652993Y-106940099D01*
X194767007Y-107005925D01*
X194830590Y-107022962D01*
X194198625Y-107654925D01*
X194282421Y-107713599D01*
X194496507Y-107813429D01*
X194496516Y-107813433D01*
X194724673Y-107874567D01*
X194724684Y-107874569D01*
X194959998Y-107895157D01*
X194960002Y-107895157D01*
X195195315Y-107874569D01*
X195195326Y-107874567D01*
X195423483Y-107813433D01*
X195423492Y-107813429D01*
X195637578Y-107713600D01*
X195637582Y-107713598D01*
X195721373Y-107654926D01*
X195721373Y-107654925D01*
X195089409Y-107022962D01*
X195152993Y-107005925D01*
X195267007Y-106940099D01*
X195360099Y-106847007D01*
X195425925Y-106732993D01*
X195442962Y-106669410D01*
X196079341Y-107305789D01*
X196131191Y-107316209D01*
X196181375Y-107364823D01*
X196191205Y-107386966D01*
X196215186Y-107459334D01*
X196307288Y-107608656D01*
X196431344Y-107732712D01*
X196580666Y-107824814D01*
X196747203Y-107879999D01*
X196849991Y-107890500D01*
X198150008Y-107890499D01*
X198252797Y-107879999D01*
X198419334Y-107824814D01*
X198568656Y-107732712D01*
X198589549Y-107711819D01*
X198650872Y-107678334D01*
X198677230Y-107675500D01*
X198910634Y-107675500D01*
X198978299Y-107675500D01*
X199045338Y-107695185D01*
X199065980Y-107711819D01*
X199328181Y-107974020D01*
X199361666Y-108035343D01*
X199364500Y-108061701D01*
X199364500Y-109978298D01*
X199344815Y-110045337D01*
X199328181Y-110065979D01*
X195760272Y-113633889D01*
X195633891Y-113760269D01*
X195633890Y-113760270D01*
X195528833Y-113904867D01*
X195447243Y-114064997D01*
X195446184Y-114068754D01*
X195392458Y-114234105D01*
X195364500Y-114410629D01*
X195364500Y-131978298D01*
X195344815Y-132045337D01*
X195328181Y-132065979D01*
X194065980Y-133328181D01*
X194004657Y-133361666D01*
X193978299Y-133364500D01*
X182182639Y-133364500D01*
X182115600Y-133344815D01*
X182069845Y-133292011D01*
X182059901Y-133222853D01*
X182077099Y-133175405D01*
X182134814Y-133081834D01*
X182189999Y-132915297D01*
X182200500Y-132812509D01*
X182200499Y-132187492D01*
X182189999Y-132084703D01*
X182134814Y-131918166D01*
X182042712Y-131768844D01*
X181981319Y-131707451D01*
X181947834Y-131646128D01*
X181945000Y-131619770D01*
X181945000Y-128039882D01*
X181964685Y-127972843D01*
X181999146Y-127937429D01*
X182094479Y-127872433D01*
X182286805Y-127693981D01*
X182450386Y-127488857D01*
X182581568Y-127261643D01*
X182634572Y-127126589D01*
X182677387Y-127071376D01*
X182743257Y-127048075D01*
X182811268Y-127064086D01*
X182859827Y-127114323D01*
X182865425Y-127126584D01*
X182918432Y-127261643D01*
X183049614Y-127488857D01*
X183181736Y-127654533D01*
X183213198Y-127693985D01*
X183325163Y-127797872D01*
X183405521Y-127872433D01*
X183622296Y-128020228D01*
X183622301Y-128020230D01*
X183622302Y-128020231D01*
X183622303Y-128020232D01*
X183747843Y-128080688D01*
X183858673Y-128134061D01*
X183858674Y-128134061D01*
X183858677Y-128134063D01*
X184109385Y-128211396D01*
X184368818Y-128250500D01*
X184631182Y-128250500D01*
X184890615Y-128211396D01*
X185141323Y-128134063D01*
X185377704Y-128020228D01*
X185594479Y-127872433D01*
X185786805Y-127693981D01*
X185950386Y-127488857D01*
X186081568Y-127261643D01*
X186134840Y-127125905D01*
X186177655Y-127070693D01*
X186243525Y-127047392D01*
X186311536Y-127063403D01*
X186360094Y-127113640D01*
X186365696Y-127125907D01*
X186418883Y-127261426D01*
X186550027Y-127488573D01*
X186597874Y-127548571D01*
X187360689Y-126785756D01*
X187379668Y-126831574D01*
X187456274Y-126946224D01*
X187553776Y-127043726D01*
X187668426Y-127120332D01*
X187714242Y-127139309D01*
X186950830Y-127902720D01*
X187122546Y-128019793D01*
X187122550Y-128019795D01*
X187358854Y-128133594D01*
X187358858Y-128133595D01*
X187609494Y-128210907D01*
X187609500Y-128210909D01*
X187868848Y-128249999D01*
X187868857Y-128250000D01*
X188131143Y-128250000D01*
X188131151Y-128249999D01*
X188390499Y-128210909D01*
X188390505Y-128210907D01*
X188641143Y-128133595D01*
X188877445Y-128019798D01*
X188877447Y-128019797D01*
X189049168Y-127902720D01*
X188285757Y-127139309D01*
X188331574Y-127120332D01*
X188446224Y-127043726D01*
X188543726Y-126946224D01*
X188620332Y-126831574D01*
X188639309Y-126785756D01*
X189402125Y-127548572D01*
X189449971Y-127488573D01*
X189581116Y-127261426D01*
X189676941Y-127017270D01*
X189735306Y-126761550D01*
X189735307Y-126761545D01*
X189754907Y-126500004D01*
X189754907Y-126499995D01*
X189735307Y-126238454D01*
X189735306Y-126238449D01*
X189676941Y-125982729D01*
X189581116Y-125738573D01*
X189581117Y-125738573D01*
X189449972Y-125511426D01*
X189402124Y-125451427D01*
X188639309Y-126214242D01*
X188620332Y-126168426D01*
X188543726Y-126053776D01*
X188446224Y-125956274D01*
X188331574Y-125879668D01*
X188285757Y-125860690D01*
X189049168Y-125097278D01*
X188877454Y-124980206D01*
X188877445Y-124980201D01*
X188641142Y-124866404D01*
X188641144Y-124866404D01*
X188390505Y-124789092D01*
X188390499Y-124789090D01*
X188131151Y-124750000D01*
X187868848Y-124750000D01*
X187609500Y-124789090D01*
X187609494Y-124789092D01*
X187358858Y-124866404D01*
X187358854Y-124866405D01*
X187122547Y-124980205D01*
X187122539Y-124980210D01*
X186950830Y-125097277D01*
X187714243Y-125860690D01*
X187668426Y-125879668D01*
X187553776Y-125956274D01*
X187456274Y-126053776D01*
X187379668Y-126168426D01*
X187360690Y-126214242D01*
X186597875Y-125451427D01*
X186597874Y-125451427D01*
X186550028Y-125511425D01*
X186418883Y-125738573D01*
X186365696Y-125874092D01*
X186322880Y-125929306D01*
X186257010Y-125952607D01*
X186189000Y-125936596D01*
X186140441Y-125886358D01*
X186134840Y-125874092D01*
X186105761Y-125800000D01*
X186081568Y-125738357D01*
X185950386Y-125511143D01*
X185786805Y-125306019D01*
X185786804Y-125306018D01*
X185786801Y-125306014D01*
X185594479Y-125127567D01*
X185550052Y-125097277D01*
X185377704Y-124979772D01*
X185377700Y-124979770D01*
X185377697Y-124979768D01*
X185377696Y-124979767D01*
X185141325Y-124865938D01*
X185141327Y-124865938D01*
X184890623Y-124788606D01*
X184890619Y-124788605D01*
X184890615Y-124788604D01*
X184765823Y-124769794D01*
X184631187Y-124749500D01*
X184631182Y-124749500D01*
X184368818Y-124749500D01*
X184368812Y-124749500D01*
X184207247Y-124773853D01*
X184109385Y-124788604D01*
X184109382Y-124788605D01*
X184109376Y-124788606D01*
X183858673Y-124865938D01*
X183622303Y-124979767D01*
X183622302Y-124979768D01*
X183622296Y-124979771D01*
X183622296Y-124979772D01*
X183621654Y-124980210D01*
X183405520Y-125127567D01*
X183213198Y-125306014D01*
X183049614Y-125511143D01*
X182918432Y-125738356D01*
X182865428Y-125873409D01*
X182822612Y-125928623D01*
X182756742Y-125951924D01*
X182688732Y-125935913D01*
X182640173Y-125885675D01*
X182634572Y-125873409D01*
X182605761Y-125800000D01*
X182581568Y-125738357D01*
X182450386Y-125511143D01*
X182286805Y-125306019D01*
X182286804Y-125306018D01*
X182286801Y-125306014D01*
X182094479Y-125127567D01*
X182050052Y-125097277D01*
X181877704Y-124979772D01*
X181877700Y-124979770D01*
X181877697Y-124979768D01*
X181877696Y-124979767D01*
X181641325Y-124865938D01*
X181641327Y-124865938D01*
X181390623Y-124788606D01*
X181390619Y-124788605D01*
X181390615Y-124788604D01*
X181265823Y-124769794D01*
X181131187Y-124749500D01*
X181131182Y-124749500D01*
X180868818Y-124749500D01*
X180868812Y-124749500D01*
X180707247Y-124773853D01*
X180609385Y-124788604D01*
X180609382Y-124788605D01*
X180609376Y-124788606D01*
X180358673Y-124865938D01*
X180122303Y-124979767D01*
X180122302Y-124979768D01*
X180122296Y-124979771D01*
X180122296Y-124979772D01*
X180121654Y-124980210D01*
X179905520Y-125127567D01*
X179713198Y-125306014D01*
X179549614Y-125511143D01*
X179418432Y-125738356D01*
X179365428Y-125873409D01*
X179322612Y-125928623D01*
X179256742Y-125951924D01*
X179188732Y-125935913D01*
X179140173Y-125885675D01*
X179134572Y-125873409D01*
X179105761Y-125800000D01*
X179081568Y-125738357D01*
X178950386Y-125511143D01*
X178786805Y-125306019D01*
X178786804Y-125306018D01*
X178786801Y-125306014D01*
X178594479Y-125127567D01*
X178550052Y-125097277D01*
X178377704Y-124979772D01*
X178377700Y-124979770D01*
X178377697Y-124979768D01*
X178377696Y-124979767D01*
X178141325Y-124865938D01*
X178141327Y-124865938D01*
X177890623Y-124788606D01*
X177890619Y-124788605D01*
X177890615Y-124788604D01*
X177765823Y-124769794D01*
X177631187Y-124749500D01*
X177631182Y-124749500D01*
X177368818Y-124749500D01*
X177368812Y-124749500D01*
X177207247Y-124773853D01*
X177109385Y-124788604D01*
X177109382Y-124788605D01*
X177109376Y-124788606D01*
X176858673Y-124865938D01*
X176622303Y-124979767D01*
X176622302Y-124979768D01*
X176622296Y-124979771D01*
X176622296Y-124979772D01*
X176621654Y-124980210D01*
X176405520Y-125127567D01*
X176213198Y-125306014D01*
X176049614Y-125511143D01*
X175918432Y-125738356D01*
X175865428Y-125873409D01*
X175822612Y-125928623D01*
X175756742Y-125951924D01*
X175688732Y-125935913D01*
X175640173Y-125885675D01*
X175634572Y-125873409D01*
X175605761Y-125800000D01*
X175581568Y-125738357D01*
X175450386Y-125511143D01*
X175286805Y-125306019D01*
X175286804Y-125306018D01*
X175286801Y-125306014D01*
X175094479Y-125127567D01*
X175050052Y-125097277D01*
X174877704Y-124979772D01*
X174877700Y-124979770D01*
X174877697Y-124979768D01*
X174877696Y-124979767D01*
X174641325Y-124865938D01*
X174641327Y-124865938D01*
X174390623Y-124788606D01*
X174390619Y-124788605D01*
X174390615Y-124788604D01*
X174265823Y-124769794D01*
X174131187Y-124749500D01*
X174131182Y-124749500D01*
X173868818Y-124749500D01*
X173868812Y-124749500D01*
X173707247Y-124773853D01*
X173609385Y-124788604D01*
X173609382Y-124788605D01*
X173609376Y-124788606D01*
X173358673Y-124865938D01*
X173122303Y-124979767D01*
X173122302Y-124979768D01*
X173122296Y-124979771D01*
X173122296Y-124979772D01*
X173121654Y-124980210D01*
X172905520Y-125127567D01*
X172713198Y-125306014D01*
X172549614Y-125511143D01*
X172481886Y-125628451D01*
X172431319Y-125676667D01*
X172362712Y-125689889D01*
X172297847Y-125663921D01*
X172257319Y-125607007D01*
X172250499Y-125566451D01*
X172250499Y-125202129D01*
X172250498Y-125202123D01*
X172250497Y-125202116D01*
X172244091Y-125142517D01*
X172193796Y-125007669D01*
X172193795Y-125007668D01*
X172193793Y-125007664D01*
X172107547Y-124892455D01*
X172107544Y-124892452D01*
X171992335Y-124806206D01*
X171992328Y-124806202D01*
X171857482Y-124755908D01*
X171857483Y-124755908D01*
X171797883Y-124749501D01*
X171797881Y-124749500D01*
X171797873Y-124749500D01*
X171797864Y-124749500D01*
X169202129Y-124749500D01*
X169202123Y-124749501D01*
X169142516Y-124755908D01*
X169007671Y-124806202D01*
X169007664Y-124806206D01*
X168892455Y-124892452D01*
X168892452Y-124892455D01*
X168806206Y-125007664D01*
X168806202Y-125007671D01*
X168755908Y-125142517D01*
X168749501Y-125202116D01*
X168749501Y-125202123D01*
X168749500Y-125202135D01*
X168749500Y-127797870D01*
X168749501Y-127797876D01*
X168755908Y-127857483D01*
X168806202Y-127992328D01*
X168806206Y-127992335D01*
X168892452Y-128107544D01*
X168892455Y-128107547D01*
X169007664Y-128193793D01*
X169007671Y-128193797D01*
X169052618Y-128210561D01*
X169142517Y-128244091D01*
X169202127Y-128250500D01*
X169240499Y-128250499D01*
X169307537Y-128270182D01*
X169353293Y-128322985D01*
X169364500Y-128374499D01*
X169364500Y-132589370D01*
X169392458Y-132765893D01*
X169434146Y-132894194D01*
X169447688Y-132935875D01*
X169447691Y-132935881D01*
X169528833Y-133095132D01*
X169627661Y-133231156D01*
X169627660Y-133231156D01*
X169633391Y-133239043D01*
X169633889Y-133239728D01*
X171760271Y-135366111D01*
X171904868Y-135471167D01*
X171980108Y-135509503D01*
X172064114Y-135552307D01*
X172064116Y-135552307D01*
X172064119Y-135552309D01*
X172234103Y-135607541D01*
X172332175Y-135623073D01*
X172410630Y-135635500D01*
X172410634Y-135635500D01*
X194589370Y-135635500D01*
X194667824Y-135623073D01*
X194765897Y-135607541D01*
X194894193Y-135565853D01*
X194935881Y-135552309D01*
X195095132Y-135471167D01*
X195239728Y-135366111D01*
X195366111Y-135239728D01*
X195424670Y-135181169D01*
X195424682Y-135181155D01*
X197366111Y-133239729D01*
X197471167Y-133095132D01*
X197552309Y-132935881D01*
X197607541Y-132765897D01*
X197628495Y-132633594D01*
X197635500Y-132589370D01*
X197635500Y-117654229D01*
X197655185Y-117587190D01*
X197707989Y-117541435D01*
X197777147Y-117531491D01*
X197840703Y-117560516D01*
X197878477Y-117619294D01*
X197879262Y-117622089D01*
X197883718Y-117638720D01*
X197886259Y-117648204D01*
X198017746Y-117990739D01*
X198184320Y-118317656D01*
X198384147Y-118625364D01*
X198384149Y-118625366D01*
X198615051Y-118910506D01*
X198874494Y-119169949D01*
X198874498Y-119169952D01*
X199159635Y-119400852D01*
X199467343Y-119600679D01*
X199467348Y-119600682D01*
X199794264Y-119767255D01*
X200136801Y-119898742D01*
X200491206Y-119993705D01*
X200853596Y-120051102D01*
X201199734Y-120069241D01*
X201219999Y-120070304D01*
X201220000Y-120070304D01*
X201220001Y-120070304D01*
X201239203Y-120069297D01*
X201586404Y-120051102D01*
X201948794Y-119993705D01*
X202303199Y-119898742D01*
X202645736Y-119767255D01*
X202972652Y-119600682D01*
X203280366Y-119400851D01*
X203297465Y-119387003D01*
X203361950Y-119360113D01*
X203430739Y-119372354D01*
X203481990Y-119419842D01*
X203499500Y-119483370D01*
X203499500Y-137375500D01*
X203479815Y-137442539D01*
X203427011Y-137488294D01*
X203375500Y-137499500D01*
X100624500Y-137499500D01*
X100557461Y-137479815D01*
X100511706Y-137427011D01*
X100500500Y-137375500D01*
X100500500Y-129702135D01*
X102749500Y-129702135D01*
X102749500Y-132297870D01*
X102749501Y-132297876D01*
X102755908Y-132357483D01*
X102806202Y-132492328D01*
X102806206Y-132492335D01*
X102892452Y-132607544D01*
X102892455Y-132607547D01*
X103007664Y-132693793D01*
X103007671Y-132693797D01*
X103142517Y-132744091D01*
X103142516Y-132744091D01*
X103149444Y-132744835D01*
X103202127Y-132750500D01*
X105797872Y-132750499D01*
X105857483Y-132744091D01*
X105992331Y-132693796D01*
X106107546Y-132607546D01*
X106193796Y-132492331D01*
X106244091Y-132357483D01*
X106250500Y-132297873D01*
X106250499Y-131933546D01*
X106270183Y-131866510D01*
X106322987Y-131820755D01*
X106392146Y-131810811D01*
X106455701Y-131839836D01*
X106481886Y-131871549D01*
X106549614Y-131988857D01*
X106681736Y-132154533D01*
X106713198Y-132193985D01*
X106825163Y-132297872D01*
X106905521Y-132372433D01*
X107122296Y-132520228D01*
X107122301Y-132520230D01*
X107122302Y-132520231D01*
X107122303Y-132520232D01*
X107247843Y-132580688D01*
X107358673Y-132634061D01*
X107358674Y-132634061D01*
X107358677Y-132634063D01*
X107609385Y-132711396D01*
X107868818Y-132750500D01*
X108131182Y-132750500D01*
X108390615Y-132711396D01*
X108641323Y-132634063D01*
X108877704Y-132520228D01*
X109094479Y-132372433D01*
X109286805Y-132193981D01*
X109450386Y-131988857D01*
X109581568Y-131761643D01*
X109634572Y-131626589D01*
X109677387Y-131571376D01*
X109743257Y-131548075D01*
X109811268Y-131564086D01*
X109859827Y-131614323D01*
X109865425Y-131626584D01*
X109918432Y-131761643D01*
X110049614Y-131988857D01*
X110181736Y-132154533D01*
X110213198Y-132193985D01*
X110325163Y-132297872D01*
X110405521Y-132372433D01*
X110622296Y-132520228D01*
X110622301Y-132520230D01*
X110622302Y-132520231D01*
X110622303Y-132520232D01*
X110747843Y-132580688D01*
X110858673Y-132634061D01*
X110858674Y-132634061D01*
X110858677Y-132634063D01*
X111109385Y-132711396D01*
X111368818Y-132750500D01*
X111631182Y-132750500D01*
X111890615Y-132711396D01*
X112141323Y-132634063D01*
X112377704Y-132520228D01*
X112594479Y-132372433D01*
X112786805Y-132193981D01*
X112950386Y-131988857D01*
X113081568Y-131761643D01*
X113134572Y-131626589D01*
X113177387Y-131571376D01*
X113243257Y-131548075D01*
X113311268Y-131564086D01*
X113359827Y-131614323D01*
X113365425Y-131626584D01*
X113418432Y-131761643D01*
X113549614Y-131988857D01*
X113681736Y-132154533D01*
X113713198Y-132193985D01*
X113825163Y-132297872D01*
X113905521Y-132372433D01*
X114122296Y-132520228D01*
X114122301Y-132520230D01*
X114122302Y-132520231D01*
X114122303Y-132520232D01*
X114247843Y-132580688D01*
X114358673Y-132634061D01*
X114358674Y-132634061D01*
X114358677Y-132634063D01*
X114609385Y-132711396D01*
X114868818Y-132750500D01*
X115131182Y-132750500D01*
X115390615Y-132711396D01*
X115641323Y-132634063D01*
X115877704Y-132520228D01*
X116094479Y-132372433D01*
X116286805Y-132193981D01*
X116450386Y-131988857D01*
X116581568Y-131761643D01*
X116634572Y-131626589D01*
X116677387Y-131571376D01*
X116743257Y-131548075D01*
X116811268Y-131564086D01*
X116859827Y-131614323D01*
X116865425Y-131626584D01*
X116918432Y-131761643D01*
X117049614Y-131988857D01*
X117181736Y-132154533D01*
X117213198Y-132193985D01*
X117325163Y-132297872D01*
X117405521Y-132372433D01*
X117622296Y-132520228D01*
X117622301Y-132520230D01*
X117622302Y-132520231D01*
X117622303Y-132520232D01*
X117747843Y-132580688D01*
X117858673Y-132634061D01*
X117858674Y-132634061D01*
X117858677Y-132634063D01*
X118109385Y-132711396D01*
X118368818Y-132750500D01*
X118631182Y-132750500D01*
X118890615Y-132711396D01*
X119141323Y-132634063D01*
X119377704Y-132520228D01*
X119594479Y-132372433D01*
X119786805Y-132193981D01*
X119950386Y-131988857D01*
X120081568Y-131761643D01*
X120134572Y-131626589D01*
X120177387Y-131571376D01*
X120243257Y-131548075D01*
X120311268Y-131564086D01*
X120359827Y-131614323D01*
X120365425Y-131626584D01*
X120418432Y-131761643D01*
X120549614Y-131988857D01*
X120681736Y-132154533D01*
X120713198Y-132193985D01*
X120825163Y-132297872D01*
X120905521Y-132372433D01*
X121122296Y-132520228D01*
X121122301Y-132520230D01*
X121122302Y-132520231D01*
X121122303Y-132520232D01*
X121247843Y-132580688D01*
X121358673Y-132634061D01*
X121358674Y-132634061D01*
X121358677Y-132634063D01*
X121609385Y-132711396D01*
X121868818Y-132750500D01*
X122131182Y-132750500D01*
X122390615Y-132711396D01*
X122641323Y-132634063D01*
X122877704Y-132520228D01*
X123094479Y-132372433D01*
X123286805Y-132193981D01*
X123450386Y-131988857D01*
X123581568Y-131761643D01*
X123634572Y-131626589D01*
X123677387Y-131571376D01*
X123743257Y-131548075D01*
X123811268Y-131564086D01*
X123859827Y-131614323D01*
X123865425Y-131626584D01*
X123918432Y-131761643D01*
X124049614Y-131988857D01*
X124181736Y-132154533D01*
X124213198Y-132193985D01*
X124325163Y-132297872D01*
X124405521Y-132372433D01*
X124622296Y-132520228D01*
X124622301Y-132520230D01*
X124622302Y-132520231D01*
X124622303Y-132520232D01*
X124747843Y-132580688D01*
X124858673Y-132634061D01*
X124858674Y-132634061D01*
X124858677Y-132634063D01*
X125109385Y-132711396D01*
X125368818Y-132750500D01*
X125631182Y-132750500D01*
X125890615Y-132711396D01*
X126141323Y-132634063D01*
X126377704Y-132520228D01*
X126594479Y-132372433D01*
X126786805Y-132193981D01*
X126950386Y-131988857D01*
X127081568Y-131761643D01*
X127134840Y-131625905D01*
X127177655Y-131570693D01*
X127243525Y-131547392D01*
X127311536Y-131563403D01*
X127360094Y-131613640D01*
X127365696Y-131625907D01*
X127418883Y-131761426D01*
X127550027Y-131988573D01*
X127597874Y-132048571D01*
X128360689Y-131285756D01*
X128379668Y-131331574D01*
X128456274Y-131446224D01*
X128553776Y-131543726D01*
X128668426Y-131620332D01*
X128714242Y-131639309D01*
X127950830Y-132402720D01*
X128122546Y-132519793D01*
X128122550Y-132519795D01*
X128358854Y-132633594D01*
X128358858Y-132633595D01*
X128609494Y-132710907D01*
X128609500Y-132710909D01*
X128868848Y-132749999D01*
X128868857Y-132750000D01*
X129131143Y-132750000D01*
X129131151Y-132749999D01*
X129390499Y-132710909D01*
X129390505Y-132710907D01*
X129641143Y-132633595D01*
X129877445Y-132519798D01*
X129877447Y-132519797D01*
X130049168Y-132402720D01*
X129285757Y-131639309D01*
X129331574Y-131620332D01*
X129446224Y-131543726D01*
X129543726Y-131446224D01*
X129620332Y-131331574D01*
X129639309Y-131285756D01*
X130402125Y-132048572D01*
X130449971Y-131988573D01*
X130581116Y-131761426D01*
X130676941Y-131517270D01*
X130735306Y-131261550D01*
X130735307Y-131261545D01*
X130754907Y-131000004D01*
X130754907Y-130999995D01*
X130735307Y-130738454D01*
X130735306Y-130738449D01*
X130676941Y-130482729D01*
X130581116Y-130238573D01*
X130581117Y-130238573D01*
X130449972Y-130011426D01*
X130402124Y-129951427D01*
X129639309Y-130714242D01*
X129620332Y-130668426D01*
X129543726Y-130553776D01*
X129446224Y-130456274D01*
X129331574Y-130379668D01*
X129285757Y-130360690D01*
X130049168Y-129597278D01*
X129877454Y-129480206D01*
X129877445Y-129480201D01*
X129641142Y-129366404D01*
X129641144Y-129366404D01*
X129390505Y-129289092D01*
X129390499Y-129289090D01*
X129131151Y-129250000D01*
X128868848Y-129250000D01*
X128609500Y-129289090D01*
X128609494Y-129289092D01*
X128358858Y-129366404D01*
X128358854Y-129366405D01*
X128122547Y-129480205D01*
X128122539Y-129480210D01*
X127950830Y-129597277D01*
X128714243Y-130360690D01*
X128668426Y-130379668D01*
X128553776Y-130456274D01*
X128456274Y-130553776D01*
X128379668Y-130668426D01*
X128360690Y-130714242D01*
X127597874Y-129951427D01*
X127550028Y-130011425D01*
X127418883Y-130238573D01*
X127365696Y-130374092D01*
X127322880Y-130429306D01*
X127257010Y-130452607D01*
X127189000Y-130436596D01*
X127140441Y-130386358D01*
X127134840Y-130374092D01*
X127105761Y-130300000D01*
X127081568Y-130238357D01*
X126950386Y-130011143D01*
X126786805Y-129806019D01*
X126786804Y-129806018D01*
X126786801Y-129806014D01*
X126594479Y-129627567D01*
X126550052Y-129597277D01*
X126377704Y-129479772D01*
X126377700Y-129479770D01*
X126377697Y-129479768D01*
X126377696Y-129479767D01*
X126141325Y-129365938D01*
X126141327Y-129365938D01*
X125890623Y-129288606D01*
X125890619Y-129288605D01*
X125890615Y-129288604D01*
X125765823Y-129269794D01*
X125631187Y-129249500D01*
X125631182Y-129249500D01*
X125368818Y-129249500D01*
X125368812Y-129249500D01*
X125207247Y-129273853D01*
X125109385Y-129288604D01*
X125109382Y-129288605D01*
X125109376Y-129288606D01*
X124858673Y-129365938D01*
X124622303Y-129479767D01*
X124622302Y-129479768D01*
X124622296Y-129479771D01*
X124622296Y-129479772D01*
X124621654Y-129480210D01*
X124405520Y-129627567D01*
X124213198Y-129806014D01*
X124049614Y-130011143D01*
X123918432Y-130238356D01*
X123865428Y-130373409D01*
X123822612Y-130428623D01*
X123756742Y-130451924D01*
X123688732Y-130435913D01*
X123640173Y-130385675D01*
X123634572Y-130373409D01*
X123605761Y-130300000D01*
X123581568Y-130238357D01*
X123450386Y-130011143D01*
X123286805Y-129806019D01*
X123175158Y-129702425D01*
X123139404Y-129642397D01*
X123135500Y-129611527D01*
X123135500Y-124021701D01*
X123155185Y-123954662D01*
X123171819Y-123934020D01*
X123871736Y-123234103D01*
X124866111Y-122239729D01*
X124971167Y-122095132D01*
X125052309Y-121935881D01*
X125107541Y-121765897D01*
X125124316Y-121659978D01*
X125135500Y-121589370D01*
X125135500Y-116210978D01*
X125155185Y-116143939D01*
X125185184Y-116111715D01*
X125313395Y-116015739D01*
X125515739Y-115813395D01*
X125687226Y-115584315D01*
X125824367Y-115333161D01*
X125924369Y-115065046D01*
X125952872Y-114934020D01*
X125985195Y-114785433D01*
X125985195Y-114785432D01*
X125985196Y-114785428D01*
X126005610Y-114500000D01*
X125985196Y-114214572D01*
X125953475Y-114068754D01*
X125924371Y-113934962D01*
X125924370Y-113934960D01*
X125924369Y-113934954D01*
X125824367Y-113666839D01*
X125793710Y-113610696D01*
X125687229Y-113415690D01*
X125687224Y-113415682D01*
X125515745Y-113186612D01*
X125515729Y-113186594D01*
X125313405Y-112984270D01*
X125313387Y-112984254D01*
X125084317Y-112812775D01*
X125084309Y-112812770D01*
X124833166Y-112675635D01*
X124833167Y-112675635D01*
X124725915Y-112635632D01*
X124565046Y-112575631D01*
X124565043Y-112575630D01*
X124565037Y-112575628D01*
X124285433Y-112514804D01*
X124000001Y-112494390D01*
X123999999Y-112494390D01*
X123714566Y-112514804D01*
X123434962Y-112575628D01*
X123166833Y-112675635D01*
X122915690Y-112812770D01*
X122915682Y-112812775D01*
X122686612Y-112984254D01*
X122686594Y-112984270D01*
X122484270Y-113186594D01*
X122484254Y-113186612D01*
X122312775Y-113415682D01*
X122312770Y-113415690D01*
X122175635Y-113666833D01*
X122075628Y-113934962D01*
X122014804Y-114214566D01*
X121994390Y-114499998D01*
X121994390Y-114500001D01*
X122014804Y-114785433D01*
X122075628Y-115065037D01*
X122075630Y-115065043D01*
X122075631Y-115065046D01*
X122103313Y-115139264D01*
X122175635Y-115333166D01*
X122312770Y-115584309D01*
X122312775Y-115584317D01*
X122484254Y-115813387D01*
X122484270Y-115813405D01*
X122686594Y-116015729D01*
X122686603Y-116015737D01*
X122686605Y-116015739D01*
X122814812Y-116111713D01*
X122856681Y-116167644D01*
X122864500Y-116210978D01*
X122864500Y-120978298D01*
X122844815Y-121045337D01*
X122828181Y-121065979D01*
X121260272Y-122633889D01*
X121133891Y-122760269D01*
X121133890Y-122760270D01*
X121028833Y-122904867D01*
X120947243Y-123064997D01*
X120946184Y-123068754D01*
X120892458Y-123234105D01*
X120864500Y-123410629D01*
X120864500Y-129611527D01*
X120844815Y-129678566D01*
X120824842Y-129702425D01*
X120713197Y-129806016D01*
X120713195Y-129806019D01*
X120549614Y-130011143D01*
X120418432Y-130238356D01*
X120365428Y-130373409D01*
X120322612Y-130428623D01*
X120256742Y-130451924D01*
X120188732Y-130435913D01*
X120140173Y-130385675D01*
X120134572Y-130373409D01*
X120105761Y-130300000D01*
X120081568Y-130238357D01*
X119950386Y-130011143D01*
X119786805Y-129806019D01*
X119675158Y-129702425D01*
X119639404Y-129642397D01*
X119635500Y-129611527D01*
X119635500Y-116210978D01*
X119655185Y-116143939D01*
X119685184Y-116111715D01*
X119813395Y-116015739D01*
X120015739Y-115813395D01*
X120187226Y-115584315D01*
X120324367Y-115333161D01*
X120424369Y-115065046D01*
X120452872Y-114934020D01*
X120485195Y-114785433D01*
X120485195Y-114785432D01*
X120485196Y-114785428D01*
X120505610Y-114500000D01*
X120485196Y-114214572D01*
X120453475Y-114068754D01*
X120424371Y-113934962D01*
X120424370Y-113934960D01*
X120424369Y-113934954D01*
X120324367Y-113666839D01*
X120293710Y-113610696D01*
X120187229Y-113415690D01*
X120187224Y-113415682D01*
X120015745Y-113186612D01*
X120015729Y-113186594D01*
X119813405Y-112984270D01*
X119813387Y-112984254D01*
X119584317Y-112812775D01*
X119584309Y-112812770D01*
X119333166Y-112675635D01*
X119333167Y-112675635D01*
X119225915Y-112635632D01*
X119065046Y-112575631D01*
X119065043Y-112575630D01*
X119065037Y-112575628D01*
X118785433Y-112514804D01*
X118500001Y-112494390D01*
X118499999Y-112494390D01*
X118214566Y-112514804D01*
X117934962Y-112575628D01*
X117666833Y-112675635D01*
X117415690Y-112812770D01*
X117415682Y-112812775D01*
X117186612Y-112984254D01*
X117186594Y-112984270D01*
X116984270Y-113186594D01*
X116984254Y-113186612D01*
X116812775Y-113415682D01*
X116812770Y-113415690D01*
X116675635Y-113666833D01*
X116575628Y-113934962D01*
X116514804Y-114214566D01*
X116494390Y-114499998D01*
X116494390Y-114500001D01*
X116514804Y-114785433D01*
X116575628Y-115065037D01*
X116575630Y-115065043D01*
X116575631Y-115065046D01*
X116603313Y-115139264D01*
X116675635Y-115333166D01*
X116812770Y-115584309D01*
X116812775Y-115584317D01*
X116984254Y-115813387D01*
X116984270Y-115813405D01*
X117186594Y-116015729D01*
X117186603Y-116015737D01*
X117186605Y-116015739D01*
X117314812Y-116111713D01*
X117356681Y-116167644D01*
X117364500Y-116210978D01*
X117364500Y-129611527D01*
X117344815Y-129678566D01*
X117324842Y-129702425D01*
X117213197Y-129806016D01*
X117213195Y-129806019D01*
X117049614Y-130011143D01*
X116918432Y-130238356D01*
X116865428Y-130373409D01*
X116822612Y-130428623D01*
X116756742Y-130451924D01*
X116688732Y-130435913D01*
X116640173Y-130385675D01*
X116634572Y-130373409D01*
X116605761Y-130300000D01*
X116581568Y-130238357D01*
X116450386Y-130011143D01*
X116286805Y-129806019D01*
X116286804Y-129806018D01*
X116286801Y-129806014D01*
X116094479Y-129627567D01*
X116050052Y-129597277D01*
X115877704Y-129479772D01*
X115877700Y-129479770D01*
X115877697Y-129479768D01*
X115877696Y-129479767D01*
X115641325Y-129365938D01*
X115641327Y-129365938D01*
X115390623Y-129288606D01*
X115390619Y-129288605D01*
X115390615Y-129288604D01*
X115265823Y-129269794D01*
X115131187Y-129249500D01*
X115131182Y-129249500D01*
X114868818Y-129249500D01*
X114868812Y-129249500D01*
X114707247Y-129273853D01*
X114609385Y-129288604D01*
X114609382Y-129288605D01*
X114609376Y-129288606D01*
X114358673Y-129365938D01*
X114122303Y-129479767D01*
X114122302Y-129479768D01*
X114122296Y-129479771D01*
X114122296Y-129479772D01*
X114121654Y-129480210D01*
X113905520Y-129627567D01*
X113713198Y-129806014D01*
X113549614Y-130011143D01*
X113418432Y-130238356D01*
X113365428Y-130373409D01*
X113322612Y-130428623D01*
X113256742Y-130451924D01*
X113188732Y-130435913D01*
X113140173Y-130385675D01*
X113134572Y-130373409D01*
X113105761Y-130300000D01*
X113081568Y-130238357D01*
X112950386Y-130011143D01*
X112786805Y-129806019D01*
X112786804Y-129806018D01*
X112786801Y-129806014D01*
X112594479Y-129627567D01*
X112550052Y-129597277D01*
X112377704Y-129479772D01*
X112377700Y-129479770D01*
X112377697Y-129479768D01*
X112377696Y-129479767D01*
X112141325Y-129365938D01*
X112141327Y-129365938D01*
X111890623Y-129288606D01*
X111890619Y-129288605D01*
X111890615Y-129288604D01*
X111765823Y-129269794D01*
X111631187Y-129249500D01*
X111631182Y-129249500D01*
X111368818Y-129249500D01*
X111368812Y-129249500D01*
X111207247Y-129273853D01*
X111109385Y-129288604D01*
X111109382Y-129288605D01*
X111109376Y-129288606D01*
X110858673Y-129365938D01*
X110622303Y-129479767D01*
X110622302Y-129479768D01*
X110622296Y-129479771D01*
X110622296Y-129479772D01*
X110621654Y-129480210D01*
X110405520Y-129627567D01*
X110213198Y-129806014D01*
X110049614Y-130011143D01*
X109918432Y-130238356D01*
X109865428Y-130373409D01*
X109822612Y-130428623D01*
X109756742Y-130451924D01*
X109688732Y-130435913D01*
X109640173Y-130385675D01*
X109634572Y-130373409D01*
X109605761Y-130300000D01*
X109581568Y-130238357D01*
X109450386Y-130011143D01*
X109286805Y-129806019D01*
X109286804Y-129806018D01*
X109286801Y-129806014D01*
X109094479Y-129627567D01*
X109050052Y-129597277D01*
X108877704Y-129479772D01*
X108877700Y-129479770D01*
X108877697Y-129479768D01*
X108877696Y-129479767D01*
X108641325Y-129365938D01*
X108641327Y-129365938D01*
X108390623Y-129288606D01*
X108390619Y-129288605D01*
X108390615Y-129288604D01*
X108265823Y-129269794D01*
X108131187Y-129249500D01*
X108131182Y-129249500D01*
X107868818Y-129249500D01*
X107868812Y-129249500D01*
X107707247Y-129273853D01*
X107609385Y-129288604D01*
X107609382Y-129288605D01*
X107609376Y-129288606D01*
X107358673Y-129365938D01*
X107122303Y-129479767D01*
X107122302Y-129479768D01*
X107122296Y-129479771D01*
X107122296Y-129479772D01*
X107121654Y-129480210D01*
X106905520Y-129627567D01*
X106713198Y-129806014D01*
X106549614Y-130011143D01*
X106481886Y-130128451D01*
X106431319Y-130176667D01*
X106362712Y-130189889D01*
X106297847Y-130163921D01*
X106257319Y-130107007D01*
X106250499Y-130066451D01*
X106250499Y-129702129D01*
X106250498Y-129702123D01*
X106250497Y-129702116D01*
X106244091Y-129642517D01*
X106244046Y-129642397D01*
X106193797Y-129507671D01*
X106193793Y-129507664D01*
X106107547Y-129392455D01*
X106107544Y-129392452D01*
X105992335Y-129306206D01*
X105992328Y-129306202D01*
X105857482Y-129255908D01*
X105857483Y-129255908D01*
X105797883Y-129249501D01*
X105797881Y-129249500D01*
X105797873Y-129249500D01*
X105797864Y-129249500D01*
X103202129Y-129249500D01*
X103202123Y-129249501D01*
X103142516Y-129255908D01*
X103007671Y-129306202D01*
X103007664Y-129306206D01*
X102892455Y-129392452D01*
X102892452Y-129392455D01*
X102806206Y-129507664D01*
X102806202Y-129507671D01*
X102755908Y-129642517D01*
X102753424Y-129665628D01*
X102749501Y-129702123D01*
X102749500Y-129702135D01*
X100500500Y-129702135D01*
X100500500Y-87074999D01*
X102024696Y-87074999D01*
X102024696Y-87075000D01*
X102043898Y-87441405D01*
X102088713Y-87724353D01*
X102101295Y-87803794D01*
X102167902Y-88052375D01*
X102196260Y-88158206D01*
X102327746Y-88500739D01*
X102494320Y-88827656D01*
X102694147Y-89135364D01*
X102694149Y-89135366D01*
X102925051Y-89420506D01*
X103184494Y-89679949D01*
X103343311Y-89808557D01*
X103469635Y-89910852D01*
X103732265Y-90081405D01*
X103777348Y-90110682D01*
X104104264Y-90277255D01*
X104446801Y-90408742D01*
X104801206Y-90503705D01*
X105163596Y-90561102D01*
X105509734Y-90579241D01*
X105529999Y-90580304D01*
X105530000Y-90580304D01*
X105530001Y-90580304D01*
X105549203Y-90579297D01*
X105896404Y-90561102D01*
X106258794Y-90503705D01*
X106613199Y-90408742D01*
X106955736Y-90277255D01*
X107282652Y-90110682D01*
X107590366Y-89910851D01*
X107832222Y-89715000D01*
X133834696Y-89715000D01*
X133853898Y-90081404D01*
X133911295Y-90443794D01*
X133942727Y-90561101D01*
X134006260Y-90798206D01*
X134137746Y-91140739D01*
X134304320Y-91467656D01*
X134504147Y-91775364D01*
X134595203Y-91887808D01*
X134735051Y-92060506D01*
X134994494Y-92319949D01*
X135022463Y-92342598D01*
X135279635Y-92550852D01*
X135587343Y-92750679D01*
X135587348Y-92750682D01*
X135914264Y-92917255D01*
X136256801Y-93048742D01*
X136611206Y-93143705D01*
X136973596Y-93201102D01*
X137319734Y-93219241D01*
X137339999Y-93220304D01*
X137340000Y-93220304D01*
X137340001Y-93220304D01*
X137359203Y-93219297D01*
X137706404Y-93201102D01*
X138068794Y-93143705D01*
X138423199Y-93048742D01*
X138765736Y-92917255D01*
X139092652Y-92750682D01*
X139400366Y-92550851D01*
X139685506Y-92319949D01*
X139944949Y-92060506D01*
X140175851Y-91775366D01*
X140375682Y-91467652D01*
X140542255Y-91140736D01*
X140673742Y-90798199D01*
X140768705Y-90443794D01*
X140826102Y-90081404D01*
X140845304Y-89715000D01*
X140826102Y-89348596D01*
X140768705Y-88986206D01*
X140673742Y-88631801D01*
X140542255Y-88289264D01*
X140375682Y-87962348D01*
X140339691Y-87906926D01*
X140175852Y-87654635D01*
X140017973Y-87459671D01*
X139944949Y-87369494D01*
X139685506Y-87110051D01*
X139614278Y-87052372D01*
X139400364Y-86879147D01*
X139092656Y-86679320D01*
X138765739Y-86512746D01*
X138423206Y-86381260D01*
X138292402Y-86346211D01*
X138068794Y-86286295D01*
X138068790Y-86286294D01*
X138068789Y-86286294D01*
X137706405Y-86228898D01*
X137340001Y-86209696D01*
X137339999Y-86209696D01*
X136973594Y-86228898D01*
X136611211Y-86286294D01*
X136611209Y-86286294D01*
X136256793Y-86381260D01*
X135914260Y-86512746D01*
X135587343Y-86679320D01*
X135279635Y-86879147D01*
X134994498Y-87110047D01*
X134994490Y-87110054D01*
X134735054Y-87369490D01*
X134735047Y-87369498D01*
X134504147Y-87654635D01*
X134304320Y-87962343D01*
X134137746Y-88289260D01*
X134006260Y-88631793D01*
X133911294Y-88986209D01*
X133911294Y-88986211D01*
X133887671Y-89135364D01*
X133853898Y-89348596D01*
X133834696Y-89715000D01*
X107832222Y-89715000D01*
X107875506Y-89679949D01*
X108134949Y-89420506D01*
X108365851Y-89135366D01*
X108565682Y-88827652D01*
X108732255Y-88500736D01*
X108863742Y-88158199D01*
X108958705Y-87803794D01*
X109016102Y-87441404D01*
X109035304Y-87075000D01*
X109016102Y-86708596D01*
X108958705Y-86346206D01*
X108863742Y-85991801D01*
X108732255Y-85649264D01*
X108565682Y-85322348D01*
X108365851Y-85014634D01*
X108134949Y-84729494D01*
X107875506Y-84470051D01*
X107590366Y-84239149D01*
X107590364Y-84239147D01*
X107282656Y-84039320D01*
X106955739Y-83872746D01*
X106613206Y-83741260D01*
X106613199Y-83741258D01*
X106258794Y-83646295D01*
X106258790Y-83646294D01*
X106258789Y-83646294D01*
X105896405Y-83588898D01*
X105530001Y-83569696D01*
X105529999Y-83569696D01*
X105163594Y-83588898D01*
X104801211Y-83646294D01*
X104801209Y-83646294D01*
X104446793Y-83741260D01*
X104104260Y-83872746D01*
X103777343Y-84039320D01*
X103469635Y-84239147D01*
X103184498Y-84470047D01*
X103184490Y-84470054D01*
X102925054Y-84729490D01*
X102925047Y-84729498D01*
X102694147Y-85014635D01*
X102494320Y-85322343D01*
X102327746Y-85649260D01*
X102196260Y-85991793D01*
X102101294Y-86346209D01*
X102101294Y-86346211D01*
X102043898Y-86708594D01*
X102024696Y-87074999D01*
X100500500Y-87074999D01*
X100500500Y-54224983D01*
X107649500Y-54224983D01*
X107649500Y-55775001D01*
X107649501Y-55775018D01*
X107660000Y-55877796D01*
X107660001Y-55877799D01*
X107705894Y-56016294D01*
X107715186Y-56044334D01*
X107807288Y-56193656D01*
X107931344Y-56317712D01*
X108080666Y-56409814D01*
X108247203Y-56464999D01*
X108349991Y-56475500D01*
X109650008Y-56475499D01*
X109752797Y-56464999D01*
X109919334Y-56409814D01*
X110068656Y-56317712D01*
X110192712Y-56193656D01*
X110284814Y-56044334D01*
X110284814Y-56044331D01*
X110288178Y-56038879D01*
X110340126Y-55992154D01*
X110409088Y-55980931D01*
X110473170Y-56008774D01*
X110481398Y-56016294D01*
X110620213Y-56155109D01*
X110792179Y-56280048D01*
X110792181Y-56280049D01*
X110792184Y-56280051D01*
X110981588Y-56376557D01*
X111183757Y-56442246D01*
X111393713Y-56475500D01*
X111393714Y-56475500D01*
X111606286Y-56475500D01*
X111606287Y-56475500D01*
X111816243Y-56442246D01*
X112018412Y-56376557D01*
X112207816Y-56280051D01*
X112229789Y-56264086D01*
X112379786Y-56155109D01*
X112379788Y-56155106D01*
X112379792Y-56155104D01*
X112530104Y-56004792D01*
X112649683Y-55840204D01*
X112705011Y-55797540D01*
X112774624Y-55791561D01*
X112836420Y-55824166D01*
X112850313Y-55840199D01*
X112952560Y-55980931D01*
X112969896Y-56004792D01*
X113120213Y-56155109D01*
X113292179Y-56280048D01*
X113292181Y-56280049D01*
X113292184Y-56280051D01*
X113481588Y-56376557D01*
X113683757Y-56442246D01*
X113893713Y-56475500D01*
X113893714Y-56475500D01*
X114106286Y-56475500D01*
X114106287Y-56475500D01*
X114316243Y-56442246D01*
X114518412Y-56376557D01*
X114707816Y-56280051D01*
X114729789Y-56264086D01*
X114879786Y-56155109D01*
X114879788Y-56155106D01*
X114879792Y-56155104D01*
X115030104Y-56004792D01*
X115149683Y-55840204D01*
X115205011Y-55797540D01*
X115274624Y-55791561D01*
X115336420Y-55824166D01*
X115350313Y-55840199D01*
X115452560Y-55980931D01*
X115469896Y-56004792D01*
X115620213Y-56155109D01*
X115792179Y-56280048D01*
X115792181Y-56280049D01*
X115792184Y-56280051D01*
X115981588Y-56376557D01*
X116183757Y-56442246D01*
X116393713Y-56475500D01*
X116393714Y-56475500D01*
X116606286Y-56475500D01*
X116606287Y-56475500D01*
X116816243Y-56442246D01*
X117018412Y-56376557D01*
X117207816Y-56280051D01*
X117229789Y-56264086D01*
X117379786Y-56155109D01*
X117379788Y-56155106D01*
X117379792Y-56155104D01*
X117530104Y-56004792D01*
X117530106Y-56004788D01*
X117530109Y-56004786D01*
X117655048Y-55832820D01*
X117655047Y-55832820D01*
X117655051Y-55832816D01*
X117751557Y-55643412D01*
X117817246Y-55441243D01*
X117850500Y-55231287D01*
X117850500Y-54768713D01*
X117817246Y-54558757D01*
X117751557Y-54356588D01*
X117655051Y-54167184D01*
X117655049Y-54167181D01*
X117655048Y-54167179D01*
X117530109Y-53995213D01*
X117379786Y-53844890D01*
X117207820Y-53719951D01*
X117018414Y-53623444D01*
X117018413Y-53623443D01*
X117018412Y-53623443D01*
X116816243Y-53557754D01*
X116816241Y-53557753D01*
X116816240Y-53557753D01*
X116654957Y-53532208D01*
X116606287Y-53524500D01*
X116393713Y-53524500D01*
X116345042Y-53532208D01*
X116183760Y-53557753D01*
X115981585Y-53623444D01*
X115792179Y-53719951D01*
X115620213Y-53844890D01*
X115469894Y-53995209D01*
X115469890Y-53995214D01*
X115350318Y-54159793D01*
X115294989Y-54202459D01*
X115225375Y-54208438D01*
X115163580Y-54175833D01*
X115149682Y-54159793D01*
X115030109Y-53995214D01*
X115030105Y-53995209D01*
X114879786Y-53844890D01*
X114707820Y-53719951D01*
X114518414Y-53623444D01*
X114518413Y-53623443D01*
X114518412Y-53623443D01*
X114316243Y-53557754D01*
X114316241Y-53557753D01*
X114316240Y-53557753D01*
X114154957Y-53532208D01*
X114106287Y-53524500D01*
X113893713Y-53524500D01*
X113845042Y-53532208D01*
X113683760Y-53557753D01*
X113481585Y-53623444D01*
X113292179Y-53719951D01*
X113120213Y-53844890D01*
X112969894Y-53995209D01*
X112969890Y-53995214D01*
X112850318Y-54159793D01*
X112794989Y-54202459D01*
X112725375Y-54208438D01*
X112663580Y-54175833D01*
X112649682Y-54159793D01*
X112530109Y-53995214D01*
X112530105Y-53995209D01*
X112379786Y-53844890D01*
X112207820Y-53719951D01*
X112018414Y-53623444D01*
X112018413Y-53623443D01*
X112018412Y-53623443D01*
X111816243Y-53557754D01*
X111816241Y-53557753D01*
X111816240Y-53557753D01*
X111654957Y-53532208D01*
X111606287Y-53524500D01*
X111393713Y-53524500D01*
X111345042Y-53532208D01*
X111183760Y-53557753D01*
X110981585Y-53623444D01*
X110792179Y-53719951D01*
X110620215Y-53844889D01*
X110481398Y-53983706D01*
X110420075Y-54017190D01*
X110350383Y-54012206D01*
X110294450Y-53970334D01*
X110288178Y-53961120D01*
X110192712Y-53806344D01*
X110068657Y-53682289D01*
X110068656Y-53682288D01*
X109919334Y-53590186D01*
X109752797Y-53535001D01*
X109752795Y-53535000D01*
X109650010Y-53524500D01*
X108349998Y-53524500D01*
X108349981Y-53524501D01*
X108247203Y-53535000D01*
X108247200Y-53535001D01*
X108080668Y-53590185D01*
X108080663Y-53590187D01*
X107931342Y-53682289D01*
X107807289Y-53806342D01*
X107715187Y-53955663D01*
X107715185Y-53955668D01*
X107710325Y-53970334D01*
X107660001Y-54122203D01*
X107660001Y-54122204D01*
X107660000Y-54122204D01*
X107649500Y-54224983D01*
X100500500Y-54224983D01*
X100500500Y-52094999D01*
X119884696Y-52094999D01*
X119884696Y-52095000D01*
X119903898Y-52461405D01*
X119961294Y-52823788D01*
X119961294Y-52823790D01*
X120056260Y-53178206D01*
X120187746Y-53520739D01*
X120354320Y-53847656D01*
X120554147Y-54155364D01*
X120570723Y-54175833D01*
X120785051Y-54440506D01*
X121044494Y-54699949D01*
X121203311Y-54828557D01*
X121329635Y-54930852D01*
X121637343Y-55130679D01*
X121637348Y-55130682D01*
X121964264Y-55297255D01*
X122306801Y-55428742D01*
X122661206Y-55523705D01*
X123023596Y-55581102D01*
X123369734Y-55599241D01*
X123389999Y-55600304D01*
X123390000Y-55600304D01*
X123390001Y-55600304D01*
X123409203Y-55599297D01*
X123756404Y-55581102D01*
X124118794Y-55523705D01*
X124473199Y-55428742D01*
X124815736Y-55297255D01*
X125142652Y-55130682D01*
X125450366Y-54930851D01*
X125735506Y-54699949D01*
X125994949Y-54440506D01*
X126169476Y-54224983D01*
X129149500Y-54224983D01*
X129149500Y-55775001D01*
X129149501Y-55775018D01*
X129160000Y-55877796D01*
X129160001Y-55877799D01*
X129205894Y-56016294D01*
X129215186Y-56044334D01*
X129307288Y-56193656D01*
X129431344Y-56317712D01*
X129580666Y-56409814D01*
X129747203Y-56464999D01*
X129849991Y-56475500D01*
X131150008Y-56475499D01*
X131252797Y-56464999D01*
X131419334Y-56409814D01*
X131568656Y-56317712D01*
X131692712Y-56193656D01*
X131784814Y-56044334D01*
X131784814Y-56044331D01*
X131788178Y-56038879D01*
X131840126Y-55992154D01*
X131909088Y-55980931D01*
X131973170Y-56008774D01*
X131981398Y-56016294D01*
X132120213Y-56155109D01*
X132292179Y-56280048D01*
X132292181Y-56280049D01*
X132292184Y-56280051D01*
X132481588Y-56376557D01*
X132683757Y-56442246D01*
X132893713Y-56475500D01*
X132893714Y-56475500D01*
X133106286Y-56475500D01*
X133106287Y-56475500D01*
X133316243Y-56442246D01*
X133518412Y-56376557D01*
X133707816Y-56280051D01*
X133729789Y-56264086D01*
X133879786Y-56155109D01*
X133879788Y-56155106D01*
X133879792Y-56155104D01*
X134030104Y-56004792D01*
X134149683Y-55840204D01*
X134205011Y-55797540D01*
X134274624Y-55791561D01*
X134336420Y-55824166D01*
X134350313Y-55840199D01*
X134452560Y-55980931D01*
X134469896Y-56004792D01*
X134620213Y-56155109D01*
X134792179Y-56280048D01*
X134792181Y-56280049D01*
X134792184Y-56280051D01*
X134981588Y-56376557D01*
X135183757Y-56442246D01*
X135393713Y-56475500D01*
X135393714Y-56475500D01*
X135606286Y-56475500D01*
X135606287Y-56475500D01*
X135816243Y-56442246D01*
X136018412Y-56376557D01*
X136207816Y-56280051D01*
X136229789Y-56264086D01*
X136379786Y-56155109D01*
X136379788Y-56155106D01*
X136379792Y-56155104D01*
X136530104Y-56004792D01*
X136649683Y-55840204D01*
X136705011Y-55797540D01*
X136774624Y-55791561D01*
X136836420Y-55824166D01*
X136850313Y-55840199D01*
X136952560Y-55980931D01*
X136969896Y-56004792D01*
X137120213Y-56155109D01*
X137292179Y-56280048D01*
X137292181Y-56280049D01*
X137292184Y-56280051D01*
X137481588Y-56376557D01*
X137683757Y-56442246D01*
X137893713Y-56475500D01*
X137893714Y-56475500D01*
X138106286Y-56475500D01*
X138106287Y-56475500D01*
X138316243Y-56442246D01*
X138518412Y-56376557D01*
X138707816Y-56280051D01*
X138729789Y-56264086D01*
X138879786Y-56155109D01*
X138879788Y-56155106D01*
X138879792Y-56155104D01*
X139030104Y-56004792D01*
X139030106Y-56004788D01*
X139030109Y-56004786D01*
X139155048Y-55832820D01*
X139155047Y-55832820D01*
X139155051Y-55832816D01*
X139251557Y-55643412D01*
X139317246Y-55441243D01*
X139350500Y-55231287D01*
X139350500Y-54768713D01*
X139317246Y-54558757D01*
X139251557Y-54356588D01*
X139184501Y-54224983D01*
X142649500Y-54224983D01*
X142649500Y-55775001D01*
X142649501Y-55775018D01*
X142660000Y-55877796D01*
X142660001Y-55877799D01*
X142705894Y-56016294D01*
X142715186Y-56044334D01*
X142807288Y-56193656D01*
X142931344Y-56317712D01*
X143080666Y-56409814D01*
X143247203Y-56464999D01*
X143349991Y-56475500D01*
X144650008Y-56475499D01*
X144752797Y-56464999D01*
X144919334Y-56409814D01*
X145068656Y-56317712D01*
X145192712Y-56193656D01*
X145284814Y-56044334D01*
X145284814Y-56044331D01*
X145288178Y-56038879D01*
X145340126Y-55992154D01*
X145409088Y-55980931D01*
X145473170Y-56008774D01*
X145481398Y-56016294D01*
X145620213Y-56155109D01*
X145792179Y-56280048D01*
X145792181Y-56280049D01*
X145792184Y-56280051D01*
X145981588Y-56376557D01*
X146183757Y-56442246D01*
X146393713Y-56475500D01*
X146393714Y-56475500D01*
X146606286Y-56475500D01*
X146606287Y-56475500D01*
X146816243Y-56442246D01*
X147018412Y-56376557D01*
X147207816Y-56280051D01*
X147229789Y-56264086D01*
X147379786Y-56155109D01*
X147379788Y-56155106D01*
X147379792Y-56155104D01*
X147530104Y-56004792D01*
X147649683Y-55840204D01*
X147705011Y-55797540D01*
X147774624Y-55791561D01*
X147836420Y-55824166D01*
X147850313Y-55840199D01*
X147952560Y-55980931D01*
X147969896Y-56004792D01*
X148120213Y-56155109D01*
X148292179Y-56280048D01*
X148292181Y-56280049D01*
X148292184Y-56280051D01*
X148481588Y-56376557D01*
X148683757Y-56442246D01*
X148893713Y-56475500D01*
X148893714Y-56475500D01*
X149106286Y-56475500D01*
X149106287Y-56475500D01*
X149316243Y-56442246D01*
X149518412Y-56376557D01*
X149707816Y-56280051D01*
X149729789Y-56264086D01*
X149879786Y-56155109D01*
X149879788Y-56155106D01*
X149879792Y-56155104D01*
X150030104Y-56004792D01*
X150149683Y-55840204D01*
X150205011Y-55797540D01*
X150274624Y-55791561D01*
X150336420Y-55824166D01*
X150350313Y-55840199D01*
X150452560Y-55980931D01*
X150469896Y-56004792D01*
X150620213Y-56155109D01*
X150792179Y-56280048D01*
X150792181Y-56280049D01*
X150792184Y-56280051D01*
X150981588Y-56376557D01*
X151183757Y-56442246D01*
X151393713Y-56475500D01*
X151393714Y-56475500D01*
X151606286Y-56475500D01*
X151606287Y-56475500D01*
X151816243Y-56442246D01*
X152018412Y-56376557D01*
X152207816Y-56280051D01*
X152229789Y-56264086D01*
X152379786Y-56155109D01*
X152379788Y-56155106D01*
X152379792Y-56155104D01*
X152530104Y-56004792D01*
X152530106Y-56004788D01*
X152530109Y-56004786D01*
X152655048Y-55832820D01*
X152655047Y-55832820D01*
X152655051Y-55832816D01*
X152751557Y-55643412D01*
X152817246Y-55441243D01*
X152850500Y-55231287D01*
X152850500Y-54768713D01*
X152817246Y-54558757D01*
X152751557Y-54356588D01*
X152655051Y-54167184D01*
X152655049Y-54167181D01*
X152655048Y-54167179D01*
X152530109Y-53995213D01*
X152379786Y-53844890D01*
X152207820Y-53719951D01*
X152018414Y-53623444D01*
X152018413Y-53623443D01*
X152018412Y-53623443D01*
X151816243Y-53557754D01*
X151816241Y-53557753D01*
X151816240Y-53557753D01*
X151654957Y-53532208D01*
X151606287Y-53524500D01*
X151393713Y-53524500D01*
X151345042Y-53532208D01*
X151183760Y-53557753D01*
X150981585Y-53623444D01*
X150792179Y-53719951D01*
X150620213Y-53844890D01*
X150469894Y-53995209D01*
X150469890Y-53995214D01*
X150350318Y-54159793D01*
X150294989Y-54202459D01*
X150225375Y-54208438D01*
X150163580Y-54175833D01*
X150149682Y-54159793D01*
X150030109Y-53995214D01*
X150030105Y-53995209D01*
X149879786Y-53844890D01*
X149707820Y-53719951D01*
X149518414Y-53623444D01*
X149518413Y-53623443D01*
X149518412Y-53623443D01*
X149316243Y-53557754D01*
X149316241Y-53557753D01*
X149316240Y-53557753D01*
X149154957Y-53532208D01*
X149106287Y-53524500D01*
X148893713Y-53524500D01*
X148845042Y-53532208D01*
X148683760Y-53557753D01*
X148481585Y-53623444D01*
X148292179Y-53719951D01*
X148120213Y-53844890D01*
X147969894Y-53995209D01*
X147969890Y-53995214D01*
X147850318Y-54159793D01*
X147794989Y-54202459D01*
X147725375Y-54208438D01*
X147663580Y-54175833D01*
X147649682Y-54159793D01*
X147530109Y-53995214D01*
X147530105Y-53995209D01*
X147379786Y-53844890D01*
X147207820Y-53719951D01*
X147018414Y-53623444D01*
X147018413Y-53623443D01*
X147018412Y-53623443D01*
X146816243Y-53557754D01*
X146816241Y-53557753D01*
X146816240Y-53557753D01*
X146654957Y-53532208D01*
X146606287Y-53524500D01*
X146393713Y-53524500D01*
X146345042Y-53532208D01*
X146183760Y-53557753D01*
X145981585Y-53623444D01*
X145792179Y-53719951D01*
X145620215Y-53844889D01*
X145481398Y-53983706D01*
X145420075Y-54017190D01*
X145350383Y-54012206D01*
X145294450Y-53970334D01*
X145288178Y-53961120D01*
X145192712Y-53806344D01*
X145068657Y-53682289D01*
X145068656Y-53682288D01*
X144919334Y-53590186D01*
X144752797Y-53535001D01*
X144752795Y-53535000D01*
X144650010Y-53524500D01*
X143349998Y-53524500D01*
X143349981Y-53524501D01*
X143247203Y-53535000D01*
X143247200Y-53535001D01*
X143080668Y-53590185D01*
X143080663Y-53590187D01*
X142931342Y-53682289D01*
X142807289Y-53806342D01*
X142715187Y-53955663D01*
X142715185Y-53955668D01*
X142710325Y-53970334D01*
X142660001Y-54122203D01*
X142660001Y-54122204D01*
X142660000Y-54122204D01*
X142649500Y-54224983D01*
X139184501Y-54224983D01*
X139155051Y-54167184D01*
X139155049Y-54167181D01*
X139155048Y-54167179D01*
X139030109Y-53995213D01*
X138879786Y-53844890D01*
X138707820Y-53719951D01*
X138518414Y-53623444D01*
X138518413Y-53623443D01*
X138518412Y-53623443D01*
X138316243Y-53557754D01*
X138316241Y-53557753D01*
X138316240Y-53557753D01*
X138154957Y-53532208D01*
X138106287Y-53524500D01*
X137893713Y-53524500D01*
X137845042Y-53532208D01*
X137683760Y-53557753D01*
X137481585Y-53623444D01*
X137292179Y-53719951D01*
X137120213Y-53844890D01*
X136969894Y-53995209D01*
X136969890Y-53995214D01*
X136850318Y-54159793D01*
X136794989Y-54202459D01*
X136725375Y-54208438D01*
X136663580Y-54175833D01*
X136649682Y-54159793D01*
X136530109Y-53995214D01*
X136530105Y-53995209D01*
X136379786Y-53844890D01*
X136207820Y-53719951D01*
X136018414Y-53623444D01*
X136018413Y-53623443D01*
X136018412Y-53623443D01*
X135816243Y-53557754D01*
X135816241Y-53557753D01*
X135816240Y-53557753D01*
X135654957Y-53532208D01*
X135606287Y-53524500D01*
X135393713Y-53524500D01*
X135345042Y-53532208D01*
X135183760Y-53557753D01*
X134981585Y-53623444D01*
X134792179Y-53719951D01*
X134620213Y-53844890D01*
X134469894Y-53995209D01*
X134469890Y-53995214D01*
X134350318Y-54159793D01*
X134294989Y-54202459D01*
X134225375Y-54208438D01*
X134163580Y-54175833D01*
X134149682Y-54159793D01*
X134030109Y-53995214D01*
X134030105Y-53995209D01*
X133879786Y-53844890D01*
X133707820Y-53719951D01*
X133518414Y-53623444D01*
X133518413Y-53623443D01*
X133518412Y-53623443D01*
X133316243Y-53557754D01*
X133316241Y-53557753D01*
X133316240Y-53557753D01*
X133154957Y-53532208D01*
X133106287Y-53524500D01*
X132893713Y-53524500D01*
X132845042Y-53532208D01*
X132683760Y-53557753D01*
X132481585Y-53623444D01*
X132292179Y-53719951D01*
X132120215Y-53844889D01*
X131981398Y-53983706D01*
X131920075Y-54017190D01*
X131850383Y-54012206D01*
X131794450Y-53970334D01*
X131788178Y-53961120D01*
X131692712Y-53806344D01*
X131568657Y-53682289D01*
X131568656Y-53682288D01*
X131419334Y-53590186D01*
X131252797Y-53535001D01*
X131252795Y-53535000D01*
X131150010Y-53524500D01*
X129849998Y-53524500D01*
X129849981Y-53524501D01*
X129747203Y-53535000D01*
X129747200Y-53535001D01*
X129580668Y-53590185D01*
X129580663Y-53590187D01*
X129431342Y-53682289D01*
X129307289Y-53806342D01*
X129215187Y-53955663D01*
X129215185Y-53955668D01*
X129210325Y-53970334D01*
X129160001Y-54122203D01*
X129160001Y-54122204D01*
X129160000Y-54122204D01*
X129149500Y-54224983D01*
X126169476Y-54224983D01*
X126225851Y-54155366D01*
X126425682Y-53847652D01*
X126592255Y-53520736D01*
X126723742Y-53178199D01*
X126818705Y-52823794D01*
X126876102Y-52461404D01*
X126895304Y-52095000D01*
X126876102Y-51728596D01*
X126818705Y-51366206D01*
X126723742Y-51011801D01*
X126592255Y-50669264D01*
X126425682Y-50342348D01*
X126225851Y-50034634D01*
X125994949Y-49749494D01*
X125735506Y-49490051D01*
X125703010Y-49463736D01*
X125450364Y-49259147D01*
X125142656Y-49059320D01*
X124815739Y-48892746D01*
X124473206Y-48761260D01*
X124473199Y-48761258D01*
X124118794Y-48666295D01*
X124118790Y-48666294D01*
X124118789Y-48666294D01*
X123756405Y-48608898D01*
X123390001Y-48589696D01*
X123389999Y-48589696D01*
X123023594Y-48608898D01*
X122661211Y-48666294D01*
X122661209Y-48666294D01*
X122306793Y-48761260D01*
X121964260Y-48892746D01*
X121637343Y-49059320D01*
X121329635Y-49259147D01*
X121044498Y-49490047D01*
X121044490Y-49490054D01*
X120785054Y-49749490D01*
X120785047Y-49749498D01*
X120554147Y-50034635D01*
X120354320Y-50342343D01*
X120187746Y-50669260D01*
X120056260Y-51011793D01*
X119961294Y-51366209D01*
X119961294Y-51366211D01*
X119903898Y-51728594D01*
X119884696Y-52094999D01*
X100500500Y-52094999D01*
X100500500Y-30624500D01*
X100520185Y-30557461D01*
X100572989Y-30511706D01*
X100624500Y-30500500D01*
X203375500Y-30500500D01*
X203442539Y-30520185D01*
G37*
%TD.AperFunction*%
%TA.AperFunction,Conductor*%
G36*
X196314855Y-104666546D02*
G01*
X196331575Y-104685842D01*
X196461500Y-104871395D01*
X196461505Y-104871401D01*
X196628599Y-105038495D01*
X196628604Y-105038499D01*
X196629968Y-105039643D01*
X196630407Y-105040303D01*
X196632427Y-105042323D01*
X196632021Y-105042728D01*
X196668669Y-105097815D01*
X196669776Y-105167676D01*
X196632937Y-105227046D01*
X196589267Y-105252336D01*
X196580669Y-105255184D01*
X196580663Y-105255187D01*
X196431342Y-105347289D01*
X196307289Y-105471342D01*
X196215187Y-105620663D01*
X196215182Y-105620674D01*
X196191205Y-105693032D01*
X196151432Y-105750477D01*
X196086916Y-105777299D01*
X196076138Y-105777412D01*
X195442962Y-106410589D01*
X195425925Y-106347007D01*
X195360099Y-106232993D01*
X195267007Y-106139901D01*
X195152993Y-106074075D01*
X195089410Y-106057037D01*
X195721373Y-105425073D01*
X195721373Y-105425072D01*
X195645405Y-105371880D01*
X195601780Y-105317304D01*
X195594586Y-105247805D01*
X195626108Y-105185451D01*
X195645399Y-105168734D01*
X195831401Y-105038495D01*
X195998495Y-104871401D01*
X196128425Y-104685842D01*
X196183002Y-104642217D01*
X196252500Y-104635023D01*
X196314855Y-104666546D01*
G37*
%TD.AperFunction*%
%TA.AperFunction,Conductor*%
G36*
X200045338Y-34155185D02*
G01*
X200065980Y-34171819D01*
X201328181Y-35434020D01*
X201361666Y-35495343D01*
X201364500Y-35521701D01*
X201364500Y-104978298D01*
X201344815Y-105045337D01*
X201328181Y-105065979D01*
X201025980Y-105368181D01*
X200964657Y-105401666D01*
X200938299Y-105404500D01*
X198677230Y-105404500D01*
X198610191Y-105384815D01*
X198589549Y-105368181D01*
X198568657Y-105347289D01*
X198568656Y-105347288D01*
X198419334Y-105255186D01*
X198410733Y-105252336D01*
X198353290Y-105212564D01*
X198326467Y-105148048D01*
X198338782Y-105079272D01*
X198367767Y-105042517D01*
X198367573Y-105042323D01*
X198369219Y-105040676D01*
X198370040Y-105039636D01*
X198371388Y-105038504D01*
X198371401Y-105038495D01*
X198538495Y-104871401D01*
X198674035Y-104677830D01*
X198773903Y-104463663D01*
X198835063Y-104235408D01*
X198855659Y-104000000D01*
X198835063Y-103764592D01*
X198773903Y-103536337D01*
X198674035Y-103322171D01*
X198668425Y-103314158D01*
X198538494Y-103128597D01*
X198371402Y-102961506D01*
X198371396Y-102961501D01*
X198185842Y-102831575D01*
X198142217Y-102776998D01*
X198135023Y-102707500D01*
X198166546Y-102645145D01*
X198185842Y-102628425D01*
X198278194Y-102563759D01*
X198371401Y-102498495D01*
X198538495Y-102331401D01*
X198674035Y-102137830D01*
X198773903Y-101923663D01*
X198835063Y-101695408D01*
X198855659Y-101460000D01*
X198835063Y-101224592D01*
X198773903Y-100996337D01*
X198674035Y-100782171D01*
X198668425Y-100774158D01*
X198538494Y-100588597D01*
X198371402Y-100421506D01*
X198371396Y-100421501D01*
X198185842Y-100291575D01*
X198142217Y-100236998D01*
X198135023Y-100167500D01*
X198166546Y-100105145D01*
X198185842Y-100088425D01*
X198208026Y-100072891D01*
X198371401Y-99958495D01*
X198538495Y-99791401D01*
X198674035Y-99597830D01*
X198773903Y-99383663D01*
X198835063Y-99155408D01*
X198855659Y-98920000D01*
X198835063Y-98684592D01*
X198773903Y-98456337D01*
X198674035Y-98242171D01*
X198668425Y-98234158D01*
X198538494Y-98048597D01*
X198371402Y-97881506D01*
X198371396Y-97881501D01*
X198185842Y-97751575D01*
X198142217Y-97696998D01*
X198135023Y-97627500D01*
X198166546Y-97565145D01*
X198185842Y-97548425D01*
X198244357Y-97507452D01*
X198371401Y-97418495D01*
X198538495Y-97251401D01*
X198674035Y-97057830D01*
X198773903Y-96843663D01*
X198835063Y-96615408D01*
X198855659Y-96380000D01*
X198835063Y-96144592D01*
X198773903Y-95916337D01*
X198674035Y-95702171D01*
X198668425Y-95694158D01*
X198538494Y-95508597D01*
X198371402Y-95341506D01*
X198371395Y-95341501D01*
X198177834Y-95205967D01*
X198177830Y-95205965D01*
X198177828Y-95205964D01*
X197963663Y-95106097D01*
X197963659Y-95106096D01*
X197963655Y-95106094D01*
X197735413Y-95044938D01*
X197735403Y-95044936D01*
X197500001Y-95024341D01*
X197499999Y-95024341D01*
X197264596Y-95044936D01*
X197264586Y-95044938D01*
X197036344Y-95106094D01*
X197036335Y-95106098D01*
X196822171Y-95205964D01*
X196822169Y-95205965D01*
X196628597Y-95341505D01*
X196461505Y-95508597D01*
X196331575Y-95694158D01*
X196276998Y-95737783D01*
X196207500Y-95744977D01*
X196145145Y-95713454D01*
X196128425Y-95694158D01*
X195998494Y-95508597D01*
X195831402Y-95341506D01*
X195831395Y-95341501D01*
X195637834Y-95205967D01*
X195637830Y-95205965D01*
X195637828Y-95205964D01*
X195423663Y-95106097D01*
X195423659Y-95106096D01*
X195423655Y-95106094D01*
X195195413Y-95044938D01*
X195195403Y-95044936D01*
X194960001Y-95024341D01*
X194959999Y-95024341D01*
X194724596Y-95044936D01*
X194724586Y-95044938D01*
X194496344Y-95106094D01*
X194496335Y-95106098D01*
X194282171Y-95205964D01*
X194282169Y-95205965D01*
X194088600Y-95341503D01*
X194067593Y-95362511D01*
X194031421Y-95398682D01*
X193970101Y-95432166D01*
X193943742Y-95435000D01*
X166796965Y-95435000D01*
X166729926Y-95415315D01*
X166684171Y-95362511D01*
X166674227Y-95293353D01*
X166703252Y-95229797D01*
X166712337Y-95220952D01*
X166712261Y-95220876D01*
X166716566Y-95216570D01*
X166725270Y-95205965D01*
X166842595Y-95063004D01*
X166936241Y-94887804D01*
X166993908Y-94697701D01*
X167013380Y-94500000D01*
X166993908Y-94302299D01*
X166950339Y-94158670D01*
X166945000Y-94122675D01*
X166945000Y-91500000D01*
X169986620Y-91500000D01*
X170006091Y-91697699D01*
X170063760Y-91887808D01*
X170157401Y-92062998D01*
X170157405Y-92063005D01*
X170283431Y-92216568D01*
X170436994Y-92342594D01*
X170437001Y-92342598D01*
X170612191Y-92436239D01*
X170612193Y-92436239D01*
X170612196Y-92436241D01*
X170802299Y-92493908D01*
X170802298Y-92493908D01*
X170820024Y-92495653D01*
X171000000Y-92513380D01*
X171197701Y-92493908D01*
X171387804Y-92436241D01*
X171563004Y-92342595D01*
X171716568Y-92216568D01*
X171842595Y-92063004D01*
X171936241Y-91887804D01*
X171993908Y-91697701D01*
X172013380Y-91500000D01*
X171993908Y-91302299D01*
X171950339Y-91158670D01*
X171945000Y-91122675D01*
X171945000Y-87942794D01*
X171964685Y-87875755D01*
X171981319Y-87855113D01*
X187659026Y-72177406D01*
X187659029Y-72177403D01*
X187762448Y-72022625D01*
X187833684Y-71850646D01*
X187870000Y-71668074D01*
X187870000Y-60434842D01*
X187889685Y-60367803D01*
X187942489Y-60322048D01*
X187950668Y-60318660D01*
X188017326Y-60293798D01*
X188017326Y-60293797D01*
X188017331Y-60293796D01*
X188132546Y-60207546D01*
X188218796Y-60092331D01*
X188267810Y-59960916D01*
X188309681Y-59904984D01*
X188375145Y-59880566D01*
X188443418Y-59895417D01*
X188471673Y-59916569D01*
X188483681Y-59928577D01*
X188517166Y-59989900D01*
X188520000Y-60016258D01*
X188520000Y-72592205D01*
X188500315Y-72659244D01*
X188483681Y-72679886D01*
X173265973Y-87897593D01*
X173265972Y-87897594D01*
X173235771Y-87942794D01*
X173222710Y-87962343D01*
X173222707Y-87962347D01*
X173222706Y-87962348D01*
X173162555Y-88052368D01*
X173162550Y-88052377D01*
X173091316Y-88224353D01*
X173091314Y-88224361D01*
X173055000Y-88406921D01*
X173055000Y-91122675D01*
X173049661Y-91158670D01*
X173006091Y-91302300D01*
X172986620Y-91500000D01*
X173006091Y-91697699D01*
X173063760Y-91887808D01*
X173157401Y-92062998D01*
X173157405Y-92063005D01*
X173283431Y-92216568D01*
X173436994Y-92342594D01*
X173437001Y-92342598D01*
X173612191Y-92436239D01*
X173612193Y-92436239D01*
X173612196Y-92436241D01*
X173802299Y-92493908D01*
X173802298Y-92493908D01*
X173820024Y-92495653D01*
X174000000Y-92513380D01*
X174197701Y-92493908D01*
X174387804Y-92436241D01*
X174563004Y-92342595D01*
X174716568Y-92216568D01*
X174842595Y-92063004D01*
X174936241Y-91887804D01*
X174993908Y-91697701D01*
X175013380Y-91500000D01*
X174993908Y-91302299D01*
X174950339Y-91158670D01*
X174945000Y-91122675D01*
X174945000Y-88942793D01*
X174964685Y-88875754D01*
X174981319Y-88855112D01*
X175678232Y-88158199D01*
X176534477Y-87301953D01*
X176595798Y-87268470D01*
X176665490Y-87273454D01*
X176721423Y-87315326D01*
X176745840Y-87380790D01*
X176730988Y-87449063D01*
X176725316Y-87458440D01*
X176724553Y-87459584D01*
X176724495Y-87459671D01*
X176662555Y-87552369D01*
X176662550Y-87552377D01*
X176591316Y-87724353D01*
X176591314Y-87724361D01*
X176555000Y-87906921D01*
X176555000Y-91122675D01*
X176549661Y-91158670D01*
X176506091Y-91302300D01*
X176486620Y-91500000D01*
X176506091Y-91697699D01*
X176563760Y-91887808D01*
X176657401Y-92062998D01*
X176657405Y-92063005D01*
X176783431Y-92216568D01*
X176936994Y-92342594D01*
X176937001Y-92342598D01*
X177112191Y-92436239D01*
X177112193Y-92436239D01*
X177112196Y-92436241D01*
X177302299Y-92493908D01*
X177302298Y-92493908D01*
X177320024Y-92495653D01*
X177500000Y-92513380D01*
X177697701Y-92493908D01*
X177887804Y-92436241D01*
X178063004Y-92342595D01*
X178216568Y-92216568D01*
X178342595Y-92063004D01*
X178436241Y-91887804D01*
X178493908Y-91697701D01*
X178513380Y-91500000D01*
X178493908Y-91302299D01*
X178450339Y-91158670D01*
X178445000Y-91122675D01*
X178445000Y-88442793D01*
X178464685Y-88375754D01*
X178481319Y-88355112D01*
X192739026Y-74097405D01*
X192739029Y-74097402D01*
X192842448Y-73942625D01*
X192913684Y-73770646D01*
X192950000Y-73588074D01*
X192950000Y-73401925D01*
X192950000Y-60016258D01*
X192969685Y-59949219D01*
X192986319Y-59928577D01*
X193009912Y-59904984D01*
X193043495Y-59871401D01*
X193173425Y-59685842D01*
X193228002Y-59642217D01*
X193297500Y-59635023D01*
X193359855Y-59666546D01*
X193376575Y-59685842D01*
X193506501Y-59871396D01*
X193506506Y-59871402D01*
X193563681Y-59928577D01*
X193597166Y-59989900D01*
X193600000Y-60016258D01*
X193600000Y-74012205D01*
X193580315Y-74079244D01*
X193563681Y-74099886D01*
X180265975Y-87397591D01*
X180265972Y-87397594D01*
X180224495Y-87459671D01*
X180162555Y-87552369D01*
X180162550Y-87552377D01*
X180091316Y-87724353D01*
X180091314Y-87724361D01*
X180055000Y-87906921D01*
X180055000Y-91122675D01*
X180049661Y-91158670D01*
X180006091Y-91302300D01*
X179986620Y-91500000D01*
X180006091Y-91697699D01*
X180063760Y-91887808D01*
X180157401Y-92062998D01*
X180157405Y-92063005D01*
X180283431Y-92216568D01*
X180436994Y-92342594D01*
X180437001Y-92342598D01*
X180612191Y-92436239D01*
X180612193Y-92436239D01*
X180612196Y-92436241D01*
X180802299Y-92493908D01*
X180802298Y-92493908D01*
X180820024Y-92495653D01*
X181000000Y-92513380D01*
X181197701Y-92493908D01*
X181387804Y-92436241D01*
X181563004Y-92342595D01*
X181716568Y-92216568D01*
X181842595Y-92063004D01*
X181936241Y-91887804D01*
X181993908Y-91697701D01*
X182013380Y-91500000D01*
X181993908Y-91302299D01*
X181950339Y-91158670D01*
X181945000Y-91122675D01*
X181945000Y-88442793D01*
X181964685Y-88375754D01*
X181981319Y-88355112D01*
X195279026Y-75057405D01*
X195279029Y-75057402D01*
X195382448Y-74902625D01*
X195453684Y-74730646D01*
X195490000Y-74548074D01*
X195490000Y-74361925D01*
X195490000Y-60016258D01*
X195509685Y-59949219D01*
X195526319Y-59928577D01*
X195549912Y-59904984D01*
X195583495Y-59871401D01*
X195713425Y-59685842D01*
X195768002Y-59642217D01*
X195837500Y-59635023D01*
X195899855Y-59666546D01*
X195916575Y-59685842D01*
X196046501Y-59871396D01*
X196046506Y-59871402D01*
X196103681Y-59928577D01*
X196137166Y-59989900D01*
X196140000Y-60016258D01*
X196140000Y-74972205D01*
X196120315Y-75039244D01*
X196103681Y-75059886D01*
X183765975Y-87397591D01*
X183765972Y-87397594D01*
X183724495Y-87459671D01*
X183662555Y-87552369D01*
X183662550Y-87552377D01*
X183591316Y-87724353D01*
X183591314Y-87724361D01*
X183555000Y-87906921D01*
X183555000Y-91122675D01*
X183549661Y-91158670D01*
X183506091Y-91302300D01*
X183486620Y-91500000D01*
X183506091Y-91697699D01*
X183563760Y-91887808D01*
X183657401Y-92062998D01*
X183657405Y-92063005D01*
X183783431Y-92216568D01*
X183936994Y-92342594D01*
X183937001Y-92342598D01*
X184112191Y-92436239D01*
X184112193Y-92436239D01*
X184112196Y-92436241D01*
X184302299Y-92493908D01*
X184302298Y-92493908D01*
X184320024Y-92495653D01*
X184500000Y-92513380D01*
X184697701Y-92493908D01*
X184887804Y-92436241D01*
X185063004Y-92342595D01*
X185216568Y-92216568D01*
X185342595Y-92063004D01*
X185436241Y-91887804D01*
X185493908Y-91697701D01*
X185513380Y-91500000D01*
X185493908Y-91302299D01*
X185450339Y-91158670D01*
X185445000Y-91122675D01*
X185445000Y-88442793D01*
X185464685Y-88375754D01*
X185481319Y-88355112D01*
X197819026Y-76017405D01*
X197819029Y-76017402D01*
X197922448Y-75862625D01*
X197993684Y-75690646D01*
X198030000Y-75508074D01*
X198030000Y-75321925D01*
X198030000Y-60016258D01*
X198049685Y-59949219D01*
X198066319Y-59928577D01*
X198089912Y-59904984D01*
X198123495Y-59871401D01*
X198259035Y-59677830D01*
X198358903Y-59463663D01*
X198420063Y-59235408D01*
X198440659Y-59000000D01*
X198420063Y-58764592D01*
X198358903Y-58536337D01*
X198259035Y-58322171D01*
X198253425Y-58314158D01*
X198123494Y-58128597D01*
X197956402Y-57961506D01*
X197956395Y-57961501D01*
X197762834Y-57825967D01*
X197762830Y-57825965D01*
X197762828Y-57825964D01*
X197548663Y-57726097D01*
X197548659Y-57726096D01*
X197548655Y-57726094D01*
X197320413Y-57664938D01*
X197320403Y-57664936D01*
X197085001Y-57644341D01*
X197084999Y-57644341D01*
X196849596Y-57664936D01*
X196849586Y-57664938D01*
X196621344Y-57726094D01*
X196621335Y-57726098D01*
X196407171Y-57825964D01*
X196407169Y-57825965D01*
X196213597Y-57961505D01*
X196046505Y-58128597D01*
X195916575Y-58314158D01*
X195861998Y-58357783D01*
X195792500Y-58364977D01*
X195730145Y-58333454D01*
X195713425Y-58314158D01*
X195583494Y-58128597D01*
X195416402Y-57961506D01*
X195416395Y-57961501D01*
X195222834Y-57825967D01*
X195222830Y-57825965D01*
X195222828Y-57825964D01*
X195008663Y-57726097D01*
X195008659Y-57726096D01*
X195008655Y-57726094D01*
X194780413Y-57664938D01*
X194780403Y-57664936D01*
X194545001Y-57644341D01*
X194544999Y-57644341D01*
X194309596Y-57664936D01*
X194309586Y-57664938D01*
X194081344Y-57726094D01*
X194081335Y-57726098D01*
X193867171Y-57825964D01*
X193867169Y-57825965D01*
X193673597Y-57961505D01*
X193506505Y-58128597D01*
X193376575Y-58314158D01*
X193321998Y-58357783D01*
X193252500Y-58364977D01*
X193190145Y-58333454D01*
X193173425Y-58314158D01*
X193043494Y-58128597D01*
X192876402Y-57961506D01*
X192876395Y-57961501D01*
X192682834Y-57825967D01*
X192682830Y-57825965D01*
X192682828Y-57825964D01*
X192468663Y-57726097D01*
X192468659Y-57726096D01*
X192468655Y-57726094D01*
X192240413Y-57664938D01*
X192240403Y-57664936D01*
X192005001Y-57644341D01*
X192004999Y-57644341D01*
X191769596Y-57664936D01*
X191769586Y-57664938D01*
X191541344Y-57726094D01*
X191541335Y-57726098D01*
X191327171Y-57825964D01*
X191327169Y-57825965D01*
X191133597Y-57961505D01*
X190966505Y-58128597D01*
X190836575Y-58314158D01*
X190781998Y-58357783D01*
X190712500Y-58364977D01*
X190650145Y-58333454D01*
X190633425Y-58314158D01*
X190503494Y-58128597D01*
X190336402Y-57961506D01*
X190336395Y-57961501D01*
X190142834Y-57825967D01*
X190142830Y-57825965D01*
X190142828Y-57825964D01*
X189928663Y-57726097D01*
X189928659Y-57726096D01*
X189928655Y-57726094D01*
X189700413Y-57664938D01*
X189700403Y-57664936D01*
X189465001Y-57644341D01*
X189464999Y-57644341D01*
X189229596Y-57664936D01*
X189229586Y-57664938D01*
X189001344Y-57726094D01*
X189001335Y-57726098D01*
X188787171Y-57825964D01*
X188787169Y-57825965D01*
X188593600Y-57961503D01*
X188471673Y-58083430D01*
X188410350Y-58116914D01*
X188340658Y-58111930D01*
X188284725Y-58070058D01*
X188267810Y-58039081D01*
X188218797Y-57907671D01*
X188218793Y-57907664D01*
X188132547Y-57792455D01*
X188132544Y-57792452D01*
X188017335Y-57706206D01*
X188017328Y-57706202D01*
X187882482Y-57655908D01*
X187882483Y-57655908D01*
X187822883Y-57649501D01*
X187822881Y-57649500D01*
X187822873Y-57649500D01*
X187822864Y-57649500D01*
X186027129Y-57649500D01*
X186027123Y-57649501D01*
X185967516Y-57655908D01*
X185832671Y-57706202D01*
X185832664Y-57706206D01*
X185717455Y-57792452D01*
X185717452Y-57792455D01*
X185631206Y-57907664D01*
X185631202Y-57907671D01*
X185580908Y-58042517D01*
X185574501Y-58102116D01*
X185574500Y-58102135D01*
X185574500Y-59897870D01*
X185574501Y-59897876D01*
X185580908Y-59957483D01*
X185631202Y-60092328D01*
X185631206Y-60092335D01*
X185717452Y-60207544D01*
X185717455Y-60207547D01*
X185832664Y-60293793D01*
X185832673Y-60293798D01*
X185899332Y-60318660D01*
X185955266Y-60360531D01*
X185979684Y-60425995D01*
X185980000Y-60434842D01*
X185980000Y-71132205D01*
X185960315Y-71199244D01*
X185943681Y-71219886D01*
X170265973Y-86897593D01*
X170265967Y-86897601D01*
X170162552Y-87052372D01*
X170091316Y-87224353D01*
X170091314Y-87224361D01*
X170055000Y-87406921D01*
X170055000Y-91122675D01*
X170049661Y-91158670D01*
X170006091Y-91302300D01*
X169986620Y-91500000D01*
X166945000Y-91500000D01*
X166945000Y-54224983D01*
X169149500Y-54224983D01*
X169149500Y-55775001D01*
X169149501Y-55775018D01*
X169160000Y-55877796D01*
X169160001Y-55877799D01*
X169205894Y-56016294D01*
X169215186Y-56044334D01*
X169307288Y-56193656D01*
X169431344Y-56317712D01*
X169580666Y-56409814D01*
X169747203Y-56464999D01*
X169849991Y-56475500D01*
X171150008Y-56475499D01*
X171252797Y-56464999D01*
X171419334Y-56409814D01*
X171568656Y-56317712D01*
X171692712Y-56193656D01*
X171784814Y-56044334D01*
X171784814Y-56044331D01*
X171788178Y-56038879D01*
X171840126Y-55992154D01*
X171909088Y-55980931D01*
X171973170Y-56008774D01*
X171981398Y-56016294D01*
X172120213Y-56155109D01*
X172292179Y-56280048D01*
X172292181Y-56280049D01*
X172292184Y-56280051D01*
X172481588Y-56376557D01*
X172683757Y-56442246D01*
X172893713Y-56475500D01*
X172893714Y-56475500D01*
X173106286Y-56475500D01*
X173106287Y-56475500D01*
X173316243Y-56442246D01*
X173518412Y-56376557D01*
X173707816Y-56280051D01*
X173729789Y-56264086D01*
X173879786Y-56155109D01*
X173879788Y-56155106D01*
X173879792Y-56155104D01*
X174030104Y-56004792D01*
X174149683Y-55840204D01*
X174205011Y-55797540D01*
X174274624Y-55791561D01*
X174336420Y-55824166D01*
X174350313Y-55840199D01*
X174452560Y-55980931D01*
X174469896Y-56004792D01*
X174620213Y-56155109D01*
X174792179Y-56280048D01*
X174792181Y-56280049D01*
X174792184Y-56280051D01*
X174981588Y-56376557D01*
X175183757Y-56442246D01*
X175393713Y-56475500D01*
X175393714Y-56475500D01*
X175606286Y-56475500D01*
X175606287Y-56475500D01*
X175816243Y-56442246D01*
X176018412Y-56376557D01*
X176207816Y-56280051D01*
X176229789Y-56264086D01*
X176379786Y-56155109D01*
X176379788Y-56155106D01*
X176379792Y-56155104D01*
X176530104Y-56004792D01*
X176649683Y-55840204D01*
X176705011Y-55797540D01*
X176774624Y-55791561D01*
X176836420Y-55824166D01*
X176850313Y-55840199D01*
X176952560Y-55980931D01*
X176969896Y-56004792D01*
X177120213Y-56155109D01*
X177292179Y-56280048D01*
X177292181Y-56280049D01*
X177292184Y-56280051D01*
X177481588Y-56376557D01*
X177683757Y-56442246D01*
X177893713Y-56475500D01*
X177893714Y-56475500D01*
X178106286Y-56475500D01*
X178106287Y-56475500D01*
X178316243Y-56442246D01*
X178518412Y-56376557D01*
X178707816Y-56280051D01*
X178729789Y-56264086D01*
X178879786Y-56155109D01*
X178879788Y-56155106D01*
X178879792Y-56155104D01*
X179030104Y-56004792D01*
X179030106Y-56004788D01*
X179030109Y-56004786D01*
X179155048Y-55832820D01*
X179155047Y-55832820D01*
X179155051Y-55832816D01*
X179251557Y-55643412D01*
X179317246Y-55441243D01*
X179350500Y-55231287D01*
X179350500Y-54768713D01*
X179317246Y-54558757D01*
X179251557Y-54356588D01*
X179155051Y-54167184D01*
X179155049Y-54167181D01*
X179155048Y-54167179D01*
X179030109Y-53995213D01*
X178879786Y-53844890D01*
X178707820Y-53719951D01*
X178518414Y-53623444D01*
X178518413Y-53623443D01*
X178518412Y-53623443D01*
X178316243Y-53557754D01*
X178316241Y-53557753D01*
X178316240Y-53557753D01*
X178154957Y-53532208D01*
X178106287Y-53524500D01*
X177893713Y-53524500D01*
X177845042Y-53532208D01*
X177683760Y-53557753D01*
X177481585Y-53623444D01*
X177292179Y-53719951D01*
X177120213Y-53844890D01*
X176969894Y-53995209D01*
X176969890Y-53995214D01*
X176850318Y-54159793D01*
X176794989Y-54202459D01*
X176725375Y-54208438D01*
X176663580Y-54175833D01*
X176649682Y-54159793D01*
X176530109Y-53995214D01*
X176530105Y-53995209D01*
X176379786Y-53844890D01*
X176207820Y-53719951D01*
X176018414Y-53623444D01*
X176018413Y-53623443D01*
X176018412Y-53623443D01*
X175816243Y-53557754D01*
X175816241Y-53557753D01*
X175816240Y-53557753D01*
X175654957Y-53532208D01*
X175606287Y-53524500D01*
X175393713Y-53524500D01*
X175345042Y-53532208D01*
X175183760Y-53557753D01*
X174981585Y-53623444D01*
X174792179Y-53719951D01*
X174620213Y-53844890D01*
X174469894Y-53995209D01*
X174469890Y-53995214D01*
X174350318Y-54159793D01*
X174294989Y-54202459D01*
X174225375Y-54208438D01*
X174163580Y-54175833D01*
X174149682Y-54159793D01*
X174030109Y-53995214D01*
X174030105Y-53995209D01*
X173879786Y-53844890D01*
X173707820Y-53719951D01*
X173518414Y-53623444D01*
X173518413Y-53623443D01*
X173518412Y-53623443D01*
X173316243Y-53557754D01*
X173316241Y-53557753D01*
X173316240Y-53557753D01*
X173154957Y-53532208D01*
X173106287Y-53524500D01*
X172893713Y-53524500D01*
X172845042Y-53532208D01*
X172683760Y-53557753D01*
X172481585Y-53623444D01*
X172292179Y-53719951D01*
X172120215Y-53844889D01*
X171981398Y-53983706D01*
X171920075Y-54017190D01*
X171850383Y-54012206D01*
X171794450Y-53970334D01*
X171788178Y-53961120D01*
X171692712Y-53806344D01*
X171568657Y-53682289D01*
X171568656Y-53682288D01*
X171419334Y-53590186D01*
X171252797Y-53535001D01*
X171252795Y-53535000D01*
X171150010Y-53524500D01*
X169849998Y-53524500D01*
X169849981Y-53524501D01*
X169747203Y-53535000D01*
X169747200Y-53535001D01*
X169580668Y-53590185D01*
X169580663Y-53590187D01*
X169431342Y-53682289D01*
X169307289Y-53806342D01*
X169215187Y-53955663D01*
X169215185Y-53955668D01*
X169210325Y-53970334D01*
X169160001Y-54122203D01*
X169160001Y-54122204D01*
X169160000Y-54122204D01*
X169149500Y-54224983D01*
X166945000Y-54224983D01*
X166945000Y-51895000D01*
X182044696Y-51895000D01*
X182063898Y-52261404D01*
X182121295Y-52623794D01*
X182174883Y-52823788D01*
X182216260Y-52978206D01*
X182347746Y-53320739D01*
X182514320Y-53647656D01*
X182714147Y-53955364D01*
X182737098Y-53983706D01*
X182945051Y-54240506D01*
X183204494Y-54499949D01*
X183363311Y-54628557D01*
X183489635Y-54730852D01*
X183797343Y-54930679D01*
X183797348Y-54930682D01*
X184124264Y-55097255D01*
X184466801Y-55228742D01*
X184821206Y-55323705D01*
X185183596Y-55381102D01*
X185529734Y-55399241D01*
X185549999Y-55400304D01*
X185550000Y-55400304D01*
X185550001Y-55400304D01*
X185569203Y-55399297D01*
X185916404Y-55381102D01*
X186278794Y-55323705D01*
X186633199Y-55228742D01*
X186975736Y-55097255D01*
X187302652Y-54930682D01*
X187610366Y-54730851D01*
X187895506Y-54499949D01*
X188154949Y-54240506D01*
X188385851Y-53955366D01*
X188585682Y-53647652D01*
X188752255Y-53320736D01*
X188883742Y-52978199D01*
X188978705Y-52623794D01*
X189036102Y-52261404D01*
X189055304Y-51895000D01*
X189036102Y-51528596D01*
X188978705Y-51166206D01*
X188883742Y-50811801D01*
X188752255Y-50469264D01*
X188585682Y-50142348D01*
X188385851Y-49834634D01*
X188154949Y-49549494D01*
X187895506Y-49290051D01*
X187857343Y-49259147D01*
X187610364Y-49059147D01*
X187302656Y-48859320D01*
X186975739Y-48692746D01*
X186633206Y-48561260D01*
X186633199Y-48561258D01*
X186278794Y-48466295D01*
X186278790Y-48466294D01*
X186278789Y-48466294D01*
X185916405Y-48408898D01*
X185550001Y-48389696D01*
X185549999Y-48389696D01*
X185183594Y-48408898D01*
X184821211Y-48466294D01*
X184821209Y-48466294D01*
X184466793Y-48561260D01*
X184124260Y-48692746D01*
X183797343Y-48859320D01*
X183489635Y-49059147D01*
X183204498Y-49290047D01*
X183204490Y-49290054D01*
X182945054Y-49549490D01*
X182945047Y-49549498D01*
X182714147Y-49834635D01*
X182514320Y-50142343D01*
X182347746Y-50469260D01*
X182216260Y-50811793D01*
X182121294Y-51166209D01*
X182121294Y-51166211D01*
X182086197Y-51387808D01*
X182063898Y-51528596D01*
X182044696Y-51895000D01*
X166945000Y-51895000D01*
X166945000Y-45942794D01*
X166964685Y-45875755D01*
X166981319Y-45855113D01*
X168355113Y-44481319D01*
X168416436Y-44447834D01*
X168442794Y-44445000D01*
X174593076Y-44445000D01*
X174593077Y-44444999D01*
X174775646Y-44408684D01*
X174947625Y-44337448D01*
X174947625Y-44337447D01*
X174947627Y-44337447D01*
X175024494Y-44286085D01*
X175102403Y-44234029D01*
X178484029Y-40852403D01*
X178587448Y-40697626D01*
X178658684Y-40525647D01*
X178684154Y-40397598D01*
X178693144Y-40352405D01*
X178695000Y-40343075D01*
X178695000Y-38539882D01*
X178714685Y-38472843D01*
X178749146Y-38437429D01*
X178844479Y-38372433D01*
X179036805Y-38193981D01*
X179200386Y-37988857D01*
X179331568Y-37761643D01*
X179384840Y-37625905D01*
X179427655Y-37570693D01*
X179493525Y-37547392D01*
X179561536Y-37563403D01*
X179610094Y-37613640D01*
X179615696Y-37625907D01*
X179668883Y-37761426D01*
X179800027Y-37988573D01*
X179847874Y-38048571D01*
X180610689Y-37285756D01*
X180629668Y-37331574D01*
X180706274Y-37446224D01*
X180803776Y-37543726D01*
X180918426Y-37620332D01*
X180964242Y-37639309D01*
X180200830Y-38402720D01*
X180372546Y-38519793D01*
X180372550Y-38519795D01*
X180608854Y-38633594D01*
X180608858Y-38633595D01*
X180859494Y-38710907D01*
X180859500Y-38710909D01*
X181118848Y-38749999D01*
X181118857Y-38750000D01*
X181381143Y-38750000D01*
X181381151Y-38749999D01*
X181640499Y-38710909D01*
X181640505Y-38710907D01*
X181891143Y-38633595D01*
X182127445Y-38519798D01*
X182127447Y-38519797D01*
X182299168Y-38402720D01*
X181535757Y-37639309D01*
X181581574Y-37620332D01*
X181696224Y-37543726D01*
X181793726Y-37446224D01*
X181870332Y-37331574D01*
X181889309Y-37285756D01*
X182652125Y-38048572D01*
X182699971Y-37988573D01*
X182831114Y-37761430D01*
X182884302Y-37625908D01*
X182927118Y-37570694D01*
X182992988Y-37547392D01*
X183060998Y-37563402D01*
X183109557Y-37613640D01*
X183115159Y-37625906D01*
X183133681Y-37673099D01*
X183168432Y-37761643D01*
X183299614Y-37988857D01*
X183431736Y-38154533D01*
X183463198Y-38193985D01*
X183575163Y-38297872D01*
X183655521Y-38372433D01*
X183872296Y-38520228D01*
X183872301Y-38520230D01*
X183872302Y-38520231D01*
X183872303Y-38520232D01*
X183997843Y-38580688D01*
X184108673Y-38634061D01*
X184108674Y-38634061D01*
X184108677Y-38634063D01*
X184359385Y-38711396D01*
X184618818Y-38750500D01*
X184881182Y-38750500D01*
X185140615Y-38711396D01*
X185391323Y-38634063D01*
X185627704Y-38520228D01*
X185844479Y-38372433D01*
X186036805Y-38193981D01*
X186200386Y-37988857D01*
X186331568Y-37761643D01*
X186384572Y-37626589D01*
X186427387Y-37571376D01*
X186493257Y-37548075D01*
X186561268Y-37564086D01*
X186609827Y-37614323D01*
X186615425Y-37626584D01*
X186668432Y-37761643D01*
X186799614Y-37988857D01*
X186931736Y-38154533D01*
X186963198Y-38193985D01*
X187075163Y-38297872D01*
X187155521Y-38372433D01*
X187372296Y-38520228D01*
X187372301Y-38520230D01*
X187372302Y-38520231D01*
X187372303Y-38520232D01*
X187497843Y-38580688D01*
X187608673Y-38634061D01*
X187608674Y-38634061D01*
X187608677Y-38634063D01*
X187859385Y-38711396D01*
X188118818Y-38750500D01*
X188381182Y-38750500D01*
X188640615Y-38711396D01*
X188891323Y-38634063D01*
X189127704Y-38520228D01*
X189344479Y-38372433D01*
X189536805Y-38193981D01*
X189700386Y-37988857D01*
X189831568Y-37761643D01*
X189884572Y-37626589D01*
X189927387Y-37571376D01*
X189993257Y-37548075D01*
X190061268Y-37564086D01*
X190109827Y-37614323D01*
X190115425Y-37626584D01*
X190168432Y-37761643D01*
X190299614Y-37988857D01*
X190431736Y-38154533D01*
X190463198Y-38193985D01*
X190575163Y-38297872D01*
X190655521Y-38372433D01*
X190872296Y-38520228D01*
X190872301Y-38520230D01*
X190872302Y-38520231D01*
X190872303Y-38520232D01*
X190997843Y-38580688D01*
X191108673Y-38634061D01*
X191108674Y-38634061D01*
X191108677Y-38634063D01*
X191359385Y-38711396D01*
X191618818Y-38750500D01*
X191881182Y-38750500D01*
X192140615Y-38711396D01*
X192391323Y-38634063D01*
X192627704Y-38520228D01*
X192844479Y-38372433D01*
X193036805Y-38193981D01*
X193200386Y-37988857D01*
X193331568Y-37761643D01*
X193384572Y-37626589D01*
X193427387Y-37571376D01*
X193493257Y-37548075D01*
X193561268Y-37564086D01*
X193609827Y-37614323D01*
X193615425Y-37626584D01*
X193668432Y-37761643D01*
X193799614Y-37988857D01*
X193931736Y-38154533D01*
X193963198Y-38193985D01*
X194075163Y-38297872D01*
X194155521Y-38372433D01*
X194372296Y-38520228D01*
X194372301Y-38520230D01*
X194372302Y-38520231D01*
X194372303Y-38520232D01*
X194497843Y-38580688D01*
X194608673Y-38634061D01*
X194608674Y-38634061D01*
X194608677Y-38634063D01*
X194859385Y-38711396D01*
X195118818Y-38750500D01*
X195381182Y-38750500D01*
X195640615Y-38711396D01*
X195891323Y-38634063D01*
X196127704Y-38520228D01*
X196344479Y-38372433D01*
X196536805Y-38193981D01*
X196700386Y-37988857D01*
X196768114Y-37871547D01*
X196818680Y-37823334D01*
X196887286Y-37810110D01*
X196952151Y-37836078D01*
X196992680Y-37892992D01*
X196999500Y-37933549D01*
X196999500Y-38297869D01*
X196999501Y-38297876D01*
X197005908Y-38357483D01*
X197056202Y-38492328D01*
X197056206Y-38492335D01*
X197142452Y-38607544D01*
X197142455Y-38607547D01*
X197257664Y-38693793D01*
X197257671Y-38693797D01*
X197392517Y-38744091D01*
X197392516Y-38744091D01*
X197399444Y-38744835D01*
X197452127Y-38750500D01*
X200047872Y-38750499D01*
X200107483Y-38744091D01*
X200242331Y-38693796D01*
X200357546Y-38607546D01*
X200443796Y-38492331D01*
X200494091Y-38357483D01*
X200500500Y-38297873D01*
X200500499Y-35702128D01*
X200494091Y-35642517D01*
X200494046Y-35642397D01*
X200443797Y-35507671D01*
X200443793Y-35507664D01*
X200357547Y-35392455D01*
X200357544Y-35392452D01*
X200242335Y-35306206D01*
X200242328Y-35306202D01*
X200107482Y-35255908D01*
X200107483Y-35255908D01*
X200047883Y-35249501D01*
X200047881Y-35249500D01*
X200047873Y-35249500D01*
X200047864Y-35249500D01*
X197452129Y-35249500D01*
X197452123Y-35249501D01*
X197392516Y-35255908D01*
X197257671Y-35306202D01*
X197257664Y-35306206D01*
X197142455Y-35392452D01*
X197142452Y-35392455D01*
X197056206Y-35507664D01*
X197056202Y-35507671D01*
X197005908Y-35642517D01*
X197003424Y-35665628D01*
X196999501Y-35702123D01*
X196999500Y-35702135D01*
X196999500Y-36066449D01*
X196979815Y-36133488D01*
X196927011Y-36179243D01*
X196857853Y-36189187D01*
X196794297Y-36160162D01*
X196768113Y-36128449D01*
X196732317Y-36066449D01*
X196700386Y-36011143D01*
X196536805Y-35806019D01*
X196536804Y-35806018D01*
X196536801Y-35806014D01*
X196344479Y-35627567D01*
X196189202Y-35521701D01*
X196127704Y-35479772D01*
X196127700Y-35479770D01*
X196127697Y-35479768D01*
X196127696Y-35479767D01*
X195891325Y-35365938D01*
X195891327Y-35365938D01*
X195640623Y-35288606D01*
X195640619Y-35288605D01*
X195640615Y-35288604D01*
X195515823Y-35269794D01*
X195381187Y-35249500D01*
X195381182Y-35249500D01*
X195118818Y-35249500D01*
X195118812Y-35249500D01*
X194957247Y-35273853D01*
X194859385Y-35288604D01*
X194859382Y-35288605D01*
X194859376Y-35288606D01*
X194608673Y-35365938D01*
X194372303Y-35479767D01*
X194372302Y-35479768D01*
X194372296Y-35479771D01*
X194372296Y-35479772D01*
X194371654Y-35480210D01*
X194155520Y-35627567D01*
X193963198Y-35806014D01*
X193799614Y-36011143D01*
X193668432Y-36238356D01*
X193615428Y-36373409D01*
X193572612Y-36428623D01*
X193506742Y-36451924D01*
X193438732Y-36435913D01*
X193390173Y-36385675D01*
X193384572Y-36373409D01*
X193355761Y-36300000D01*
X193331568Y-36238357D01*
X193200386Y-36011143D01*
X193036805Y-35806019D01*
X193036804Y-35806018D01*
X193036801Y-35806014D01*
X192844479Y-35627567D01*
X192689202Y-35521701D01*
X192627704Y-35479772D01*
X192627700Y-35479770D01*
X192627697Y-35479768D01*
X192627696Y-35479767D01*
X192391325Y-35365938D01*
X192391327Y-35365938D01*
X192140623Y-35288606D01*
X192140619Y-35288605D01*
X192140615Y-35288604D01*
X192015823Y-35269794D01*
X191881187Y-35249500D01*
X191881182Y-35249500D01*
X191618818Y-35249500D01*
X191618812Y-35249500D01*
X191457247Y-35273853D01*
X191359385Y-35288604D01*
X191359382Y-35288605D01*
X191359376Y-35288606D01*
X191108673Y-35365938D01*
X190872303Y-35479767D01*
X190872302Y-35479768D01*
X190872296Y-35479771D01*
X190872296Y-35479772D01*
X190871654Y-35480210D01*
X190655520Y-35627567D01*
X190463198Y-35806014D01*
X190299614Y-36011143D01*
X190168432Y-36238356D01*
X190115428Y-36373409D01*
X190072612Y-36428623D01*
X190006742Y-36451924D01*
X189938732Y-36435913D01*
X189890173Y-36385675D01*
X189884572Y-36373409D01*
X189855761Y-36300000D01*
X189831568Y-36238357D01*
X189700386Y-36011143D01*
X189536805Y-35806019D01*
X189536804Y-35806018D01*
X189536801Y-35806014D01*
X189344479Y-35627567D01*
X189189202Y-35521701D01*
X189127704Y-35479772D01*
X189127700Y-35479770D01*
X189127697Y-35479768D01*
X189127696Y-35479767D01*
X188891325Y-35365938D01*
X188891327Y-35365938D01*
X188640623Y-35288606D01*
X188640619Y-35288605D01*
X188640615Y-35288604D01*
X188515823Y-35269794D01*
X188381187Y-35249500D01*
X188381182Y-35249500D01*
X188118818Y-35249500D01*
X188118812Y-35249500D01*
X187957247Y-35273853D01*
X187859385Y-35288604D01*
X187859382Y-35288605D01*
X187859376Y-35288606D01*
X187608673Y-35365938D01*
X187372303Y-35479767D01*
X187372302Y-35479768D01*
X187372296Y-35479771D01*
X187372296Y-35479772D01*
X187371654Y-35480210D01*
X187155520Y-35627567D01*
X186963198Y-35806014D01*
X186799614Y-36011143D01*
X186668432Y-36238356D01*
X186615428Y-36373409D01*
X186572612Y-36428623D01*
X186506742Y-36451924D01*
X186438732Y-36435913D01*
X186390173Y-36385675D01*
X186384572Y-36373409D01*
X186355761Y-36300000D01*
X186331568Y-36238357D01*
X186200386Y-36011143D01*
X186036805Y-35806019D01*
X185925158Y-35702425D01*
X185889404Y-35642397D01*
X185885500Y-35611527D01*
X185885500Y-35271701D01*
X185905185Y-35204662D01*
X185921819Y-35184020D01*
X186934020Y-34171819D01*
X186995343Y-34138334D01*
X187021701Y-34135500D01*
X199978299Y-34135500D01*
X200045338Y-34155185D01*
G37*
%TD.AperFunction*%
%TA.AperFunction,Conductor*%
G36*
X182545338Y-34155185D02*
G01*
X182565980Y-34171819D01*
X183578181Y-35184020D01*
X183611666Y-35245343D01*
X183614500Y-35271701D01*
X183614500Y-35611527D01*
X183594815Y-35678566D01*
X183574842Y-35702425D01*
X183463197Y-35806016D01*
X183463195Y-35806019D01*
X183299614Y-36011143D01*
X183168433Y-36238354D01*
X183115159Y-36374093D01*
X183072343Y-36429306D01*
X183006473Y-36452607D01*
X182938462Y-36436596D01*
X182889904Y-36386358D01*
X182884302Y-36374092D01*
X182831113Y-36238567D01*
X182699972Y-36011426D01*
X182652124Y-35951427D01*
X181889309Y-36714242D01*
X181870332Y-36668426D01*
X181793726Y-36553776D01*
X181696224Y-36456274D01*
X181581574Y-36379668D01*
X181535757Y-36360690D01*
X182299168Y-35597278D01*
X182127454Y-35480206D01*
X182127445Y-35480201D01*
X181891142Y-35366404D01*
X181891144Y-35366404D01*
X181640505Y-35289092D01*
X181640499Y-35289090D01*
X181381151Y-35250000D01*
X181118848Y-35250000D01*
X180859500Y-35289090D01*
X180859494Y-35289092D01*
X180608858Y-35366404D01*
X180608854Y-35366405D01*
X180372547Y-35480205D01*
X180372539Y-35480210D01*
X180200830Y-35597277D01*
X180964243Y-36360690D01*
X180918426Y-36379668D01*
X180803776Y-36456274D01*
X180706274Y-36553776D01*
X180629668Y-36668426D01*
X180610690Y-36714242D01*
X179847874Y-35951427D01*
X179800028Y-36011425D01*
X179668883Y-36238573D01*
X179615696Y-36374092D01*
X179572880Y-36429306D01*
X179507010Y-36452607D01*
X179439000Y-36436596D01*
X179390441Y-36386358D01*
X179384840Y-36374092D01*
X179355761Y-36300000D01*
X179331568Y-36238357D01*
X179200386Y-36011143D01*
X179036805Y-35806019D01*
X179036804Y-35806018D01*
X179036801Y-35806014D01*
X178844479Y-35627567D01*
X178689202Y-35521701D01*
X178627704Y-35479772D01*
X178627700Y-35479770D01*
X178627697Y-35479768D01*
X178627696Y-35479767D01*
X178391325Y-35365938D01*
X178391327Y-35365938D01*
X178140623Y-35288606D01*
X178140619Y-35288605D01*
X178140615Y-35288604D01*
X178015823Y-35269794D01*
X177881187Y-35249500D01*
X177881182Y-35249500D01*
X177618818Y-35249500D01*
X177618812Y-35249500D01*
X177457247Y-35273853D01*
X177359385Y-35288604D01*
X177359382Y-35288605D01*
X177359376Y-35288606D01*
X177108673Y-35365938D01*
X176872303Y-35479767D01*
X176872302Y-35479768D01*
X176872296Y-35479771D01*
X176872296Y-35479772D01*
X176871654Y-35480210D01*
X176655520Y-35627567D01*
X176463198Y-35806014D01*
X176299614Y-36011143D01*
X176168432Y-36238356D01*
X176115428Y-36373409D01*
X176072612Y-36428623D01*
X176006742Y-36451924D01*
X175938732Y-36435913D01*
X175890173Y-36385675D01*
X175884572Y-36373409D01*
X175855761Y-36300000D01*
X175831568Y-36238357D01*
X175700386Y-36011143D01*
X175536805Y-35806019D01*
X175536804Y-35806018D01*
X175536801Y-35806014D01*
X175344479Y-35627567D01*
X175189202Y-35521701D01*
X175127704Y-35479772D01*
X175127700Y-35479770D01*
X175127697Y-35479768D01*
X175127696Y-35479767D01*
X174891325Y-35365938D01*
X174891327Y-35365938D01*
X174640623Y-35288606D01*
X174640619Y-35288605D01*
X174640615Y-35288604D01*
X174515823Y-35269794D01*
X174381187Y-35249500D01*
X174381182Y-35249500D01*
X174118818Y-35249500D01*
X174118812Y-35249500D01*
X173957247Y-35273853D01*
X173859385Y-35288604D01*
X173859382Y-35288605D01*
X173859376Y-35288606D01*
X173608673Y-35365938D01*
X173372303Y-35479767D01*
X173372302Y-35479768D01*
X173372296Y-35479771D01*
X173372296Y-35479772D01*
X173371654Y-35480210D01*
X173155520Y-35627567D01*
X172963198Y-35806014D01*
X172799614Y-36011143D01*
X172668432Y-36238356D01*
X172572582Y-36482578D01*
X172572576Y-36482597D01*
X172514197Y-36738374D01*
X172514196Y-36738379D01*
X172494592Y-36999995D01*
X172494592Y-37000004D01*
X172514196Y-37261620D01*
X172514197Y-37261625D01*
X172572576Y-37517402D01*
X172572578Y-37517411D01*
X172572580Y-37517416D01*
X172668432Y-37761643D01*
X172799614Y-37988857D01*
X172931736Y-38154533D01*
X172963198Y-38193985D01*
X173075163Y-38297872D01*
X173155521Y-38372433D01*
X173250853Y-38437429D01*
X173295154Y-38491457D01*
X173305000Y-38539882D01*
X173305000Y-39307206D01*
X173285315Y-39374245D01*
X173268681Y-39394887D01*
X172144887Y-40518681D01*
X172083564Y-40552166D01*
X172057206Y-40555000D01*
X166906923Y-40555000D01*
X166724361Y-40591314D01*
X166724353Y-40591316D01*
X166552377Y-40662550D01*
X166552368Y-40662555D01*
X166397598Y-40765970D01*
X166397594Y-40765973D01*
X163265975Y-43897591D01*
X163265972Y-43897594D01*
X163232543Y-43947626D01*
X163162555Y-44052368D01*
X163162550Y-44052377D01*
X163091316Y-44224353D01*
X163091314Y-44224361D01*
X163055001Y-44406916D01*
X163055000Y-44406923D01*
X163055000Y-44469189D01*
X163035315Y-44536228D01*
X162982511Y-44581983D01*
X162913353Y-44591927D01*
X162849797Y-44562902D01*
X162827898Y-44538080D01*
X162734029Y-44397597D01*
X162734026Y-44397593D01*
X158602406Y-40265973D01*
X158602398Y-40265967D01*
X158447626Y-40162552D01*
X158447627Y-40162552D01*
X158275646Y-40091316D01*
X158256200Y-40087448D01*
X158201824Y-40076632D01*
X158093076Y-40055000D01*
X158093074Y-40055000D01*
X145442793Y-40055000D01*
X145375754Y-40035315D01*
X145355112Y-40018681D01*
X144231319Y-38894887D01*
X144197834Y-38833564D01*
X144195000Y-38807206D01*
X144195000Y-38539882D01*
X144214685Y-38472843D01*
X144249146Y-38437429D01*
X144344479Y-38372433D01*
X144536805Y-38193981D01*
X144700386Y-37988857D01*
X144831568Y-37761643D01*
X144884840Y-37625905D01*
X144927655Y-37570693D01*
X144993525Y-37547392D01*
X145061536Y-37563403D01*
X145110094Y-37613640D01*
X145115696Y-37625907D01*
X145168883Y-37761426D01*
X145300027Y-37988573D01*
X145347874Y-38048571D01*
X146110689Y-37285756D01*
X146129668Y-37331574D01*
X146206274Y-37446224D01*
X146303776Y-37543726D01*
X146418426Y-37620332D01*
X146464242Y-37639309D01*
X145700830Y-38402720D01*
X145872546Y-38519793D01*
X145872550Y-38519795D01*
X146108854Y-38633594D01*
X146108858Y-38633595D01*
X146359494Y-38710907D01*
X146359500Y-38710909D01*
X146618848Y-38749999D01*
X146618857Y-38750000D01*
X146881143Y-38750000D01*
X146881151Y-38749999D01*
X147140499Y-38710909D01*
X147140505Y-38710907D01*
X147391143Y-38633595D01*
X147627445Y-38519798D01*
X147627447Y-38519797D01*
X147799168Y-38402720D01*
X147035757Y-37639309D01*
X147081574Y-37620332D01*
X147196224Y-37543726D01*
X147293726Y-37446224D01*
X147370332Y-37331574D01*
X147389309Y-37285756D01*
X148152125Y-38048572D01*
X148199971Y-37988573D01*
X148331114Y-37761430D01*
X148384302Y-37625908D01*
X148427118Y-37570694D01*
X148492988Y-37547392D01*
X148560998Y-37563402D01*
X148609557Y-37613640D01*
X148615159Y-37625906D01*
X148633681Y-37673099D01*
X148668432Y-37761643D01*
X148799614Y-37988857D01*
X148931736Y-38154533D01*
X148963198Y-38193985D01*
X149075163Y-38297872D01*
X149155521Y-38372433D01*
X149372296Y-38520228D01*
X149372301Y-38520230D01*
X149372302Y-38520231D01*
X149372303Y-38520232D01*
X149497843Y-38580688D01*
X149608673Y-38634061D01*
X149608674Y-38634061D01*
X149608677Y-38634063D01*
X149859385Y-38711396D01*
X150118818Y-38750500D01*
X150381182Y-38750500D01*
X150640615Y-38711396D01*
X150891323Y-38634063D01*
X151127704Y-38520228D01*
X151344479Y-38372433D01*
X151536805Y-38193981D01*
X151700386Y-37988857D01*
X151831568Y-37761643D01*
X151884572Y-37626589D01*
X151927387Y-37571376D01*
X151993257Y-37548075D01*
X152061268Y-37564086D01*
X152109827Y-37614323D01*
X152115425Y-37626584D01*
X152168432Y-37761643D01*
X152299614Y-37988857D01*
X152431736Y-38154533D01*
X152463198Y-38193985D01*
X152575163Y-38297872D01*
X152655521Y-38372433D01*
X152872296Y-38520228D01*
X152872301Y-38520230D01*
X152872302Y-38520231D01*
X152872303Y-38520232D01*
X152997843Y-38580688D01*
X153108673Y-38634061D01*
X153108674Y-38634061D01*
X153108677Y-38634063D01*
X153359385Y-38711396D01*
X153618818Y-38750500D01*
X153881182Y-38750500D01*
X154140615Y-38711396D01*
X154391323Y-38634063D01*
X154627704Y-38520228D01*
X154844479Y-38372433D01*
X155036805Y-38193981D01*
X155200386Y-37988857D01*
X155331568Y-37761643D01*
X155384572Y-37626589D01*
X155427387Y-37571376D01*
X155493257Y-37548075D01*
X155561268Y-37564086D01*
X155609827Y-37614323D01*
X155615425Y-37626584D01*
X155668432Y-37761643D01*
X155799614Y-37988857D01*
X155931736Y-38154533D01*
X155963198Y-38193985D01*
X156075163Y-38297872D01*
X156155521Y-38372433D01*
X156372296Y-38520228D01*
X156372301Y-38520230D01*
X156372302Y-38520231D01*
X156372303Y-38520232D01*
X156497843Y-38580688D01*
X156608673Y-38634061D01*
X156608674Y-38634061D01*
X156608677Y-38634063D01*
X156859385Y-38711396D01*
X157118818Y-38750500D01*
X157381182Y-38750500D01*
X157640615Y-38711396D01*
X157891323Y-38634063D01*
X158127704Y-38520228D01*
X158344479Y-38372433D01*
X158536805Y-38193981D01*
X158700386Y-37988857D01*
X158831568Y-37761643D01*
X158884572Y-37626589D01*
X158927387Y-37571376D01*
X158993257Y-37548075D01*
X159061268Y-37564086D01*
X159109827Y-37614323D01*
X159115425Y-37626584D01*
X159168432Y-37761643D01*
X159299614Y-37988857D01*
X159431736Y-38154533D01*
X159463198Y-38193985D01*
X159575163Y-38297872D01*
X159655521Y-38372433D01*
X159872296Y-38520228D01*
X159872301Y-38520230D01*
X159872302Y-38520231D01*
X159872303Y-38520232D01*
X159997843Y-38580688D01*
X160108673Y-38634061D01*
X160108674Y-38634061D01*
X160108677Y-38634063D01*
X160359385Y-38711396D01*
X160618818Y-38750500D01*
X160881182Y-38750500D01*
X161140615Y-38711396D01*
X161391323Y-38634063D01*
X161627704Y-38520228D01*
X161844479Y-38372433D01*
X162036805Y-38193981D01*
X162200386Y-37988857D01*
X162268114Y-37871547D01*
X162318680Y-37823334D01*
X162387286Y-37810110D01*
X162452151Y-37836078D01*
X162492680Y-37892992D01*
X162499500Y-37933549D01*
X162499500Y-38297869D01*
X162499501Y-38297876D01*
X162505908Y-38357483D01*
X162556202Y-38492328D01*
X162556206Y-38492335D01*
X162642452Y-38607544D01*
X162642455Y-38607547D01*
X162757664Y-38693793D01*
X162757671Y-38693797D01*
X162892517Y-38744091D01*
X162892516Y-38744091D01*
X162899444Y-38744835D01*
X162952127Y-38750500D01*
X165547872Y-38750499D01*
X165607483Y-38744091D01*
X165742331Y-38693796D01*
X165857546Y-38607546D01*
X165943796Y-38492331D01*
X165994091Y-38357483D01*
X166000500Y-38297873D01*
X166000499Y-35702128D01*
X165994091Y-35642517D01*
X165994046Y-35642397D01*
X165943797Y-35507671D01*
X165943793Y-35507664D01*
X165857547Y-35392455D01*
X165857544Y-35392452D01*
X165742335Y-35306206D01*
X165742328Y-35306202D01*
X165607482Y-35255908D01*
X165607483Y-35255908D01*
X165547883Y-35249501D01*
X165547881Y-35249500D01*
X165547873Y-35249500D01*
X165547864Y-35249500D01*
X162952129Y-35249500D01*
X162952123Y-35249501D01*
X162892516Y-35255908D01*
X162757671Y-35306202D01*
X162757664Y-35306206D01*
X162642455Y-35392452D01*
X162642452Y-35392455D01*
X162556206Y-35507664D01*
X162556202Y-35507671D01*
X162505908Y-35642517D01*
X162503424Y-35665628D01*
X162499501Y-35702123D01*
X162499500Y-35702135D01*
X162499500Y-36066449D01*
X162479815Y-36133488D01*
X162427011Y-36179243D01*
X162357853Y-36189187D01*
X162294297Y-36160162D01*
X162268113Y-36128449D01*
X162232317Y-36066449D01*
X162200386Y-36011143D01*
X162036805Y-35806019D01*
X162036804Y-35806018D01*
X162036801Y-35806014D01*
X161844479Y-35627567D01*
X161689202Y-35521701D01*
X161627704Y-35479772D01*
X161627700Y-35479770D01*
X161627697Y-35479768D01*
X161627696Y-35479767D01*
X161391325Y-35365938D01*
X161391327Y-35365938D01*
X161140623Y-35288606D01*
X161140619Y-35288605D01*
X161140615Y-35288604D01*
X161015823Y-35269794D01*
X160881187Y-35249500D01*
X160881182Y-35249500D01*
X160618818Y-35249500D01*
X160618812Y-35249500D01*
X160457247Y-35273853D01*
X160359385Y-35288604D01*
X160359382Y-35288605D01*
X160359376Y-35288606D01*
X160108673Y-35365938D01*
X159872303Y-35479767D01*
X159872302Y-35479768D01*
X159872296Y-35479771D01*
X159872296Y-35479772D01*
X159871654Y-35480210D01*
X159655520Y-35627567D01*
X159463198Y-35806014D01*
X159299614Y-36011143D01*
X159168432Y-36238356D01*
X159115428Y-36373409D01*
X159072612Y-36428623D01*
X159006742Y-36451924D01*
X158938732Y-36435913D01*
X158890173Y-36385675D01*
X158884572Y-36373409D01*
X158855761Y-36300000D01*
X158831568Y-36238357D01*
X158700386Y-36011143D01*
X158536805Y-35806019D01*
X158536804Y-35806018D01*
X158536801Y-35806014D01*
X158344479Y-35627567D01*
X158189202Y-35521701D01*
X158127704Y-35479772D01*
X158127700Y-35479770D01*
X158127697Y-35479768D01*
X158127696Y-35479767D01*
X157891325Y-35365938D01*
X157891327Y-35365938D01*
X157640623Y-35288606D01*
X157640619Y-35288605D01*
X157640615Y-35288604D01*
X157515823Y-35269794D01*
X157381187Y-35249500D01*
X157381182Y-35249500D01*
X157118818Y-35249500D01*
X157118812Y-35249500D01*
X156957247Y-35273853D01*
X156859385Y-35288604D01*
X156859382Y-35288605D01*
X156859376Y-35288606D01*
X156608673Y-35365938D01*
X156372303Y-35479767D01*
X156372302Y-35479768D01*
X156372296Y-35479771D01*
X156372296Y-35479772D01*
X156371654Y-35480210D01*
X156155520Y-35627567D01*
X155963198Y-35806014D01*
X155799614Y-36011143D01*
X155668432Y-36238356D01*
X155615428Y-36373409D01*
X155572612Y-36428623D01*
X155506742Y-36451924D01*
X155438732Y-36435913D01*
X155390173Y-36385675D01*
X155384572Y-36373409D01*
X155355761Y-36300000D01*
X155331568Y-36238357D01*
X155200386Y-36011143D01*
X155036805Y-35806019D01*
X155036804Y-35806018D01*
X155036801Y-35806014D01*
X154844479Y-35627567D01*
X154689202Y-35521701D01*
X154627704Y-35479772D01*
X154627700Y-35479770D01*
X154627697Y-35479768D01*
X154627696Y-35479767D01*
X154391325Y-35365938D01*
X154391327Y-35365938D01*
X154140623Y-35288606D01*
X154140619Y-35288605D01*
X154140615Y-35288604D01*
X154015823Y-35269794D01*
X153881187Y-35249500D01*
X153881182Y-35249500D01*
X153618818Y-35249500D01*
X153618812Y-35249500D01*
X153457247Y-35273853D01*
X153359385Y-35288604D01*
X153359382Y-35288605D01*
X153359376Y-35288606D01*
X153108673Y-35365938D01*
X152872303Y-35479767D01*
X152872302Y-35479768D01*
X152872296Y-35479771D01*
X152872296Y-35479772D01*
X152871654Y-35480210D01*
X152655520Y-35627567D01*
X152463198Y-35806014D01*
X152299614Y-36011143D01*
X152168432Y-36238356D01*
X152115428Y-36373409D01*
X152072612Y-36428623D01*
X152006742Y-36451924D01*
X151938732Y-36435913D01*
X151890173Y-36385675D01*
X151884572Y-36373409D01*
X151855761Y-36300000D01*
X151831568Y-36238357D01*
X151700386Y-36011143D01*
X151536805Y-35806019D01*
X151425158Y-35702425D01*
X151389404Y-35642397D01*
X151385500Y-35611527D01*
X151385500Y-35271701D01*
X151405185Y-35204662D01*
X151421819Y-35184020D01*
X152434020Y-34171819D01*
X152495343Y-34138334D01*
X152521701Y-34135500D01*
X163910634Y-34135500D01*
X182478299Y-34135500D01*
X182545338Y-34155185D01*
G37*
%TD.AperFunction*%
%TA.AperFunction,Conductor*%
G36*
X148045338Y-34155185D02*
G01*
X148065980Y-34171819D01*
X149078181Y-35184020D01*
X149111666Y-35245343D01*
X149114500Y-35271701D01*
X149114500Y-35611527D01*
X149094815Y-35678566D01*
X149074842Y-35702425D01*
X148963197Y-35806016D01*
X148963195Y-35806019D01*
X148799614Y-36011143D01*
X148668433Y-36238354D01*
X148615159Y-36374093D01*
X148572343Y-36429306D01*
X148506473Y-36452607D01*
X148438462Y-36436596D01*
X148389904Y-36386358D01*
X148384302Y-36374092D01*
X148331113Y-36238567D01*
X148199972Y-36011426D01*
X148152124Y-35951427D01*
X147389309Y-36714242D01*
X147370332Y-36668426D01*
X147293726Y-36553776D01*
X147196224Y-36456274D01*
X147081574Y-36379668D01*
X147035757Y-36360690D01*
X147799168Y-35597278D01*
X147627454Y-35480206D01*
X147627445Y-35480201D01*
X147391142Y-35366404D01*
X147391144Y-35366404D01*
X147140505Y-35289092D01*
X147140499Y-35289090D01*
X146881151Y-35250000D01*
X146618848Y-35250000D01*
X146359500Y-35289090D01*
X146359494Y-35289092D01*
X146108858Y-35366404D01*
X146108854Y-35366405D01*
X145872547Y-35480205D01*
X145872539Y-35480210D01*
X145700830Y-35597277D01*
X146464243Y-36360690D01*
X146418426Y-36379668D01*
X146303776Y-36456274D01*
X146206274Y-36553776D01*
X146129668Y-36668426D01*
X146110690Y-36714242D01*
X145347874Y-35951427D01*
X145300028Y-36011425D01*
X145168883Y-36238573D01*
X145115696Y-36374092D01*
X145072880Y-36429306D01*
X145007010Y-36452607D01*
X144939000Y-36436596D01*
X144890441Y-36386358D01*
X144884840Y-36374092D01*
X144855761Y-36300000D01*
X144831568Y-36238357D01*
X144700386Y-36011143D01*
X144536805Y-35806019D01*
X144536804Y-35806018D01*
X144536801Y-35806014D01*
X144344479Y-35627567D01*
X144189202Y-35521701D01*
X144127704Y-35479772D01*
X144127700Y-35479770D01*
X144127697Y-35479768D01*
X144127696Y-35479767D01*
X143891325Y-35365938D01*
X143891327Y-35365938D01*
X143640623Y-35288606D01*
X143640619Y-35288605D01*
X143640615Y-35288604D01*
X143515823Y-35269794D01*
X143381187Y-35249500D01*
X143381182Y-35249500D01*
X143118818Y-35249500D01*
X143118812Y-35249500D01*
X142957247Y-35273853D01*
X142859385Y-35288604D01*
X142859382Y-35288605D01*
X142859376Y-35288606D01*
X142608673Y-35365938D01*
X142372303Y-35479767D01*
X142372302Y-35479768D01*
X142372296Y-35479771D01*
X142372296Y-35479772D01*
X142371654Y-35480210D01*
X142155520Y-35627567D01*
X141963198Y-35806014D01*
X141799614Y-36011143D01*
X141668432Y-36238356D01*
X141615428Y-36373409D01*
X141572612Y-36428623D01*
X141506742Y-36451924D01*
X141438732Y-36435913D01*
X141390173Y-36385675D01*
X141384572Y-36373409D01*
X141355761Y-36300000D01*
X141331568Y-36238357D01*
X141200386Y-36011143D01*
X141036805Y-35806019D01*
X141036804Y-35806018D01*
X141036801Y-35806014D01*
X140844479Y-35627567D01*
X140689202Y-35521701D01*
X140627704Y-35479772D01*
X140627700Y-35479770D01*
X140627697Y-35479768D01*
X140627696Y-35479767D01*
X140391325Y-35365938D01*
X140391327Y-35365938D01*
X140140623Y-35288606D01*
X140140619Y-35288605D01*
X140140615Y-35288604D01*
X140015823Y-35269794D01*
X139881187Y-35249500D01*
X139881182Y-35249500D01*
X139618818Y-35249500D01*
X139618812Y-35249500D01*
X139457247Y-35273853D01*
X139359385Y-35288604D01*
X139359382Y-35288605D01*
X139359376Y-35288606D01*
X139108673Y-35365938D01*
X138872303Y-35479767D01*
X138872302Y-35479768D01*
X138872296Y-35479771D01*
X138872296Y-35479772D01*
X138871654Y-35480210D01*
X138655520Y-35627567D01*
X138463198Y-35806014D01*
X138299614Y-36011143D01*
X138168432Y-36238356D01*
X138072582Y-36482578D01*
X138072576Y-36482597D01*
X138014197Y-36738374D01*
X138014196Y-36738379D01*
X137994592Y-36999995D01*
X137994592Y-37000004D01*
X138014196Y-37261620D01*
X138014197Y-37261625D01*
X138072576Y-37517402D01*
X138072578Y-37517411D01*
X138072580Y-37517416D01*
X138168432Y-37761643D01*
X138299614Y-37988857D01*
X138431736Y-38154533D01*
X138463198Y-38193985D01*
X138575163Y-38297872D01*
X138655521Y-38372433D01*
X138750853Y-38437429D01*
X138795154Y-38491457D01*
X138805000Y-38539882D01*
X138805000Y-39343074D01*
X138805000Y-39343076D01*
X138804999Y-39343076D01*
X138827859Y-39457998D01*
X138831113Y-39474353D01*
X138839623Y-39517136D01*
X138841316Y-39525647D01*
X138912552Y-39697627D01*
X139015967Y-39852398D01*
X139015973Y-39852406D01*
X142006887Y-42843319D01*
X142040372Y-42904642D01*
X142035388Y-42974334D01*
X141993516Y-43030267D01*
X141928052Y-43054684D01*
X141919206Y-43055000D01*
X110942794Y-43055000D01*
X110875755Y-43035315D01*
X110855113Y-43018681D01*
X109481319Y-41644887D01*
X109447834Y-41583564D01*
X109445000Y-41557206D01*
X109445000Y-38539882D01*
X109464685Y-38472843D01*
X109499146Y-38437429D01*
X109594479Y-38372433D01*
X109786805Y-38193981D01*
X109950386Y-37988857D01*
X110081568Y-37761643D01*
X110134840Y-37625905D01*
X110177655Y-37570693D01*
X110243525Y-37547392D01*
X110311536Y-37563403D01*
X110360094Y-37613640D01*
X110365696Y-37625907D01*
X110418883Y-37761426D01*
X110550027Y-37988573D01*
X110597874Y-38048571D01*
X111360689Y-37285756D01*
X111379668Y-37331574D01*
X111456274Y-37446224D01*
X111553776Y-37543726D01*
X111668426Y-37620332D01*
X111714242Y-37639309D01*
X110950830Y-38402720D01*
X111122546Y-38519793D01*
X111122550Y-38519795D01*
X111358854Y-38633594D01*
X111358858Y-38633595D01*
X111609494Y-38710907D01*
X111609500Y-38710909D01*
X111868848Y-38749999D01*
X111868857Y-38750000D01*
X112131143Y-38750000D01*
X112131151Y-38749999D01*
X112390499Y-38710909D01*
X112390505Y-38710907D01*
X112641143Y-38633595D01*
X112877445Y-38519798D01*
X112877447Y-38519797D01*
X113049168Y-38402720D01*
X112285757Y-37639309D01*
X112331574Y-37620332D01*
X112446224Y-37543726D01*
X112543726Y-37446224D01*
X112620332Y-37331574D01*
X112639309Y-37285756D01*
X113402125Y-38048572D01*
X113449971Y-37988573D01*
X113581114Y-37761430D01*
X113634302Y-37625908D01*
X113677118Y-37570694D01*
X113742988Y-37547392D01*
X113810998Y-37563402D01*
X113859557Y-37613640D01*
X113865159Y-37625906D01*
X113883681Y-37673099D01*
X113918432Y-37761643D01*
X114049614Y-37988857D01*
X114181736Y-38154533D01*
X114213198Y-38193985D01*
X114325163Y-38297872D01*
X114405521Y-38372433D01*
X114622296Y-38520228D01*
X114622301Y-38520230D01*
X114622302Y-38520231D01*
X114622303Y-38520232D01*
X114747843Y-38580688D01*
X114858673Y-38634061D01*
X114858674Y-38634061D01*
X114858677Y-38634063D01*
X115109385Y-38711396D01*
X115368818Y-38750500D01*
X115631182Y-38750500D01*
X115890615Y-38711396D01*
X116141323Y-38634063D01*
X116377704Y-38520228D01*
X116594479Y-38372433D01*
X116786805Y-38193981D01*
X116950386Y-37988857D01*
X117081568Y-37761643D01*
X117134572Y-37626589D01*
X117177387Y-37571376D01*
X117243257Y-37548075D01*
X117311268Y-37564086D01*
X117359827Y-37614323D01*
X117365425Y-37626584D01*
X117418432Y-37761643D01*
X117549614Y-37988857D01*
X117681736Y-38154533D01*
X117713198Y-38193985D01*
X117825163Y-38297872D01*
X117905521Y-38372433D01*
X118122296Y-38520228D01*
X118122301Y-38520230D01*
X118122302Y-38520231D01*
X118122303Y-38520232D01*
X118247843Y-38580688D01*
X118358673Y-38634061D01*
X118358674Y-38634061D01*
X118358677Y-38634063D01*
X118609385Y-38711396D01*
X118868818Y-38750500D01*
X119131182Y-38750500D01*
X119390615Y-38711396D01*
X119641323Y-38634063D01*
X119877704Y-38520228D01*
X120094479Y-38372433D01*
X120286805Y-38193981D01*
X120450386Y-37988857D01*
X120581568Y-37761643D01*
X120634572Y-37626589D01*
X120677387Y-37571376D01*
X120743257Y-37548075D01*
X120811268Y-37564086D01*
X120859827Y-37614323D01*
X120865425Y-37626584D01*
X120918432Y-37761643D01*
X121049614Y-37988857D01*
X121181736Y-38154533D01*
X121213198Y-38193985D01*
X121325163Y-38297872D01*
X121405521Y-38372433D01*
X121622296Y-38520228D01*
X121622301Y-38520230D01*
X121622302Y-38520231D01*
X121622303Y-38520232D01*
X121747843Y-38580688D01*
X121858673Y-38634061D01*
X121858674Y-38634061D01*
X121858677Y-38634063D01*
X122109385Y-38711396D01*
X122368818Y-38750500D01*
X122631182Y-38750500D01*
X122890615Y-38711396D01*
X123141323Y-38634063D01*
X123377704Y-38520228D01*
X123594479Y-38372433D01*
X123786805Y-38193981D01*
X123950386Y-37988857D01*
X124081568Y-37761643D01*
X124134572Y-37626589D01*
X124177387Y-37571376D01*
X124243257Y-37548075D01*
X124311268Y-37564086D01*
X124359827Y-37614323D01*
X124365425Y-37626584D01*
X124418432Y-37761643D01*
X124549614Y-37988857D01*
X124681736Y-38154533D01*
X124713198Y-38193985D01*
X124825163Y-38297872D01*
X124905521Y-38372433D01*
X125122296Y-38520228D01*
X125122301Y-38520230D01*
X125122302Y-38520231D01*
X125122303Y-38520232D01*
X125247843Y-38580688D01*
X125358673Y-38634061D01*
X125358674Y-38634061D01*
X125358677Y-38634063D01*
X125609385Y-38711396D01*
X125868818Y-38750500D01*
X126131182Y-38750500D01*
X126390615Y-38711396D01*
X126641323Y-38634063D01*
X126877704Y-38520228D01*
X127094479Y-38372433D01*
X127286805Y-38193981D01*
X127450386Y-37988857D01*
X127518114Y-37871547D01*
X127568680Y-37823334D01*
X127637286Y-37810110D01*
X127702151Y-37836078D01*
X127742680Y-37892992D01*
X127749500Y-37933549D01*
X127749500Y-38297869D01*
X127749501Y-38297876D01*
X127755908Y-38357483D01*
X127806202Y-38492328D01*
X127806206Y-38492335D01*
X127892452Y-38607544D01*
X127892455Y-38607547D01*
X128007664Y-38693793D01*
X128007671Y-38693797D01*
X128142517Y-38744091D01*
X128142516Y-38744091D01*
X128149444Y-38744835D01*
X128202127Y-38750500D01*
X130797872Y-38750499D01*
X130857483Y-38744091D01*
X130992331Y-38693796D01*
X131107546Y-38607546D01*
X131193796Y-38492331D01*
X131244091Y-38357483D01*
X131250500Y-38297873D01*
X131250499Y-35702128D01*
X131244091Y-35642517D01*
X131244046Y-35642397D01*
X131193797Y-35507671D01*
X131193793Y-35507664D01*
X131107547Y-35392455D01*
X131107544Y-35392452D01*
X130992335Y-35306206D01*
X130992328Y-35306202D01*
X130857482Y-35255908D01*
X130857483Y-35255908D01*
X130797883Y-35249501D01*
X130797881Y-35249500D01*
X130797873Y-35249500D01*
X130797864Y-35249500D01*
X128202129Y-35249500D01*
X128202123Y-35249501D01*
X128142516Y-35255908D01*
X128007671Y-35306202D01*
X128007664Y-35306206D01*
X127892455Y-35392452D01*
X127892452Y-35392455D01*
X127806206Y-35507664D01*
X127806202Y-35507671D01*
X127755908Y-35642517D01*
X127753424Y-35665628D01*
X127749501Y-35702123D01*
X127749500Y-35702135D01*
X127749500Y-36066449D01*
X127729815Y-36133488D01*
X127677011Y-36179243D01*
X127607853Y-36189187D01*
X127544297Y-36160162D01*
X127518113Y-36128449D01*
X127482317Y-36066449D01*
X127450386Y-36011143D01*
X127286805Y-35806019D01*
X127286804Y-35806018D01*
X127286801Y-35806014D01*
X127094479Y-35627567D01*
X126939202Y-35521701D01*
X126877704Y-35479772D01*
X126877700Y-35479770D01*
X126877697Y-35479768D01*
X126877696Y-35479767D01*
X126641325Y-35365938D01*
X126641327Y-35365938D01*
X126390623Y-35288606D01*
X126390619Y-35288605D01*
X126390615Y-35288604D01*
X126265823Y-35269794D01*
X126131187Y-35249500D01*
X126131182Y-35249500D01*
X125868818Y-35249500D01*
X125868812Y-35249500D01*
X125707247Y-35273853D01*
X125609385Y-35288604D01*
X125609382Y-35288605D01*
X125609376Y-35288606D01*
X125358673Y-35365938D01*
X125122303Y-35479767D01*
X125122302Y-35479768D01*
X125122296Y-35479771D01*
X125122296Y-35479772D01*
X125121654Y-35480210D01*
X124905520Y-35627567D01*
X124713198Y-35806014D01*
X124549614Y-36011143D01*
X124418432Y-36238356D01*
X124365428Y-36373409D01*
X124322612Y-36428623D01*
X124256742Y-36451924D01*
X124188732Y-36435913D01*
X124140173Y-36385675D01*
X124134572Y-36373409D01*
X124105761Y-36300000D01*
X124081568Y-36238357D01*
X123950386Y-36011143D01*
X123786805Y-35806019D01*
X123786804Y-35806018D01*
X123786801Y-35806014D01*
X123594479Y-35627567D01*
X123439202Y-35521701D01*
X123377704Y-35479772D01*
X123377700Y-35479770D01*
X123377697Y-35479768D01*
X123377696Y-35479767D01*
X123141325Y-35365938D01*
X123141327Y-35365938D01*
X122890623Y-35288606D01*
X122890619Y-35288605D01*
X122890615Y-35288604D01*
X122765823Y-35269794D01*
X122631187Y-35249500D01*
X122631182Y-35249500D01*
X122368818Y-35249500D01*
X122368812Y-35249500D01*
X122207247Y-35273853D01*
X122109385Y-35288604D01*
X122109382Y-35288605D01*
X122109376Y-35288606D01*
X121858673Y-35365938D01*
X121622303Y-35479767D01*
X121622302Y-35479768D01*
X121622296Y-35479771D01*
X121622296Y-35479772D01*
X121621654Y-35480210D01*
X121405520Y-35627567D01*
X121213198Y-35806014D01*
X121049614Y-36011143D01*
X120918432Y-36238356D01*
X120865428Y-36373409D01*
X120822612Y-36428623D01*
X120756742Y-36451924D01*
X120688732Y-36435913D01*
X120640173Y-36385675D01*
X120634572Y-36373409D01*
X120605761Y-36300000D01*
X120581568Y-36238357D01*
X120450386Y-36011143D01*
X120286805Y-35806019D01*
X120286804Y-35806018D01*
X120286801Y-35806014D01*
X120094479Y-35627567D01*
X119939202Y-35521701D01*
X119877704Y-35479772D01*
X119877700Y-35479770D01*
X119877697Y-35479768D01*
X119877696Y-35479767D01*
X119641325Y-35365938D01*
X119641327Y-35365938D01*
X119390623Y-35288606D01*
X119390619Y-35288605D01*
X119390615Y-35288604D01*
X119265823Y-35269794D01*
X119131187Y-35249500D01*
X119131182Y-35249500D01*
X118868818Y-35249500D01*
X118868812Y-35249500D01*
X118707247Y-35273853D01*
X118609385Y-35288604D01*
X118609382Y-35288605D01*
X118609376Y-35288606D01*
X118358673Y-35365938D01*
X118122303Y-35479767D01*
X118122302Y-35479768D01*
X118122296Y-35479771D01*
X118122296Y-35479772D01*
X118121654Y-35480210D01*
X117905520Y-35627567D01*
X117713198Y-35806014D01*
X117549614Y-36011143D01*
X117418432Y-36238356D01*
X117365428Y-36373409D01*
X117322612Y-36428623D01*
X117256742Y-36451924D01*
X117188732Y-36435913D01*
X117140173Y-36385675D01*
X117134572Y-36373409D01*
X117105761Y-36300000D01*
X117081568Y-36238357D01*
X116950386Y-36011143D01*
X116786805Y-35806019D01*
X116675158Y-35702425D01*
X116639404Y-35642397D01*
X116635500Y-35611527D01*
X116635500Y-35021701D01*
X116655185Y-34954662D01*
X116671819Y-34934020D01*
X117434021Y-34171819D01*
X117495344Y-34138334D01*
X117521702Y-34135500D01*
X147978299Y-34135500D01*
X148045338Y-34155185D01*
G37*
%TD.AperFunction*%
%TD*%
M02*
