%TF.GenerationSoftware,KiCad,Pcbnew,8.0.5-8.0.5-0~ubuntu22.04.1*%
%TF.CreationDate,2024-09-30T17:11:09+02:00*%
%TF.ProjectId,BTT-SKR-MINI-E3_shield,4254542d-534b-4522-9d4d-494e492d4533,rev?*%
%TF.SameCoordinates,Original*%
%TF.FileFunction,Copper,L2,Bot*%
%TF.FilePolarity,Positive*%
%FSLAX46Y46*%
G04 Gerber Fmt 4.6, Leading zero omitted, Abs format (unit mm)*
G04 Created by KiCad (PCBNEW 8.0.5-8.0.5-0~ubuntu22.04.1) date 2024-09-30 17:11:09*
%MOMM*%
%LPD*%
G01*
G04 APERTURE LIST*
G04 Aperture macros list*
%AMRoundRect*
0 Rectangle with rounded corners*
0 $1 Rounding radius*
0 $2 $3 $4 $5 $6 $7 $8 $9 X,Y pos of 4 corners*
0 Add a 4 corners polygon primitive as box body*
4,1,4,$2,$3,$4,$5,$6,$7,$8,$9,$2,$3,0*
0 Add four circle primitives for the rounded corners*
1,1,$1+$1,$2,$3*
1,1,$1+$1,$4,$5*
1,1,$1+$1,$6,$7*
1,1,$1+$1,$8,$9*
0 Add four rect primitives between the rounded corners*
20,1,$1+$1,$2,$3,$4,$5,0*
20,1,$1+$1,$4,$5,$6,$7,0*
20,1,$1+$1,$6,$7,$8,$9,0*
20,1,$1+$1,$8,$9,$2,$3,0*%
G04 Aperture macros list end*
%TA.AperFunction,ComponentPad*%
%ADD10R,1.700000X1.700000*%
%TD*%
%TA.AperFunction,ComponentPad*%
%ADD11O,1.700000X1.700000*%
%TD*%
%TA.AperFunction,ComponentPad*%
%ADD12R,2.500000X2.500000*%
%TD*%
%TA.AperFunction,ComponentPad*%
%ADD13C,2.500000*%
%TD*%
%TA.AperFunction,ComponentPad*%
%ADD14RoundRect,0.250000X-0.600000X-0.725000X0.600000X-0.725000X0.600000X0.725000X-0.600000X0.725000X0*%
%TD*%
%TA.AperFunction,ComponentPad*%
%ADD15O,1.700000X1.950000*%
%TD*%
%TA.AperFunction,ComponentPad*%
%ADD16RoundRect,0.250000X-0.600000X-0.600000X0.600000X-0.600000X0.600000X0.600000X-0.600000X0.600000X0*%
%TD*%
%TA.AperFunction,ComponentPad*%
%ADD17C,1.700000*%
%TD*%
%TA.AperFunction,ComponentPad*%
%ADD18C,3.000000*%
%TD*%
%TA.AperFunction,ViaPad*%
%ADD19C,1.016000*%
%TD*%
%TA.AperFunction,ViaPad*%
%ADD20C,6.000000*%
%TD*%
%TA.AperFunction,Conductor*%
%ADD21C,0.889000*%
%TD*%
G04 APERTURE END LIST*
D10*
%TO.P,GPIO1,1,Pin_1*%
%TO.N,PD0*%
X186925000Y-59000000D03*
D11*
%TO.P,GPIO1,2,Pin_2*%
%TO.N,BTN1*%
X189465000Y-59000000D03*
%TO.P,GPIO1,3,Pin_3*%
%TO.N,LED1*%
X192005000Y-59000000D03*
%TO.P,GPIO1,4,Pin_4*%
%TO.N,BTN2*%
X194545000Y-59000000D03*
%TO.P,GPIO1,5,Pin_5*%
%TO.N,LED2*%
X197085000Y-59000000D03*
%TD*%
D12*
%TO.P,MOTOR1,1,Pin_1*%
%TO.N,M1_2A*%
X129500000Y-37000000D03*
D13*
%TO.P,MOTOR1,2,Pin_2*%
%TO.N,M1_1A*%
X126000000Y-37000000D03*
%TO.P,MOTOR1,3,Pin_3*%
%TO.N,M1_1B*%
X122500000Y-37000000D03*
%TO.P,MOTOR1,4,Pin_4*%
%TO.N,M1_2B*%
X119000000Y-37000000D03*
%TO.P,MOTOR1,5,Pin_5*%
%TO.N,+5V*%
X115500000Y-37000000D03*
%TO.P,MOTOR1,6,Pin_6*%
%TO.N,GND*%
X112000000Y-37000000D03*
%TO.P,MOTOR1,7,Pin_7*%
%TO.N,E1_A*%
X108500000Y-37000000D03*
%TO.P,MOTOR1,8,Pin_8*%
%TO.N,E1_B*%
X105000000Y-37000000D03*
%TD*%
D12*
%TO.P,MOTOR3,1,Pin_1*%
%TO.N,M3_2A*%
X198750000Y-37000000D03*
D13*
%TO.P,MOTOR3,2,Pin_2*%
%TO.N,M3_1A*%
X195250000Y-37000000D03*
%TO.P,MOTOR3,3,Pin_3*%
%TO.N,M3_1B*%
X191750000Y-37000000D03*
%TO.P,MOTOR3,4,Pin_4*%
%TO.N,M3_2B*%
X188250000Y-37000000D03*
%TO.P,MOTOR3,5,Pin_5*%
%TO.N,+5V*%
X184750000Y-37000000D03*
%TO.P,MOTOR3,6,Pin_6*%
%TO.N,GND*%
X181250000Y-37000000D03*
%TO.P,MOTOR3,7,Pin_7*%
%TO.N,E3_A*%
X177750000Y-37000000D03*
%TO.P,MOTOR3,8,Pin_8*%
%TO.N,E3_B*%
X174250000Y-37000000D03*
%TD*%
D14*
%TO.P,EM1,1,Pin_1*%
%TO.N,M4_2B*%
X170500000Y-55000000D03*
D15*
%TO.P,EM1,2,Pin_2*%
%TO.N,M4_1B*%
X173000000Y-55000000D03*
%TO.P,EM1,3,Pin_3*%
%TO.N,M4_1A*%
X175500000Y-55000000D03*
%TO.P,EM1,4,Pin_4*%
%TO.N,M4_2A*%
X178000000Y-55000000D03*
%TD*%
D14*
%TO.P,ZM1,1,Pin_1*%
%TO.N,M3_2B*%
X144000000Y-55000000D03*
D15*
%TO.P,ZM1,2,Pin_2*%
%TO.N,M3_1B*%
X146500000Y-55000000D03*
%TO.P,ZM1,3,Pin_3*%
%TO.N,M3_1A*%
X149000000Y-55000000D03*
%TO.P,ZM1,4,Pin_4*%
%TO.N,M3_2A*%
X151500000Y-55000000D03*
%TD*%
D12*
%TO.P,MOTOR4,1,Pin_1*%
%TO.N,M4_2B*%
X104500000Y-131000000D03*
D13*
%TO.P,MOTOR4,2,Pin_2*%
%TO.N,M4_1B*%
X108000000Y-131000000D03*
%TO.P,MOTOR4,3,Pin_3*%
%TO.N,M4_1A*%
X111500000Y-131000000D03*
%TO.P,MOTOR4,4,Pin_4*%
%TO.N,M4_2A*%
X115000000Y-131000000D03*
%TO.P,MOTOR4,5,Pin_5*%
%TO.N,GRP-*%
X118500000Y-131000000D03*
%TO.P,MOTOR4,6,Pin_6*%
%TO.N,GRP+*%
X122000000Y-131000000D03*
%TO.P,MOTOR4,7,Pin_7*%
%TO.N,PD0*%
X125500000Y-131000000D03*
%TO.P,MOTOR4,8,Pin_8*%
%TO.N,GND*%
X129000000Y-131000000D03*
%TD*%
D14*
%TO.P,YM1,1,Pin_1*%
%TO.N,M2_2B*%
X130500000Y-55000000D03*
D15*
%TO.P,YM1,2,Pin_2*%
%TO.N,M2_1B*%
X133000000Y-55000000D03*
%TO.P,YM1,3,Pin_3*%
%TO.N,M2_1A*%
X135500000Y-55000000D03*
%TO.P,YM1,4,Pin_4*%
%TO.N,M2_2A*%
X138000000Y-55000000D03*
%TD*%
D16*
%TO.P,EXP1,1,Pin_1*%
%TO.N,+5V*%
X197500000Y-106540000D03*
D17*
%TO.P,EXP1,2,Pin_2*%
%TO.N,GND*%
X194960000Y-106540000D03*
%TO.P,EXP1,3,Pin_3*%
%TO.N,E3_B*%
X197500000Y-104000000D03*
%TO.P,EXP1,4,Pin_4*%
%TO.N,E3_A*%
X194960000Y-104000000D03*
%TO.P,EXP1,5,Pin_5*%
%TO.N,E2_B*%
X197500000Y-101460000D03*
%TO.P,EXP1,6,Pin_6*%
%TO.N,E2_A*%
X194960000Y-101460000D03*
%TO.P,EXP1,7,Pin_7*%
%TO.N,unconnected-(EXP1-Pin_7-Pad7)*%
X197500000Y-98920000D03*
%TO.P,EXP1,8,Pin_8*%
%TO.N,unconnected-(EXP1-Pin_8-Pad8)*%
X194960000Y-98920000D03*
%TO.P,EXP1,9,Pin_9*%
%TO.N,E1_B*%
X197500000Y-96380000D03*
%TO.P,EXP1,10,Pin_10*%
%TO.N,E1_A*%
X194960000Y-96380000D03*
%TD*%
D14*
%TO.P,XM1,1,Pin_1*%
%TO.N,M1_2B*%
X109000000Y-55000000D03*
D15*
%TO.P,XM1,2,Pin_2*%
%TO.N,M1_1B*%
X111500000Y-55000000D03*
%TO.P,XM1,3,Pin_3*%
%TO.N,M1_1A*%
X114000000Y-55000000D03*
%TO.P,XM1,4,Pin_4*%
%TO.N,M1_2A*%
X116500000Y-55000000D03*
%TD*%
D18*
%TO.P,GRP-,1*%
%TO.N,GRP-*%
X118500000Y-114500000D03*
%TD*%
D12*
%TO.P,PWR1,1,Pin_1*%
%TO.N,+5V*%
X170500000Y-126500000D03*
D13*
%TO.P,PWR1,2,Pin_2*%
%TO.N,BTN1*%
X174000000Y-126500000D03*
%TO.P,PWR1,3,Pin_3*%
%TO.N,LED1*%
X177500000Y-126500000D03*
%TO.P,PWR1,4,Pin_4*%
%TO.N,BTN2*%
X181000000Y-126500000D03*
%TO.P,PWR1,5,Pin_5*%
%TO.N,LED2*%
X184500000Y-126500000D03*
%TO.P,PWR1,6,Pin_6*%
%TO.N,GND*%
X188000000Y-126500000D03*
%TD*%
D18*
%TO.P,GRP+,1*%
%TO.N,GRP+*%
X124000000Y-114500000D03*
%TD*%
D12*
%TO.P,MOTOR2,1,Pin_1*%
%TO.N,M2_2A*%
X164250000Y-37000000D03*
D13*
%TO.P,MOTOR2,2,Pin_2*%
%TO.N,M2_1A*%
X160750000Y-37000000D03*
%TO.P,MOTOR2,3,Pin_3*%
%TO.N,M2_1B*%
X157250000Y-37000000D03*
%TO.P,MOTOR2,4,Pin_4*%
%TO.N,M2_2B*%
X153750000Y-37000000D03*
%TO.P,MOTOR2,5,Pin_5*%
%TO.N,+5V*%
X150250000Y-37000000D03*
%TO.P,MOTOR2,6,Pin_6*%
%TO.N,GND*%
X146750000Y-37000000D03*
%TO.P,MOTOR2,7,Pin_7*%
%TO.N,E2_A*%
X143250000Y-37000000D03*
%TO.P,MOTOR2,8,Pin_8*%
%TO.N,E2_B*%
X139750000Y-37000000D03*
%TD*%
D19*
%TO.N,PD0*%
X171000000Y-91500000D03*
D20*
%TO.N,*%
X123390000Y-52095000D03*
X201220000Y-116565000D03*
X105530000Y-87075000D03*
X137340000Y-89715000D03*
X185550000Y-51895000D03*
D19*
%TO.N,LED1*%
X177500000Y-91500000D03*
%TO.N,LED2*%
X184500000Y-91500000D03*
%TO.N,BTN1*%
X174000000Y-91500000D03*
%TO.N,BTN2*%
X181000000Y-91500000D03*
%TO.N,E2_B*%
X160000000Y-79000000D03*
%TO.N,E1_B*%
X156000000Y-77500000D03*
%TO.N,E3_A*%
X166000000Y-94500000D03*
X166000000Y-103500000D03*
%TO.N,E3_B*%
X164000000Y-80500000D03*
%TO.N,E2_A*%
X162000000Y-94500000D03*
X162000000Y-98000000D03*
%TO.N,M2_1B*%
X133000000Y-47000000D03*
X133000000Y-51000000D03*
%TD*%
D21*
%TO.N,PD0*%
X171000000Y-91500000D02*
X171000000Y-114500000D01*
X171000000Y-114500000D02*
X168000000Y-117500000D01*
X129000000Y-117500000D02*
X125500000Y-121000000D01*
X168000000Y-117500000D02*
X129000000Y-117500000D01*
X125500000Y-121000000D02*
X125500000Y-131000000D01*
%TO.N,M4_2B*%
X170500000Y-55000000D02*
X170500000Y-61500000D01*
X170500000Y-61500000D02*
X167500000Y-64500000D01*
X167500000Y-64500000D02*
X116500000Y-64500000D01*
X116500000Y-64500000D02*
X111500000Y-69500000D01*
X111500000Y-69500000D02*
X111500000Y-89000000D01*
X111500000Y-89000000D02*
X104500000Y-96000000D01*
X104500000Y-96000000D02*
X104500000Y-131000000D01*
%TO.N,M4_2A*%
X178000000Y-55000000D02*
X178000000Y-62500000D01*
X178000000Y-62500000D02*
X170000000Y-70500000D01*
X170000000Y-70500000D02*
X121000000Y-70500000D01*
X121000000Y-70500000D02*
X117500000Y-74000000D01*
X115000000Y-95500000D02*
X115000000Y-131000000D01*
X117500000Y-74000000D02*
X117500000Y-93000000D01*
X117500000Y-93000000D02*
X115000000Y-95500000D01*
%TO.N,M4_1A*%
X175500000Y-55000000D02*
X175500000Y-62500000D01*
X175500000Y-62500000D02*
X169500000Y-68500000D01*
X111500000Y-96000000D02*
X111500000Y-131000000D01*
X169500000Y-68500000D02*
X119500000Y-68500000D01*
X119500000Y-68500000D02*
X115500000Y-72500000D01*
X115500000Y-72500000D02*
X115500000Y-92000000D01*
X115500000Y-92000000D02*
X111500000Y-96000000D01*
%TO.N,M2_1B*%
X133000000Y-47000000D02*
X133000000Y-36000000D01*
X133000000Y-36000000D02*
X136500000Y-32500000D01*
X136500000Y-32500000D02*
X154500000Y-32500000D01*
X154500000Y-32500000D02*
X157250000Y-35250000D01*
X157250000Y-35250000D02*
X157250000Y-37000000D01*
%TO.N,LED1*%
X177500000Y-91500000D02*
X177500000Y-126500000D01*
%TO.N,LED2*%
X184500000Y-91500000D02*
X184500000Y-126500000D01*
%TO.N,BTN1*%
X174000000Y-91500000D02*
X174000000Y-126500000D01*
%TO.N,BTN2*%
X181000000Y-91500000D02*
X181000000Y-126500000D01*
%TO.N,M4_1B*%
X168500000Y-66500000D02*
X118000000Y-66500000D01*
X108000000Y-96000000D02*
X108000000Y-131000000D01*
X113500000Y-90500000D02*
X108000000Y-96000000D01*
X173000000Y-55000000D02*
X173000000Y-62000000D01*
X118000000Y-66500000D02*
X113500000Y-71000000D01*
X113500000Y-71000000D02*
X113500000Y-90500000D01*
X173000000Y-62000000D02*
X168500000Y-66500000D01*
%TO.N,E2_B*%
X165000000Y-84000000D02*
X198000000Y-84000000D01*
X201000000Y-87000000D02*
X201000000Y-99540000D01*
X160000000Y-79000000D02*
X165000000Y-84000000D01*
X201000000Y-99540000D02*
X199080000Y-101460000D01*
X198000000Y-84000000D02*
X201000000Y-87000000D01*
X199080000Y-101460000D02*
X197500000Y-101460000D01*
%TO.N,E1_B*%
X156000000Y-77500000D02*
X164000000Y-85500000D01*
X197500000Y-85500000D02*
X199500000Y-87500000D01*
X199500000Y-96000000D02*
X199120000Y-96380000D01*
X199500000Y-87500000D02*
X199500000Y-96000000D01*
X164000000Y-85500000D02*
X197500000Y-85500000D01*
X199120000Y-96380000D02*
X197500000Y-96380000D01*
%TO.N,E3_A*%
X166000000Y-94500000D02*
X166000000Y-103500000D01*
%TO.N,E3_B*%
X166000000Y-82500000D02*
X198500000Y-82500000D01*
X202500000Y-101000000D02*
X199500000Y-104000000D01*
X199500000Y-104000000D02*
X197500000Y-104000000D01*
X202500000Y-86500000D02*
X202500000Y-101000000D01*
X164000000Y-80500000D02*
X166000000Y-82500000D01*
X198500000Y-82500000D02*
X202500000Y-86500000D01*
%TO.N,E2_A*%
X162000000Y-94500000D02*
X162000000Y-98000000D01*
%TO.N,M1_2A*%
X129500000Y-41000000D02*
X129500000Y-37000000D01*
X116500000Y-50000000D02*
X119000000Y-47500000D01*
X123000000Y-47500000D02*
X129500000Y-41000000D01*
X119000000Y-47500000D02*
X123000000Y-47500000D01*
X116500000Y-55000000D02*
X116500000Y-50000000D01*
%TO.N,M1_1A*%
X118000000Y-45500000D02*
X121500000Y-45500000D01*
X114000000Y-55000000D02*
X114000000Y-49500000D01*
X114000000Y-49500000D02*
X118000000Y-45500000D01*
X121500000Y-45500000D02*
X126000000Y-41000000D01*
X126000000Y-41000000D02*
X126000000Y-37000000D01*
%TO.N,M1_1B*%
X117000000Y-43500000D02*
X120000000Y-43500000D01*
X122500000Y-41000000D02*
X122500000Y-37000000D01*
X120000000Y-43500000D02*
X122500000Y-41000000D01*
X111500000Y-55000000D02*
X111500000Y-49000000D01*
X111500000Y-49000000D02*
X117000000Y-43500000D01*
%TO.N,M1_2B*%
X115500000Y-41500000D02*
X118000000Y-41500000D01*
X119000000Y-40500000D02*
X119000000Y-37000000D01*
X109000000Y-48000000D02*
X115500000Y-41500000D01*
X109000000Y-55000000D02*
X109000000Y-48000000D01*
X118000000Y-41500000D02*
X119000000Y-40500000D01*
%TO.N,M2_1B*%
X133000000Y-51000000D02*
X133000000Y-55000000D01*
%TO.N,M2_2B*%
X152500000Y-34000000D02*
X153750000Y-35250000D01*
X137500000Y-34000000D02*
X152500000Y-34000000D01*
X130500000Y-55000000D02*
X130500000Y-51500000D01*
X135000000Y-36500000D02*
X137500000Y-34000000D01*
X135000000Y-47000000D02*
X135000000Y-36500000D01*
X130500000Y-51500000D02*
X135000000Y-47000000D01*
X153750000Y-35250000D02*
X153750000Y-37000000D01*
%TO.N,M2_1A*%
X135500000Y-49750000D02*
X137000000Y-48250000D01*
X160750000Y-39000000D02*
X160750000Y-37000000D01*
X135500000Y-55000000D02*
X135500000Y-49750000D01*
X137000000Y-48250000D02*
X137000000Y-41500000D01*
X138500000Y-40000000D02*
X159750000Y-40000000D01*
X159750000Y-40000000D02*
X160750000Y-39000000D01*
X137000000Y-41500000D02*
X138500000Y-40000000D01*
%TO.N,M2_2A*%
X138000000Y-50000000D02*
X139000000Y-49000000D01*
X140500000Y-41500000D02*
X162500000Y-41500000D01*
X139000000Y-49000000D02*
X139000000Y-43000000D01*
X138000000Y-55000000D02*
X138000000Y-50000000D01*
X139000000Y-43000000D02*
X140500000Y-41500000D01*
X164250000Y-39750000D02*
X164250000Y-37000000D01*
X162500000Y-41500000D02*
X164250000Y-39750000D01*
%TO.N,M3_2B*%
X144000000Y-55000000D02*
X144000000Y-49000000D01*
X188250000Y-40750000D02*
X188250000Y-37000000D01*
X150000000Y-43000000D02*
X186000000Y-43000000D01*
X144000000Y-49000000D02*
X150000000Y-43000000D01*
X186000000Y-43000000D02*
X188250000Y-40750000D01*
%TO.N,M3_1A*%
X149000000Y-49000000D02*
X152000000Y-46000000D01*
X149000000Y-55000000D02*
X149000000Y-49000000D01*
X152000000Y-46000000D02*
X190000000Y-46000000D01*
X190000000Y-46000000D02*
X195250000Y-40750000D01*
X195250000Y-40750000D02*
X195250000Y-37000000D01*
%TO.N,M3_2A*%
X151500000Y-49000000D02*
X153000000Y-47500000D01*
X198750000Y-40750000D02*
X198750000Y-37000000D01*
X151500000Y-55000000D02*
X151500000Y-49000000D01*
X192000000Y-47500000D02*
X198750000Y-40750000D01*
X153000000Y-47500000D02*
X192000000Y-47500000D01*
%TO.N,M3_1B*%
X191750000Y-40750000D02*
X191750000Y-37000000D01*
X146500000Y-49000000D02*
X151000000Y-44500000D01*
X188000000Y-44500000D02*
X191750000Y-40750000D01*
X151000000Y-44500000D02*
X188000000Y-44500000D01*
X146500000Y-55000000D02*
X146500000Y-49000000D01*
%TD*%
%TA.AperFunction,Conductor*%
%TO.N,GND*%
G36*
X152124245Y-34964685D02*
G01*
X152144887Y-34981319D01*
X152634841Y-35471273D01*
X152668326Y-35532596D01*
X152663342Y-35602288D01*
X152631501Y-35649852D01*
X152463203Y-35806009D01*
X152463200Y-35806012D01*
X152299614Y-36011143D01*
X152168432Y-36238356D01*
X152115428Y-36373409D01*
X152072612Y-36428623D01*
X152006742Y-36451924D01*
X151938732Y-36435913D01*
X151890173Y-36385675D01*
X151884572Y-36373409D01*
X151855761Y-36300000D01*
X151831568Y-36238357D01*
X151700386Y-36011143D01*
X151536805Y-35806019D01*
X151536804Y-35806018D01*
X151536801Y-35806014D01*
X151344479Y-35627567D01*
X151344467Y-35627559D01*
X151127704Y-35479772D01*
X151127700Y-35479770D01*
X151127697Y-35479768D01*
X151127696Y-35479767D01*
X150891325Y-35365938D01*
X150891327Y-35365938D01*
X150640623Y-35288606D01*
X150640619Y-35288605D01*
X150640615Y-35288604D01*
X150515823Y-35269794D01*
X150381187Y-35249500D01*
X150381182Y-35249500D01*
X150118818Y-35249500D01*
X150118812Y-35249500D01*
X149957247Y-35273853D01*
X149859385Y-35288604D01*
X149859382Y-35288605D01*
X149859376Y-35288606D01*
X149608673Y-35365938D01*
X149372303Y-35479767D01*
X149372302Y-35479768D01*
X149372296Y-35479771D01*
X149372296Y-35479772D01*
X149371654Y-35480210D01*
X149155520Y-35627567D01*
X148963198Y-35806014D01*
X148799614Y-36011143D01*
X148668433Y-36238354D01*
X148615159Y-36374093D01*
X148572343Y-36429306D01*
X148506473Y-36452607D01*
X148438462Y-36436596D01*
X148389904Y-36386358D01*
X148384302Y-36374092D01*
X148331113Y-36238567D01*
X148199972Y-36011426D01*
X148152124Y-35951427D01*
X147389309Y-36714242D01*
X147370332Y-36668426D01*
X147293726Y-36553776D01*
X147196224Y-36456274D01*
X147081574Y-36379668D01*
X147035757Y-36360690D01*
X147799168Y-35597278D01*
X147627454Y-35480206D01*
X147627445Y-35480201D01*
X147391142Y-35366404D01*
X147391144Y-35366404D01*
X147140505Y-35289092D01*
X147140499Y-35289090D01*
X146881151Y-35250000D01*
X146618848Y-35250000D01*
X146359500Y-35289090D01*
X146359494Y-35289092D01*
X146108858Y-35366404D01*
X146108854Y-35366405D01*
X145872547Y-35480205D01*
X145872539Y-35480210D01*
X145700830Y-35597277D01*
X146464243Y-36360690D01*
X146418426Y-36379668D01*
X146303776Y-36456274D01*
X146206274Y-36553776D01*
X146129668Y-36668426D01*
X146110690Y-36714242D01*
X145347874Y-35951427D01*
X145300028Y-36011425D01*
X145168883Y-36238573D01*
X145115696Y-36374092D01*
X145072880Y-36429306D01*
X145007010Y-36452607D01*
X144939000Y-36436596D01*
X144890441Y-36386358D01*
X144884840Y-36374092D01*
X144855761Y-36300000D01*
X144831568Y-36238357D01*
X144700386Y-36011143D01*
X144536805Y-35806019D01*
X144536804Y-35806018D01*
X144536801Y-35806014D01*
X144344479Y-35627567D01*
X144344467Y-35627559D01*
X144127704Y-35479772D01*
X144127700Y-35479770D01*
X144127697Y-35479768D01*
X144127696Y-35479767D01*
X143891325Y-35365938D01*
X143891327Y-35365938D01*
X143640623Y-35288606D01*
X143640619Y-35288605D01*
X143640615Y-35288604D01*
X143515823Y-35269794D01*
X143381187Y-35249500D01*
X143381182Y-35249500D01*
X143118818Y-35249500D01*
X143118812Y-35249500D01*
X142957247Y-35273853D01*
X142859385Y-35288604D01*
X142859382Y-35288605D01*
X142859376Y-35288606D01*
X142608673Y-35365938D01*
X142372303Y-35479767D01*
X142372302Y-35479768D01*
X142372296Y-35479771D01*
X142372296Y-35479772D01*
X142371654Y-35480210D01*
X142155520Y-35627567D01*
X141963198Y-35806014D01*
X141799614Y-36011143D01*
X141668432Y-36238356D01*
X141615428Y-36373409D01*
X141572612Y-36428623D01*
X141506742Y-36451924D01*
X141438732Y-36435913D01*
X141390173Y-36385675D01*
X141384572Y-36373409D01*
X141355761Y-36300000D01*
X141331568Y-36238357D01*
X141200386Y-36011143D01*
X141036805Y-35806019D01*
X141036804Y-35806018D01*
X141036801Y-35806014D01*
X140844479Y-35627567D01*
X140844467Y-35627559D01*
X140627704Y-35479772D01*
X140627700Y-35479770D01*
X140627697Y-35479768D01*
X140627696Y-35479767D01*
X140391325Y-35365938D01*
X140391327Y-35365938D01*
X140140623Y-35288606D01*
X140140619Y-35288605D01*
X140140615Y-35288604D01*
X140015823Y-35269794D01*
X139881187Y-35249500D01*
X139881182Y-35249500D01*
X139618818Y-35249500D01*
X139618812Y-35249500D01*
X139457247Y-35273853D01*
X139359385Y-35288604D01*
X139359382Y-35288605D01*
X139359376Y-35288606D01*
X139108673Y-35365938D01*
X138872303Y-35479767D01*
X138872302Y-35479768D01*
X138872296Y-35479771D01*
X138872296Y-35479772D01*
X138871654Y-35480210D01*
X138655520Y-35627567D01*
X138463198Y-35806014D01*
X138299614Y-36011143D01*
X138168432Y-36238356D01*
X138072582Y-36482578D01*
X138072576Y-36482597D01*
X138014197Y-36738374D01*
X138014196Y-36738379D01*
X137994592Y-36999995D01*
X137994592Y-37000004D01*
X138014196Y-37261620D01*
X138014197Y-37261625D01*
X138072576Y-37517402D01*
X138072578Y-37517411D01*
X138072580Y-37517416D01*
X138168432Y-37761643D01*
X138299614Y-37988857D01*
X138431736Y-38154533D01*
X138463198Y-38193985D01*
X138575163Y-38297872D01*
X138655521Y-38372433D01*
X138872296Y-38520228D01*
X138872301Y-38520230D01*
X138872302Y-38520231D01*
X138872303Y-38520232D01*
X138997843Y-38580688D01*
X139108673Y-38634061D01*
X139108674Y-38634061D01*
X139108677Y-38634063D01*
X139359385Y-38711396D01*
X139618818Y-38750500D01*
X139881182Y-38750500D01*
X140140615Y-38711396D01*
X140391323Y-38634063D01*
X140627704Y-38520228D01*
X140844479Y-38372433D01*
X141036805Y-38193981D01*
X141200386Y-37988857D01*
X141331568Y-37761643D01*
X141384572Y-37626589D01*
X141427387Y-37571376D01*
X141493257Y-37548075D01*
X141561268Y-37564086D01*
X141609827Y-37614323D01*
X141615425Y-37626584D01*
X141668432Y-37761643D01*
X141799614Y-37988857D01*
X141931736Y-38154533D01*
X141963198Y-38193985D01*
X142075163Y-38297872D01*
X142155521Y-38372433D01*
X142372296Y-38520228D01*
X142372301Y-38520230D01*
X142372302Y-38520231D01*
X142372303Y-38520232D01*
X142497843Y-38580688D01*
X142608673Y-38634061D01*
X142608674Y-38634061D01*
X142608677Y-38634063D01*
X142859385Y-38711396D01*
X143118818Y-38750500D01*
X143381182Y-38750500D01*
X143640615Y-38711396D01*
X143891323Y-38634063D01*
X144127704Y-38520228D01*
X144344479Y-38372433D01*
X144536805Y-38193981D01*
X144700386Y-37988857D01*
X144831568Y-37761643D01*
X144884840Y-37625905D01*
X144927655Y-37570693D01*
X144993525Y-37547392D01*
X145061536Y-37563403D01*
X145110094Y-37613640D01*
X145115696Y-37625907D01*
X145168883Y-37761426D01*
X145300027Y-37988573D01*
X145347874Y-38048571D01*
X146110689Y-37285756D01*
X146129668Y-37331574D01*
X146206274Y-37446224D01*
X146303776Y-37543726D01*
X146418426Y-37620332D01*
X146464242Y-37639309D01*
X145700830Y-38402720D01*
X145872546Y-38519793D01*
X145872550Y-38519795D01*
X146108854Y-38633594D01*
X146108858Y-38633595D01*
X146359494Y-38710907D01*
X146359500Y-38710909D01*
X146618848Y-38749999D01*
X146618857Y-38750000D01*
X146881143Y-38750000D01*
X146881151Y-38749999D01*
X147140499Y-38710909D01*
X147140505Y-38710907D01*
X147391143Y-38633595D01*
X147627445Y-38519798D01*
X147627447Y-38519797D01*
X147799168Y-38402720D01*
X147035757Y-37639309D01*
X147081574Y-37620332D01*
X147196224Y-37543726D01*
X147293726Y-37446224D01*
X147370332Y-37331574D01*
X147389309Y-37285756D01*
X148152125Y-38048572D01*
X148199971Y-37988573D01*
X148331114Y-37761430D01*
X148384302Y-37625908D01*
X148427118Y-37570694D01*
X148492988Y-37547392D01*
X148560998Y-37563402D01*
X148609557Y-37613640D01*
X148615159Y-37625906D01*
X148633681Y-37673099D01*
X148668432Y-37761643D01*
X148799614Y-37988857D01*
X148931736Y-38154533D01*
X148963198Y-38193985D01*
X149075163Y-38297872D01*
X149155521Y-38372433D01*
X149372296Y-38520228D01*
X149372301Y-38520230D01*
X149372302Y-38520231D01*
X149372303Y-38520232D01*
X149497843Y-38580688D01*
X149608673Y-38634061D01*
X149608674Y-38634061D01*
X149608677Y-38634063D01*
X149859385Y-38711396D01*
X150118818Y-38750500D01*
X150381182Y-38750500D01*
X150640615Y-38711396D01*
X150891323Y-38634063D01*
X151127704Y-38520228D01*
X151344479Y-38372433D01*
X151536805Y-38193981D01*
X151700386Y-37988857D01*
X151831568Y-37761643D01*
X151884572Y-37626589D01*
X151927387Y-37571376D01*
X151993257Y-37548075D01*
X152061268Y-37564086D01*
X152109827Y-37614323D01*
X152115425Y-37626584D01*
X152168432Y-37761643D01*
X152299614Y-37988857D01*
X152431736Y-38154533D01*
X152463198Y-38193985D01*
X152575163Y-38297872D01*
X152655521Y-38372433D01*
X152872296Y-38520228D01*
X152872301Y-38520230D01*
X152872302Y-38520231D01*
X152872303Y-38520232D01*
X152997843Y-38580688D01*
X153108673Y-38634061D01*
X153108674Y-38634061D01*
X153108677Y-38634063D01*
X153359385Y-38711396D01*
X153618818Y-38750500D01*
X153881182Y-38750500D01*
X154140615Y-38711396D01*
X154391323Y-38634063D01*
X154627704Y-38520228D01*
X154844479Y-38372433D01*
X155036805Y-38193981D01*
X155200386Y-37988857D01*
X155331568Y-37761643D01*
X155384572Y-37626589D01*
X155427387Y-37571376D01*
X155493257Y-37548075D01*
X155561268Y-37564086D01*
X155609827Y-37614323D01*
X155615425Y-37626584D01*
X155668432Y-37761643D01*
X155799614Y-37988857D01*
X155931736Y-38154533D01*
X155963198Y-38193985D01*
X156075163Y-38297872D01*
X156155521Y-38372433D01*
X156372296Y-38520228D01*
X156372301Y-38520230D01*
X156372302Y-38520231D01*
X156372303Y-38520232D01*
X156497843Y-38580688D01*
X156608673Y-38634061D01*
X156608674Y-38634061D01*
X156608677Y-38634063D01*
X156859385Y-38711396D01*
X157118818Y-38750500D01*
X157381182Y-38750500D01*
X157640615Y-38711396D01*
X157891323Y-38634063D01*
X158127704Y-38520228D01*
X158344479Y-38372433D01*
X158536805Y-38193981D01*
X158700386Y-37988857D01*
X158831568Y-37761643D01*
X158884572Y-37626589D01*
X158927387Y-37571376D01*
X158993257Y-37548075D01*
X159061268Y-37564086D01*
X159109827Y-37614323D01*
X159115425Y-37626584D01*
X159168432Y-37761643D01*
X159299614Y-37988857D01*
X159431736Y-38154533D01*
X159463198Y-38193985D01*
X159575163Y-38297872D01*
X159655521Y-38372433D01*
X159750853Y-38437429D01*
X159795154Y-38491457D01*
X159805000Y-38539882D01*
X159805000Y-38557206D01*
X159785315Y-38624245D01*
X159768681Y-38644887D01*
X159394887Y-39018681D01*
X159333564Y-39052166D01*
X159307206Y-39055000D01*
X138406922Y-39055000D01*
X138260668Y-39084092D01*
X138224359Y-39091314D01*
X138224354Y-39091315D01*
X138052376Y-39162550D01*
X138052367Y-39162555D01*
X137897597Y-39265970D01*
X137897593Y-39265973D01*
X136265972Y-40897594D01*
X136218134Y-40969191D01*
X136180412Y-41025646D01*
X136180410Y-41025649D01*
X136172100Y-41038085D01*
X136118487Y-41082888D01*
X136049161Y-41091594D01*
X135986135Y-41061437D01*
X135949417Y-41001993D01*
X135945000Y-40969191D01*
X135945000Y-36942794D01*
X135964685Y-36875755D01*
X135981319Y-36855113D01*
X137855113Y-34981319D01*
X137916436Y-34947834D01*
X137942794Y-34945000D01*
X152057206Y-34945000D01*
X152124245Y-34964685D01*
G37*
%TD.AperFunction*%
%TA.AperFunction,Conductor*%
G36*
X203442539Y-30520185D02*
G01*
X203488294Y-30572989D01*
X203499500Y-30624500D01*
X203499500Y-85886128D01*
X203479815Y-85953167D01*
X203427011Y-85998922D01*
X203357853Y-86008866D01*
X203294297Y-85979841D01*
X203272398Y-85955019D01*
X203234029Y-85897597D01*
X203234026Y-85897593D01*
X199102406Y-81765973D01*
X199102398Y-81765967D01*
X198947626Y-81662552D01*
X198947627Y-81662552D01*
X198775646Y-81591316D01*
X198775638Y-81591314D01*
X198593077Y-81555000D01*
X198593074Y-81555000D01*
X166442794Y-81555000D01*
X166375755Y-81535315D01*
X166355113Y-81518681D01*
X164935023Y-80098591D01*
X164913349Y-80069368D01*
X164842595Y-79936996D01*
X164842592Y-79936992D01*
X164716568Y-79783431D01*
X164563005Y-79657405D01*
X164562998Y-79657401D01*
X164387808Y-79563760D01*
X164292752Y-79534925D01*
X164197701Y-79506092D01*
X164197699Y-79506091D01*
X164197701Y-79506091D01*
X164000000Y-79486620D01*
X163802300Y-79506091D01*
X163612191Y-79563760D01*
X163437001Y-79657401D01*
X163436994Y-79657405D01*
X163283431Y-79783431D01*
X163157405Y-79936994D01*
X163157401Y-79937001D01*
X163063760Y-80112191D01*
X163006091Y-80302300D01*
X162998851Y-80375809D01*
X162972689Y-80440596D01*
X162915654Y-80480955D01*
X162845854Y-80484071D01*
X162787767Y-80451335D01*
X160935023Y-78598591D01*
X160913349Y-78569368D01*
X160842595Y-78436996D01*
X160823185Y-78413345D01*
X160716568Y-78283431D01*
X160563005Y-78157405D01*
X160562998Y-78157401D01*
X160387808Y-78063760D01*
X160292752Y-78034925D01*
X160197701Y-78006092D01*
X160197699Y-78006091D01*
X160197701Y-78006091D01*
X160000000Y-77986620D01*
X159802300Y-78006091D01*
X159612191Y-78063760D01*
X159437001Y-78157401D01*
X159436994Y-78157405D01*
X159283431Y-78283431D01*
X159157405Y-78436994D01*
X159157401Y-78437001D01*
X159063760Y-78612191D01*
X159006091Y-78802300D01*
X158998851Y-78875809D01*
X158972689Y-78940596D01*
X158915654Y-78980955D01*
X158845854Y-78984071D01*
X158787767Y-78951335D01*
X156935023Y-77098591D01*
X156913349Y-77069368D01*
X156842595Y-76936996D01*
X156842592Y-76936992D01*
X156716568Y-76783431D01*
X156563005Y-76657405D01*
X156562998Y-76657401D01*
X156387808Y-76563760D01*
X156292752Y-76534925D01*
X156197701Y-76506092D01*
X156197699Y-76506091D01*
X156197701Y-76506091D01*
X156000000Y-76486620D01*
X155802300Y-76506091D01*
X155612191Y-76563760D01*
X155437001Y-76657401D01*
X155436994Y-76657405D01*
X155283431Y-76783431D01*
X155157405Y-76936994D01*
X155157401Y-76937001D01*
X155063760Y-77112191D01*
X155006091Y-77302300D01*
X154986620Y-77500000D01*
X155006091Y-77697699D01*
X155063760Y-77887808D01*
X155157401Y-78062998D01*
X155157405Y-78063005D01*
X155283431Y-78216568D01*
X155436992Y-78342592D01*
X155436996Y-78342595D01*
X155569368Y-78413349D01*
X155598591Y-78435023D01*
X163397591Y-86234024D01*
X163397594Y-86234027D01*
X163445403Y-86265972D01*
X163552368Y-86337444D01*
X163552374Y-86337447D01*
X163552375Y-86337448D01*
X163724354Y-86408684D01*
X163906921Y-86444999D01*
X163906924Y-86445000D01*
X163906926Y-86445000D01*
X197057206Y-86445000D01*
X197124245Y-86464685D01*
X197144887Y-86481319D01*
X198518681Y-87855113D01*
X198552166Y-87916436D01*
X198555000Y-87942794D01*
X198555000Y-95231860D01*
X198535315Y-95298899D01*
X198482511Y-95344654D01*
X198413353Y-95354598D01*
X198359877Y-95333435D01*
X198177834Y-95205967D01*
X198177830Y-95205965D01*
X198177828Y-95205964D01*
X197963663Y-95106097D01*
X197963659Y-95106096D01*
X197963655Y-95106094D01*
X197735413Y-95044938D01*
X197735403Y-95044936D01*
X197500001Y-95024341D01*
X197499999Y-95024341D01*
X197264596Y-95044936D01*
X197264586Y-95044938D01*
X197036344Y-95106094D01*
X197036335Y-95106098D01*
X196822171Y-95205964D01*
X196822169Y-95205965D01*
X196628597Y-95341505D01*
X196461505Y-95508597D01*
X196331575Y-95694158D01*
X196276998Y-95737783D01*
X196207500Y-95744977D01*
X196145145Y-95713454D01*
X196128425Y-95694158D01*
X195998494Y-95508597D01*
X195831402Y-95341506D01*
X195831395Y-95341501D01*
X195637834Y-95205967D01*
X195637830Y-95205965D01*
X195637828Y-95205964D01*
X195423663Y-95106097D01*
X195423659Y-95106096D01*
X195423655Y-95106094D01*
X195195413Y-95044938D01*
X195195403Y-95044936D01*
X194960001Y-95024341D01*
X194959999Y-95024341D01*
X194724596Y-95044936D01*
X194724586Y-95044938D01*
X194496344Y-95106094D01*
X194496335Y-95106098D01*
X194282171Y-95205964D01*
X194282169Y-95205965D01*
X194088597Y-95341505D01*
X193921505Y-95508597D01*
X193785965Y-95702169D01*
X193785964Y-95702171D01*
X193686098Y-95916335D01*
X193686094Y-95916344D01*
X193624938Y-96144586D01*
X193624936Y-96144596D01*
X193604341Y-96379999D01*
X193604341Y-96380000D01*
X193624936Y-96615403D01*
X193624938Y-96615413D01*
X193686094Y-96843655D01*
X193686096Y-96843659D01*
X193686097Y-96843663D01*
X193766004Y-97015023D01*
X193785965Y-97057830D01*
X193785967Y-97057834D01*
X193825318Y-97114032D01*
X193921501Y-97251396D01*
X193921506Y-97251402D01*
X194088597Y-97418493D01*
X194088603Y-97418498D01*
X194274158Y-97548425D01*
X194317783Y-97603002D01*
X194324977Y-97672500D01*
X194293454Y-97734855D01*
X194274158Y-97751575D01*
X194088597Y-97881505D01*
X193921505Y-98048597D01*
X193785965Y-98242169D01*
X193785964Y-98242171D01*
X193686098Y-98456335D01*
X193686094Y-98456344D01*
X193624938Y-98684586D01*
X193624936Y-98684596D01*
X193604341Y-98919999D01*
X193604341Y-98920000D01*
X193624936Y-99155403D01*
X193624938Y-99155413D01*
X193686094Y-99383655D01*
X193686096Y-99383659D01*
X193686097Y-99383663D01*
X193690000Y-99392032D01*
X193785965Y-99597830D01*
X193785967Y-99597834D01*
X193894281Y-99752521D01*
X193921501Y-99791396D01*
X193921506Y-99791402D01*
X194088597Y-99958493D01*
X194088603Y-99958498D01*
X194274158Y-100088425D01*
X194317783Y-100143002D01*
X194324977Y-100212500D01*
X194293454Y-100274855D01*
X194274158Y-100291575D01*
X194088597Y-100421505D01*
X193921505Y-100588597D01*
X193785965Y-100782169D01*
X193785964Y-100782171D01*
X193686098Y-100996335D01*
X193686094Y-100996344D01*
X193624938Y-101224586D01*
X193624936Y-101224596D01*
X193604341Y-101459999D01*
X193604341Y-101460000D01*
X193624936Y-101695403D01*
X193624938Y-101695413D01*
X193686094Y-101923655D01*
X193686096Y-101923659D01*
X193686097Y-101923663D01*
X193690000Y-101932032D01*
X193785965Y-102137830D01*
X193785967Y-102137834D01*
X193855502Y-102237139D01*
X193921501Y-102331396D01*
X193921506Y-102331402D01*
X194088597Y-102498493D01*
X194088603Y-102498498D01*
X194274158Y-102628425D01*
X194317783Y-102683002D01*
X194324977Y-102752500D01*
X194293454Y-102814855D01*
X194274158Y-102831575D01*
X194088597Y-102961505D01*
X193921505Y-103128597D01*
X193785965Y-103322169D01*
X193785964Y-103322171D01*
X193686098Y-103536335D01*
X193686094Y-103536344D01*
X193624938Y-103764586D01*
X193624936Y-103764596D01*
X193604341Y-103999999D01*
X193604341Y-104000000D01*
X193624936Y-104235403D01*
X193624938Y-104235413D01*
X193686094Y-104463655D01*
X193686096Y-104463659D01*
X193686097Y-104463663D01*
X193766004Y-104635023D01*
X193785965Y-104677830D01*
X193785967Y-104677834D01*
X193855500Y-104777136D01*
X193921505Y-104871401D01*
X194088599Y-105038495D01*
X194274594Y-105168730D01*
X194318218Y-105223307D01*
X194325411Y-105292806D01*
X194293889Y-105355160D01*
X194274593Y-105371880D01*
X194198626Y-105425072D01*
X194198625Y-105425072D01*
X194830590Y-106057037D01*
X194767007Y-106074075D01*
X194652993Y-106139901D01*
X194559901Y-106232993D01*
X194494075Y-106347007D01*
X194477037Y-106410589D01*
X193845073Y-105778625D01*
X193845072Y-105778625D01*
X193786401Y-105862419D01*
X193686570Y-106076507D01*
X193686566Y-106076516D01*
X193625432Y-106304673D01*
X193625430Y-106304684D01*
X193604843Y-106539998D01*
X193604843Y-106540001D01*
X193625430Y-106775315D01*
X193625432Y-106775326D01*
X193686566Y-107003483D01*
X193686570Y-107003492D01*
X193786400Y-107217579D01*
X193786402Y-107217583D01*
X193845072Y-107301373D01*
X193845073Y-107301373D01*
X194477037Y-106669409D01*
X194494075Y-106732993D01*
X194559901Y-106847007D01*
X194652993Y-106940099D01*
X194767007Y-107005925D01*
X194830590Y-107022962D01*
X194198625Y-107654925D01*
X194282421Y-107713599D01*
X194496507Y-107813429D01*
X194496516Y-107813433D01*
X194724673Y-107874567D01*
X194724684Y-107874569D01*
X194959998Y-107895157D01*
X194960002Y-107895157D01*
X195195315Y-107874569D01*
X195195326Y-107874567D01*
X195423483Y-107813433D01*
X195423492Y-107813429D01*
X195637578Y-107713600D01*
X195637582Y-107713598D01*
X195721373Y-107654926D01*
X195721373Y-107654925D01*
X195089409Y-107022962D01*
X195152993Y-107005925D01*
X195267007Y-106940099D01*
X195360099Y-106847007D01*
X195425925Y-106732993D01*
X195442962Y-106669410D01*
X196079341Y-107305789D01*
X196131191Y-107316209D01*
X196181375Y-107364823D01*
X196191205Y-107386966D01*
X196215186Y-107459334D01*
X196307288Y-107608656D01*
X196431344Y-107732712D01*
X196580666Y-107824814D01*
X196747203Y-107879999D01*
X196849991Y-107890500D01*
X198150008Y-107890499D01*
X198252797Y-107879999D01*
X198419334Y-107824814D01*
X198568656Y-107732712D01*
X198692712Y-107608656D01*
X198784814Y-107459334D01*
X198839999Y-107292797D01*
X198850500Y-107190009D01*
X198850499Y-105889992D01*
X198839999Y-105787203D01*
X198784814Y-105620666D01*
X198692712Y-105471344D01*
X198568656Y-105347288D01*
X198419334Y-105255186D01*
X198410733Y-105252336D01*
X198353290Y-105212564D01*
X198326467Y-105148048D01*
X198338782Y-105079272D01*
X198367767Y-105042517D01*
X198367573Y-105042323D01*
X198369219Y-105040676D01*
X198370040Y-105039636D01*
X198371388Y-105038504D01*
X198371401Y-105038495D01*
X198428577Y-104981319D01*
X198489900Y-104947834D01*
X198516258Y-104945000D01*
X199593076Y-104945000D01*
X199593077Y-104944999D01*
X199775646Y-104908684D01*
X199947625Y-104837448D01*
X200037884Y-104777139D01*
X200102403Y-104734029D01*
X203234029Y-101602402D01*
X203272398Y-101544979D01*
X203326010Y-101500174D01*
X203395335Y-101491467D01*
X203458362Y-101521621D01*
X203495082Y-101581064D01*
X203499500Y-101613870D01*
X203499500Y-113646628D01*
X203479815Y-113713667D01*
X203427011Y-113759422D01*
X203357853Y-113769366D01*
X203297466Y-113742995D01*
X203280368Y-113729150D01*
X202972656Y-113529320D01*
X202645739Y-113362746D01*
X202303206Y-113231260D01*
X202303199Y-113231258D01*
X201948794Y-113136295D01*
X201948790Y-113136294D01*
X201948789Y-113136294D01*
X201586405Y-113078898D01*
X201220001Y-113059696D01*
X201219999Y-113059696D01*
X200853594Y-113078898D01*
X200491211Y-113136294D01*
X200491209Y-113136294D01*
X200136793Y-113231260D01*
X199794260Y-113362746D01*
X199467343Y-113529320D01*
X199159635Y-113729147D01*
X198874498Y-113960047D01*
X198874490Y-113960054D01*
X198615054Y-114219490D01*
X198615047Y-114219498D01*
X198384147Y-114504635D01*
X198184320Y-114812343D01*
X198017746Y-115139260D01*
X197886260Y-115481793D01*
X197791294Y-115836209D01*
X197791294Y-115836211D01*
X197733898Y-116198594D01*
X197714696Y-116564999D01*
X197714696Y-116565000D01*
X197733898Y-116931405D01*
X197791294Y-117293788D01*
X197791294Y-117293790D01*
X197886260Y-117648206D01*
X198017746Y-117990739D01*
X198184317Y-118317651D01*
X198384147Y-118625364D01*
X198384149Y-118625366D01*
X198615051Y-118910506D01*
X198874494Y-119169949D01*
X198874498Y-119169952D01*
X199159635Y-119400852D01*
X199467343Y-119600679D01*
X199467348Y-119600682D01*
X199794264Y-119767255D01*
X200136801Y-119898742D01*
X200491206Y-119993705D01*
X200853596Y-120051102D01*
X201199734Y-120069241D01*
X201219999Y-120070304D01*
X201220000Y-120070304D01*
X201220001Y-120070304D01*
X201239203Y-120069297D01*
X201586404Y-120051102D01*
X201948794Y-119993705D01*
X202303199Y-119898742D01*
X202645736Y-119767255D01*
X202972652Y-119600682D01*
X203280366Y-119400851D01*
X203297465Y-119387003D01*
X203361950Y-119360113D01*
X203430739Y-119372354D01*
X203481990Y-119419842D01*
X203499500Y-119483370D01*
X203499500Y-137375500D01*
X203479815Y-137442539D01*
X203427011Y-137488294D01*
X203375500Y-137499500D01*
X100624500Y-137499500D01*
X100557461Y-137479815D01*
X100511706Y-137427011D01*
X100500500Y-137375500D01*
X100500500Y-129702135D01*
X102749500Y-129702135D01*
X102749500Y-132297870D01*
X102749501Y-132297876D01*
X102755908Y-132357483D01*
X102806202Y-132492328D01*
X102806206Y-132492335D01*
X102892452Y-132607544D01*
X102892455Y-132607547D01*
X103007664Y-132693793D01*
X103007671Y-132693797D01*
X103142517Y-132744091D01*
X103142516Y-132744091D01*
X103149444Y-132744835D01*
X103202127Y-132750500D01*
X105797872Y-132750499D01*
X105857483Y-132744091D01*
X105992331Y-132693796D01*
X106107546Y-132607546D01*
X106193796Y-132492331D01*
X106244091Y-132357483D01*
X106250500Y-132297873D01*
X106250499Y-131933546D01*
X106270183Y-131866510D01*
X106322987Y-131820755D01*
X106392146Y-131810811D01*
X106455701Y-131839836D01*
X106481886Y-131871549D01*
X106549614Y-131988857D01*
X106681736Y-132154533D01*
X106713198Y-132193985D01*
X106825163Y-132297872D01*
X106905521Y-132372433D01*
X107122296Y-132520228D01*
X107122301Y-132520230D01*
X107122302Y-132520231D01*
X107122303Y-132520232D01*
X107247843Y-132580688D01*
X107358673Y-132634061D01*
X107358674Y-132634061D01*
X107358677Y-132634063D01*
X107609385Y-132711396D01*
X107868818Y-132750500D01*
X108131182Y-132750500D01*
X108390615Y-132711396D01*
X108641323Y-132634063D01*
X108877704Y-132520228D01*
X109094479Y-132372433D01*
X109286805Y-132193981D01*
X109450386Y-131988857D01*
X109581568Y-131761643D01*
X109634572Y-131626589D01*
X109677387Y-131571376D01*
X109743257Y-131548075D01*
X109811268Y-131564086D01*
X109859827Y-131614323D01*
X109865425Y-131626584D01*
X109918432Y-131761643D01*
X110049614Y-131988857D01*
X110181736Y-132154533D01*
X110213198Y-132193985D01*
X110325163Y-132297872D01*
X110405521Y-132372433D01*
X110622296Y-132520228D01*
X110622301Y-132520230D01*
X110622302Y-132520231D01*
X110622303Y-132520232D01*
X110747843Y-132580688D01*
X110858673Y-132634061D01*
X110858674Y-132634061D01*
X110858677Y-132634063D01*
X111109385Y-132711396D01*
X111368818Y-132750500D01*
X111631182Y-132750500D01*
X111890615Y-132711396D01*
X112141323Y-132634063D01*
X112377704Y-132520228D01*
X112594479Y-132372433D01*
X112786805Y-132193981D01*
X112950386Y-131988857D01*
X113081568Y-131761643D01*
X113134572Y-131626589D01*
X113177387Y-131571376D01*
X113243257Y-131548075D01*
X113311268Y-131564086D01*
X113359827Y-131614323D01*
X113365425Y-131626584D01*
X113418432Y-131761643D01*
X113549614Y-131988857D01*
X113681736Y-132154533D01*
X113713198Y-132193985D01*
X113825163Y-132297872D01*
X113905521Y-132372433D01*
X114122296Y-132520228D01*
X114122301Y-132520230D01*
X114122302Y-132520231D01*
X114122303Y-132520232D01*
X114247843Y-132580688D01*
X114358673Y-132634061D01*
X114358674Y-132634061D01*
X114358677Y-132634063D01*
X114609385Y-132711396D01*
X114868818Y-132750500D01*
X115131182Y-132750500D01*
X115390615Y-132711396D01*
X115641323Y-132634063D01*
X115877704Y-132520228D01*
X116094479Y-132372433D01*
X116286805Y-132193981D01*
X116450386Y-131988857D01*
X116581568Y-131761643D01*
X116634572Y-131626589D01*
X116677387Y-131571376D01*
X116743257Y-131548075D01*
X116811268Y-131564086D01*
X116859827Y-131614323D01*
X116865425Y-131626584D01*
X116918432Y-131761643D01*
X117049614Y-131988857D01*
X117181736Y-132154533D01*
X117213198Y-132193985D01*
X117325163Y-132297872D01*
X117405521Y-132372433D01*
X117622296Y-132520228D01*
X117622301Y-132520230D01*
X117622302Y-132520231D01*
X117622303Y-132520232D01*
X117747843Y-132580688D01*
X117858673Y-132634061D01*
X117858674Y-132634061D01*
X117858677Y-132634063D01*
X118109385Y-132711396D01*
X118368818Y-132750500D01*
X118631182Y-132750500D01*
X118890615Y-132711396D01*
X119141323Y-132634063D01*
X119377704Y-132520228D01*
X119594479Y-132372433D01*
X119786805Y-132193981D01*
X119950386Y-131988857D01*
X120081568Y-131761643D01*
X120134572Y-131626589D01*
X120177387Y-131571376D01*
X120243257Y-131548075D01*
X120311268Y-131564086D01*
X120359827Y-131614323D01*
X120365425Y-131626584D01*
X120418432Y-131761643D01*
X120549614Y-131988857D01*
X120681736Y-132154533D01*
X120713198Y-132193985D01*
X120825163Y-132297872D01*
X120905521Y-132372433D01*
X121122296Y-132520228D01*
X121122301Y-132520230D01*
X121122302Y-132520231D01*
X121122303Y-132520232D01*
X121247843Y-132580688D01*
X121358673Y-132634061D01*
X121358674Y-132634061D01*
X121358677Y-132634063D01*
X121609385Y-132711396D01*
X121868818Y-132750500D01*
X122131182Y-132750500D01*
X122390615Y-132711396D01*
X122641323Y-132634063D01*
X122877704Y-132520228D01*
X123094479Y-132372433D01*
X123286805Y-132193981D01*
X123450386Y-131988857D01*
X123581568Y-131761643D01*
X123634572Y-131626589D01*
X123677387Y-131571376D01*
X123743257Y-131548075D01*
X123811268Y-131564086D01*
X123859827Y-131614323D01*
X123865425Y-131626584D01*
X123918432Y-131761643D01*
X124049614Y-131988857D01*
X124181736Y-132154533D01*
X124213198Y-132193985D01*
X124325163Y-132297872D01*
X124405521Y-132372433D01*
X124622296Y-132520228D01*
X124622301Y-132520230D01*
X124622302Y-132520231D01*
X124622303Y-132520232D01*
X124747843Y-132580688D01*
X124858673Y-132634061D01*
X124858674Y-132634061D01*
X124858677Y-132634063D01*
X125109385Y-132711396D01*
X125368818Y-132750500D01*
X125631182Y-132750500D01*
X125890615Y-132711396D01*
X126141323Y-132634063D01*
X126377704Y-132520228D01*
X126594479Y-132372433D01*
X126786805Y-132193981D01*
X126950386Y-131988857D01*
X127081568Y-131761643D01*
X127134840Y-131625905D01*
X127177655Y-131570693D01*
X127243525Y-131547392D01*
X127311536Y-131563403D01*
X127360094Y-131613640D01*
X127365696Y-131625907D01*
X127418883Y-131761426D01*
X127550027Y-131988573D01*
X127597874Y-132048571D01*
X128360689Y-131285756D01*
X128379668Y-131331574D01*
X128456274Y-131446224D01*
X128553776Y-131543726D01*
X128668426Y-131620332D01*
X128714242Y-131639309D01*
X127950830Y-132402720D01*
X128122546Y-132519793D01*
X128122550Y-132519795D01*
X128358854Y-132633594D01*
X128358858Y-132633595D01*
X128609494Y-132710907D01*
X128609500Y-132710909D01*
X128868848Y-132749999D01*
X128868857Y-132750000D01*
X129131143Y-132750000D01*
X129131151Y-132749999D01*
X129390499Y-132710909D01*
X129390505Y-132710907D01*
X129641143Y-132633595D01*
X129877445Y-132519798D01*
X129877447Y-132519797D01*
X130049168Y-132402720D01*
X129285757Y-131639309D01*
X129331574Y-131620332D01*
X129446224Y-131543726D01*
X129543726Y-131446224D01*
X129620332Y-131331574D01*
X129639309Y-131285756D01*
X130402125Y-132048572D01*
X130449971Y-131988573D01*
X130581116Y-131761426D01*
X130676941Y-131517270D01*
X130735306Y-131261550D01*
X130735307Y-131261545D01*
X130754907Y-131000004D01*
X130754907Y-130999995D01*
X130735307Y-130738454D01*
X130735306Y-130738449D01*
X130676941Y-130482729D01*
X130581116Y-130238573D01*
X130581117Y-130238573D01*
X130449972Y-130011426D01*
X130402124Y-129951427D01*
X129639309Y-130714242D01*
X129620332Y-130668426D01*
X129543726Y-130553776D01*
X129446224Y-130456274D01*
X129331574Y-130379668D01*
X129285757Y-130360690D01*
X130049168Y-129597278D01*
X129877454Y-129480206D01*
X129877445Y-129480201D01*
X129641142Y-129366404D01*
X129641144Y-129366404D01*
X129390505Y-129289092D01*
X129390499Y-129289090D01*
X129131151Y-129250000D01*
X128868848Y-129250000D01*
X128609500Y-129289090D01*
X128609494Y-129289092D01*
X128358858Y-129366404D01*
X128358854Y-129366405D01*
X128122547Y-129480205D01*
X128122539Y-129480210D01*
X127950830Y-129597277D01*
X128714243Y-130360690D01*
X128668426Y-130379668D01*
X128553776Y-130456274D01*
X128456274Y-130553776D01*
X128379668Y-130668426D01*
X128360690Y-130714242D01*
X127597874Y-129951427D01*
X127550028Y-130011425D01*
X127418883Y-130238573D01*
X127365696Y-130374092D01*
X127322880Y-130429306D01*
X127257010Y-130452607D01*
X127189000Y-130436596D01*
X127140441Y-130386358D01*
X127134840Y-130374092D01*
X127105761Y-130300000D01*
X127081568Y-130238357D01*
X126950386Y-130011143D01*
X126786805Y-129806019D01*
X126786804Y-129806018D01*
X126786801Y-129806014D01*
X126610590Y-129642516D01*
X126594479Y-129627567D01*
X126594475Y-129627564D01*
X126594468Y-129627559D01*
X126499148Y-129562570D01*
X126454846Y-129508541D01*
X126445000Y-129460117D01*
X126445000Y-125202135D01*
X168749500Y-125202135D01*
X168749500Y-127797870D01*
X168749501Y-127797876D01*
X168755908Y-127857483D01*
X168806202Y-127992328D01*
X168806206Y-127992335D01*
X168892452Y-128107544D01*
X168892455Y-128107547D01*
X169007664Y-128193793D01*
X169007671Y-128193797D01*
X169142517Y-128244091D01*
X169142516Y-128244091D01*
X169149444Y-128244835D01*
X169202127Y-128250500D01*
X171797872Y-128250499D01*
X171857483Y-128244091D01*
X171992331Y-128193796D01*
X172107546Y-128107546D01*
X172193796Y-127992331D01*
X172244091Y-127857483D01*
X172250500Y-127797873D01*
X172250499Y-127433546D01*
X172270183Y-127366510D01*
X172322987Y-127320755D01*
X172392146Y-127310811D01*
X172455701Y-127339836D01*
X172481886Y-127371549D01*
X172549614Y-127488857D01*
X172681736Y-127654533D01*
X172713198Y-127693985D01*
X172825163Y-127797872D01*
X172905521Y-127872433D01*
X173122296Y-128020228D01*
X173122301Y-128020230D01*
X173122302Y-128020231D01*
X173122303Y-128020232D01*
X173247843Y-128080688D01*
X173358673Y-128134061D01*
X173358674Y-128134061D01*
X173358677Y-128134063D01*
X173609385Y-128211396D01*
X173868818Y-128250500D01*
X174131182Y-128250500D01*
X174390615Y-128211396D01*
X174641323Y-128134063D01*
X174877704Y-128020228D01*
X175094479Y-127872433D01*
X175286805Y-127693981D01*
X175450386Y-127488857D01*
X175581568Y-127261643D01*
X175634572Y-127126589D01*
X175677387Y-127071376D01*
X175743257Y-127048075D01*
X175811268Y-127064086D01*
X175859827Y-127114323D01*
X175865425Y-127126584D01*
X175918432Y-127261643D01*
X176049614Y-127488857D01*
X176181736Y-127654533D01*
X176213198Y-127693985D01*
X176325163Y-127797872D01*
X176405521Y-127872433D01*
X176622296Y-128020228D01*
X176622301Y-128020230D01*
X176622302Y-128020231D01*
X176622303Y-128020232D01*
X176747843Y-128080688D01*
X176858673Y-128134061D01*
X176858674Y-128134061D01*
X176858677Y-128134063D01*
X177109385Y-128211396D01*
X177368818Y-128250500D01*
X177631182Y-128250500D01*
X177890615Y-128211396D01*
X178141323Y-128134063D01*
X178377704Y-128020228D01*
X178594479Y-127872433D01*
X178786805Y-127693981D01*
X178950386Y-127488857D01*
X179081568Y-127261643D01*
X179134572Y-127126589D01*
X179177387Y-127071376D01*
X179243257Y-127048075D01*
X179311268Y-127064086D01*
X179359827Y-127114323D01*
X179365425Y-127126584D01*
X179418432Y-127261643D01*
X179549614Y-127488857D01*
X179681736Y-127654533D01*
X179713198Y-127693985D01*
X179825163Y-127797872D01*
X179905521Y-127872433D01*
X180122296Y-128020228D01*
X180122301Y-128020230D01*
X180122302Y-128020231D01*
X180122303Y-128020232D01*
X180247843Y-128080688D01*
X180358673Y-128134061D01*
X180358674Y-128134061D01*
X180358677Y-128134063D01*
X180609385Y-128211396D01*
X180868818Y-128250500D01*
X181131182Y-128250500D01*
X181390615Y-128211396D01*
X181641323Y-128134063D01*
X181877704Y-128020228D01*
X182094479Y-127872433D01*
X182286805Y-127693981D01*
X182450386Y-127488857D01*
X182581568Y-127261643D01*
X182634572Y-127126589D01*
X182677387Y-127071376D01*
X182743257Y-127048075D01*
X182811268Y-127064086D01*
X182859827Y-127114323D01*
X182865425Y-127126584D01*
X182918432Y-127261643D01*
X183049614Y-127488857D01*
X183181736Y-127654533D01*
X183213198Y-127693985D01*
X183325163Y-127797872D01*
X183405521Y-127872433D01*
X183622296Y-128020228D01*
X183622301Y-128020230D01*
X183622302Y-128020231D01*
X183622303Y-128020232D01*
X183747843Y-128080688D01*
X183858673Y-128134061D01*
X183858674Y-128134061D01*
X183858677Y-128134063D01*
X184109385Y-128211396D01*
X184368818Y-128250500D01*
X184631182Y-128250500D01*
X184890615Y-128211396D01*
X185141323Y-128134063D01*
X185377704Y-128020228D01*
X185594479Y-127872433D01*
X185786805Y-127693981D01*
X185950386Y-127488857D01*
X186081568Y-127261643D01*
X186134840Y-127125905D01*
X186177655Y-127070693D01*
X186243525Y-127047392D01*
X186311536Y-127063403D01*
X186360094Y-127113640D01*
X186365696Y-127125907D01*
X186418883Y-127261426D01*
X186550027Y-127488573D01*
X186597874Y-127548571D01*
X187360689Y-126785756D01*
X187379668Y-126831574D01*
X187456274Y-126946224D01*
X187553776Y-127043726D01*
X187668426Y-127120332D01*
X187714242Y-127139309D01*
X186950830Y-127902720D01*
X187122546Y-128019793D01*
X187122550Y-128019795D01*
X187358854Y-128133594D01*
X187358858Y-128133595D01*
X187609494Y-128210907D01*
X187609500Y-128210909D01*
X187868848Y-128249999D01*
X187868857Y-128250000D01*
X188131143Y-128250000D01*
X188131151Y-128249999D01*
X188390499Y-128210909D01*
X188390505Y-128210907D01*
X188641143Y-128133595D01*
X188877445Y-128019798D01*
X188877447Y-128019797D01*
X189049168Y-127902720D01*
X188285757Y-127139309D01*
X188331574Y-127120332D01*
X188446224Y-127043726D01*
X188543726Y-126946224D01*
X188620332Y-126831574D01*
X188639309Y-126785756D01*
X189402125Y-127548572D01*
X189449971Y-127488573D01*
X189581116Y-127261426D01*
X189676941Y-127017270D01*
X189735306Y-126761550D01*
X189735307Y-126761545D01*
X189754907Y-126500004D01*
X189754907Y-126499995D01*
X189735307Y-126238454D01*
X189735306Y-126238449D01*
X189676941Y-125982729D01*
X189581116Y-125738573D01*
X189581117Y-125738573D01*
X189449972Y-125511426D01*
X189402124Y-125451427D01*
X188639309Y-126214242D01*
X188620332Y-126168426D01*
X188543726Y-126053776D01*
X188446224Y-125956274D01*
X188331574Y-125879668D01*
X188285757Y-125860690D01*
X189049168Y-125097278D01*
X188877454Y-124980206D01*
X188877445Y-124980201D01*
X188641142Y-124866404D01*
X188641144Y-124866404D01*
X188390505Y-124789092D01*
X188390499Y-124789090D01*
X188131151Y-124750000D01*
X187868848Y-124750000D01*
X187609500Y-124789090D01*
X187609494Y-124789092D01*
X187358858Y-124866404D01*
X187358854Y-124866405D01*
X187122547Y-124980205D01*
X187122539Y-124980210D01*
X186950830Y-125097277D01*
X187714243Y-125860690D01*
X187668426Y-125879668D01*
X187553776Y-125956274D01*
X187456274Y-126053776D01*
X187379668Y-126168426D01*
X187360690Y-126214242D01*
X186597875Y-125451427D01*
X186597874Y-125451427D01*
X186550028Y-125511425D01*
X186418883Y-125738573D01*
X186365696Y-125874092D01*
X186322880Y-125929306D01*
X186257010Y-125952607D01*
X186189000Y-125936596D01*
X186140441Y-125886358D01*
X186134840Y-125874092D01*
X186105761Y-125800000D01*
X186081568Y-125738357D01*
X185950386Y-125511143D01*
X185786805Y-125306019D01*
X185786804Y-125306018D01*
X185786801Y-125306014D01*
X185610590Y-125142516D01*
X185594479Y-125127567D01*
X185594475Y-125127564D01*
X185594468Y-125127559D01*
X185499148Y-125062570D01*
X185454846Y-125008541D01*
X185445000Y-124960117D01*
X185445000Y-91877323D01*
X185450339Y-91841328D01*
X185493908Y-91697701D01*
X185513380Y-91500000D01*
X185493908Y-91302299D01*
X185436241Y-91112196D01*
X185436239Y-91112193D01*
X185436239Y-91112191D01*
X185342598Y-90937001D01*
X185342594Y-90936994D01*
X185216568Y-90783431D01*
X185063005Y-90657405D01*
X185062998Y-90657401D01*
X184887808Y-90563760D01*
X184792752Y-90534925D01*
X184697701Y-90506092D01*
X184697699Y-90506091D01*
X184697701Y-90506091D01*
X184500000Y-90486620D01*
X184302300Y-90506091D01*
X184112191Y-90563760D01*
X183937001Y-90657401D01*
X183936994Y-90657405D01*
X183783431Y-90783431D01*
X183657405Y-90936994D01*
X183657401Y-90937001D01*
X183563760Y-91112191D01*
X183506091Y-91302300D01*
X183486620Y-91500000D01*
X183506091Y-91697699D01*
X183549661Y-91841328D01*
X183555000Y-91877323D01*
X183555000Y-124960117D01*
X183535315Y-125027156D01*
X183500852Y-125062570D01*
X183405531Y-125127559D01*
X183405524Y-125127564D01*
X183213198Y-125306014D01*
X183049614Y-125511143D01*
X182918432Y-125738356D01*
X182865428Y-125873409D01*
X182822612Y-125928623D01*
X182756742Y-125951924D01*
X182688732Y-125935913D01*
X182640173Y-125885675D01*
X182634572Y-125873409D01*
X182605761Y-125800000D01*
X182581568Y-125738357D01*
X182450386Y-125511143D01*
X182286805Y-125306019D01*
X182286804Y-125306018D01*
X182286801Y-125306014D01*
X182110590Y-125142516D01*
X182094479Y-125127567D01*
X182094475Y-125127564D01*
X182094468Y-125127559D01*
X181999148Y-125062570D01*
X181954846Y-125008541D01*
X181945000Y-124960117D01*
X181945000Y-91877323D01*
X181950339Y-91841328D01*
X181993908Y-91697701D01*
X182013380Y-91500000D01*
X181993908Y-91302299D01*
X181936241Y-91112196D01*
X181936239Y-91112193D01*
X181936239Y-91112191D01*
X181842598Y-90937001D01*
X181842594Y-90936994D01*
X181716568Y-90783431D01*
X181563005Y-90657405D01*
X181562998Y-90657401D01*
X181387808Y-90563760D01*
X181292752Y-90534925D01*
X181197701Y-90506092D01*
X181197699Y-90506091D01*
X181197701Y-90506091D01*
X181000000Y-90486620D01*
X180802300Y-90506091D01*
X180612191Y-90563760D01*
X180437001Y-90657401D01*
X180436994Y-90657405D01*
X180283431Y-90783431D01*
X180157405Y-90936994D01*
X180157401Y-90937001D01*
X180063760Y-91112191D01*
X180006091Y-91302300D01*
X179986620Y-91500000D01*
X180006091Y-91697699D01*
X180049661Y-91841328D01*
X180055000Y-91877323D01*
X180055000Y-124960117D01*
X180035315Y-125027156D01*
X180000852Y-125062570D01*
X179905531Y-125127559D01*
X179905524Y-125127564D01*
X179713198Y-125306014D01*
X179549614Y-125511143D01*
X179418432Y-125738356D01*
X179365428Y-125873409D01*
X179322612Y-125928623D01*
X179256742Y-125951924D01*
X179188732Y-125935913D01*
X179140173Y-125885675D01*
X179134572Y-125873409D01*
X179105761Y-125800000D01*
X179081568Y-125738357D01*
X178950386Y-125511143D01*
X178786805Y-125306019D01*
X178786804Y-125306018D01*
X178786801Y-125306014D01*
X178610590Y-125142516D01*
X178594479Y-125127567D01*
X178594475Y-125127564D01*
X178594468Y-125127559D01*
X178499148Y-125062570D01*
X178454846Y-125008541D01*
X178445000Y-124960117D01*
X178445000Y-91877323D01*
X178450339Y-91841328D01*
X178493908Y-91697701D01*
X178513380Y-91500000D01*
X178493908Y-91302299D01*
X178436241Y-91112196D01*
X178436239Y-91112193D01*
X178436239Y-91112191D01*
X178342598Y-90937001D01*
X178342594Y-90936994D01*
X178216568Y-90783431D01*
X178063005Y-90657405D01*
X178062998Y-90657401D01*
X177887808Y-90563760D01*
X177792752Y-90534925D01*
X177697701Y-90506092D01*
X177697699Y-90506091D01*
X177697701Y-90506091D01*
X177500000Y-90486620D01*
X177302300Y-90506091D01*
X177112191Y-90563760D01*
X176937001Y-90657401D01*
X176936994Y-90657405D01*
X176783431Y-90783431D01*
X176657405Y-90936994D01*
X176657401Y-90937001D01*
X176563760Y-91112191D01*
X176506091Y-91302300D01*
X176486620Y-91500000D01*
X176506091Y-91697699D01*
X176549661Y-91841328D01*
X176555000Y-91877323D01*
X176555000Y-124960117D01*
X176535315Y-125027156D01*
X176500852Y-125062570D01*
X176405531Y-125127559D01*
X176405524Y-125127564D01*
X176213198Y-125306014D01*
X176049614Y-125511143D01*
X175918432Y-125738356D01*
X175865428Y-125873409D01*
X175822612Y-125928623D01*
X175756742Y-125951924D01*
X175688732Y-125935913D01*
X175640173Y-125885675D01*
X175634572Y-125873409D01*
X175605761Y-125800000D01*
X175581568Y-125738357D01*
X175450386Y-125511143D01*
X175286805Y-125306019D01*
X175286804Y-125306018D01*
X175286801Y-125306014D01*
X175110590Y-125142516D01*
X175094479Y-125127567D01*
X175094475Y-125127564D01*
X175094468Y-125127559D01*
X174999148Y-125062570D01*
X174954846Y-125008541D01*
X174945000Y-124960117D01*
X174945000Y-91877323D01*
X174950339Y-91841328D01*
X174993908Y-91697701D01*
X175013380Y-91500000D01*
X174993908Y-91302299D01*
X174936241Y-91112196D01*
X174936239Y-91112193D01*
X174936239Y-91112191D01*
X174842598Y-90937001D01*
X174842594Y-90936994D01*
X174716568Y-90783431D01*
X174563005Y-90657405D01*
X174562998Y-90657401D01*
X174387808Y-90563760D01*
X174292752Y-90534925D01*
X174197701Y-90506092D01*
X174197699Y-90506091D01*
X174197701Y-90506091D01*
X174000000Y-90486620D01*
X173802300Y-90506091D01*
X173612191Y-90563760D01*
X173437001Y-90657401D01*
X173436994Y-90657405D01*
X173283431Y-90783431D01*
X173157405Y-90936994D01*
X173157401Y-90937001D01*
X173063760Y-91112191D01*
X173006091Y-91302300D01*
X172986620Y-91500000D01*
X173006091Y-91697699D01*
X173049661Y-91841328D01*
X173055000Y-91877323D01*
X173055000Y-124960117D01*
X173035315Y-125027156D01*
X173000852Y-125062570D01*
X172905531Y-125127559D01*
X172905524Y-125127564D01*
X172713198Y-125306014D01*
X172549614Y-125511143D01*
X172481886Y-125628451D01*
X172431319Y-125676667D01*
X172362712Y-125689889D01*
X172297847Y-125663921D01*
X172257319Y-125607007D01*
X172250499Y-125566451D01*
X172250499Y-125202129D01*
X172250498Y-125202123D01*
X172250497Y-125202116D01*
X172244091Y-125142517D01*
X172193796Y-125007669D01*
X172193795Y-125007668D01*
X172193793Y-125007664D01*
X172107547Y-124892455D01*
X172107544Y-124892452D01*
X171992335Y-124806206D01*
X171992328Y-124806202D01*
X171857482Y-124755908D01*
X171857483Y-124755908D01*
X171797883Y-124749501D01*
X171797881Y-124749500D01*
X171797873Y-124749500D01*
X171797864Y-124749500D01*
X169202129Y-124749500D01*
X169202123Y-124749501D01*
X169142516Y-124755908D01*
X169007671Y-124806202D01*
X169007664Y-124806206D01*
X168892455Y-124892452D01*
X168892452Y-124892455D01*
X168806206Y-125007664D01*
X168806202Y-125007671D01*
X168755908Y-125142517D01*
X168749501Y-125202116D01*
X168749501Y-125202123D01*
X168749500Y-125202135D01*
X126445000Y-125202135D01*
X126445000Y-121442794D01*
X126464685Y-121375755D01*
X126481319Y-121355113D01*
X129355113Y-118481319D01*
X129416436Y-118447834D01*
X129442794Y-118445000D01*
X168093076Y-118445000D01*
X168093077Y-118444999D01*
X168275646Y-118408684D01*
X168447625Y-118337448D01*
X168477252Y-118317652D01*
X168602403Y-118234029D01*
X171734029Y-115102402D01*
X171837448Y-114947625D01*
X171908684Y-114775646D01*
X171945000Y-114593074D01*
X171945000Y-114406925D01*
X171945000Y-91877323D01*
X171950339Y-91841328D01*
X171993908Y-91697701D01*
X172013380Y-91500000D01*
X171993908Y-91302299D01*
X171936241Y-91112196D01*
X171936239Y-91112193D01*
X171936239Y-91112191D01*
X171842598Y-90937001D01*
X171842594Y-90936994D01*
X171716568Y-90783431D01*
X171563005Y-90657405D01*
X171562998Y-90657401D01*
X171387808Y-90563760D01*
X171292752Y-90534925D01*
X171197701Y-90506092D01*
X171197699Y-90506091D01*
X171197701Y-90506091D01*
X171000000Y-90486620D01*
X170802300Y-90506091D01*
X170612191Y-90563760D01*
X170437001Y-90657401D01*
X170436994Y-90657405D01*
X170283431Y-90783431D01*
X170157405Y-90936994D01*
X170157401Y-90937001D01*
X170063760Y-91112191D01*
X170006091Y-91302300D01*
X169986620Y-91500000D01*
X170006091Y-91697699D01*
X170049661Y-91841328D01*
X170055000Y-91877323D01*
X170055000Y-114057206D01*
X170035315Y-114124245D01*
X170018681Y-114144887D01*
X167644887Y-116518681D01*
X167583564Y-116552166D01*
X167557206Y-116555000D01*
X128906922Y-116555000D01*
X128760668Y-116584092D01*
X128724359Y-116591314D01*
X128724354Y-116591315D01*
X128653117Y-116620823D01*
X128552374Y-116662552D01*
X128542221Y-116669337D01*
X128542209Y-116669343D01*
X128397601Y-116765967D01*
X128397593Y-116765973D01*
X124765973Y-120397593D01*
X124765967Y-120397601D01*
X124662552Y-120552372D01*
X124591316Y-120724353D01*
X124591314Y-120724361D01*
X124555000Y-120906921D01*
X124555000Y-129460117D01*
X124535315Y-129527156D01*
X124500852Y-129562570D01*
X124405531Y-129627559D01*
X124405524Y-129627564D01*
X124213198Y-129806014D01*
X124049614Y-130011143D01*
X123918432Y-130238356D01*
X123865428Y-130373409D01*
X123822612Y-130428623D01*
X123756742Y-130451924D01*
X123688732Y-130435913D01*
X123640173Y-130385675D01*
X123634572Y-130373409D01*
X123605761Y-130300000D01*
X123581568Y-130238357D01*
X123450386Y-130011143D01*
X123286805Y-129806019D01*
X123286804Y-129806018D01*
X123286801Y-129806014D01*
X123094479Y-129627567D01*
X122947203Y-129527156D01*
X122877704Y-129479772D01*
X122877700Y-129479770D01*
X122877697Y-129479768D01*
X122877696Y-129479767D01*
X122641325Y-129365938D01*
X122641327Y-129365938D01*
X122390623Y-129288606D01*
X122390619Y-129288605D01*
X122390615Y-129288604D01*
X122265823Y-129269794D01*
X122131187Y-129249500D01*
X122131182Y-129249500D01*
X121868818Y-129249500D01*
X121868812Y-129249500D01*
X121707247Y-129273853D01*
X121609385Y-129288604D01*
X121609382Y-129288605D01*
X121609376Y-129288606D01*
X121358673Y-129365938D01*
X121122303Y-129479767D01*
X121122302Y-129479768D01*
X121122296Y-129479771D01*
X121122296Y-129479772D01*
X121121654Y-129480210D01*
X120905520Y-129627567D01*
X120713198Y-129806014D01*
X120549614Y-130011143D01*
X120418432Y-130238356D01*
X120365428Y-130373409D01*
X120322612Y-130428623D01*
X120256742Y-130451924D01*
X120188732Y-130435913D01*
X120140173Y-130385675D01*
X120134572Y-130373409D01*
X120105761Y-130300000D01*
X120081568Y-130238357D01*
X119950386Y-130011143D01*
X119786805Y-129806019D01*
X119786804Y-129806018D01*
X119786801Y-129806014D01*
X119594479Y-129627567D01*
X119447203Y-129527156D01*
X119377704Y-129479772D01*
X119377700Y-129479770D01*
X119377697Y-129479768D01*
X119377696Y-129479767D01*
X119141325Y-129365938D01*
X119141327Y-129365938D01*
X118890623Y-129288606D01*
X118890619Y-129288605D01*
X118890615Y-129288604D01*
X118765823Y-129269794D01*
X118631187Y-129249500D01*
X118631182Y-129249500D01*
X118368818Y-129249500D01*
X118368812Y-129249500D01*
X118207247Y-129273853D01*
X118109385Y-129288604D01*
X118109382Y-129288605D01*
X118109376Y-129288606D01*
X117858673Y-129365938D01*
X117622303Y-129479767D01*
X117622302Y-129479768D01*
X117622296Y-129479771D01*
X117622296Y-129479772D01*
X117621654Y-129480210D01*
X117405520Y-129627567D01*
X117213198Y-129806014D01*
X117049614Y-130011143D01*
X116918432Y-130238356D01*
X116865428Y-130373409D01*
X116822612Y-130428623D01*
X116756742Y-130451924D01*
X116688732Y-130435913D01*
X116640173Y-130385675D01*
X116634572Y-130373409D01*
X116605761Y-130300000D01*
X116581568Y-130238357D01*
X116450386Y-130011143D01*
X116286805Y-129806019D01*
X116286804Y-129806018D01*
X116286801Y-129806014D01*
X116110590Y-129642516D01*
X116094479Y-129627567D01*
X116094475Y-129627564D01*
X116094468Y-129627559D01*
X115999148Y-129562570D01*
X115954846Y-129508541D01*
X115945000Y-129460117D01*
X115945000Y-114499998D01*
X116494390Y-114499998D01*
X116494390Y-114500001D01*
X116514804Y-114785433D01*
X116575628Y-115065037D01*
X116575630Y-115065043D01*
X116575631Y-115065046D01*
X116603313Y-115139264D01*
X116675635Y-115333166D01*
X116812770Y-115584309D01*
X116812775Y-115584317D01*
X116984254Y-115813387D01*
X116984270Y-115813405D01*
X117186594Y-116015729D01*
X117186612Y-116015745D01*
X117415682Y-116187224D01*
X117415690Y-116187229D01*
X117666833Y-116324364D01*
X117666832Y-116324364D01*
X117666836Y-116324365D01*
X117666839Y-116324367D01*
X117934954Y-116424369D01*
X117934960Y-116424370D01*
X117934962Y-116424371D01*
X118214566Y-116485195D01*
X118214568Y-116485195D01*
X118214572Y-116485196D01*
X118468220Y-116503337D01*
X118499999Y-116505610D01*
X118500000Y-116505610D01*
X118500001Y-116505610D01*
X118528595Y-116503564D01*
X118785428Y-116485196D01*
X119065046Y-116424369D01*
X119333161Y-116324367D01*
X119584315Y-116187226D01*
X119813395Y-116015739D01*
X120015739Y-115813395D01*
X120187226Y-115584315D01*
X120324367Y-115333161D01*
X120424369Y-115065046D01*
X120485196Y-114785428D01*
X120505610Y-114500000D01*
X120505610Y-114499998D01*
X121994390Y-114499998D01*
X121994390Y-114500001D01*
X122014804Y-114785433D01*
X122075628Y-115065037D01*
X122075630Y-115065043D01*
X122075631Y-115065046D01*
X122103313Y-115139264D01*
X122175635Y-115333166D01*
X122312770Y-115584309D01*
X122312775Y-115584317D01*
X122484254Y-115813387D01*
X122484270Y-115813405D01*
X122686594Y-116015729D01*
X122686612Y-116015745D01*
X122915682Y-116187224D01*
X122915690Y-116187229D01*
X123166833Y-116324364D01*
X123166832Y-116324364D01*
X123166836Y-116324365D01*
X123166839Y-116324367D01*
X123434954Y-116424369D01*
X123434960Y-116424370D01*
X123434962Y-116424371D01*
X123714566Y-116485195D01*
X123714568Y-116485195D01*
X123714572Y-116485196D01*
X123968220Y-116503337D01*
X123999999Y-116505610D01*
X124000000Y-116505610D01*
X124000001Y-116505610D01*
X124028595Y-116503564D01*
X124285428Y-116485196D01*
X124565046Y-116424369D01*
X124833161Y-116324367D01*
X125084315Y-116187226D01*
X125313395Y-116015739D01*
X125515739Y-115813395D01*
X125687226Y-115584315D01*
X125824367Y-115333161D01*
X125924369Y-115065046D01*
X125985196Y-114785428D01*
X126005610Y-114500000D01*
X125985196Y-114214572D01*
X125962136Y-114108568D01*
X125924371Y-113934962D01*
X125924370Y-113934960D01*
X125924369Y-113934954D01*
X125824367Y-113666839D01*
X125687226Y-113415685D01*
X125687224Y-113415682D01*
X125515745Y-113186612D01*
X125515729Y-113186594D01*
X125313405Y-112984270D01*
X125313387Y-112984254D01*
X125084317Y-112812775D01*
X125084309Y-112812770D01*
X124833166Y-112675635D01*
X124833167Y-112675635D01*
X124725915Y-112635632D01*
X124565046Y-112575631D01*
X124565043Y-112575630D01*
X124565037Y-112575628D01*
X124285433Y-112514804D01*
X124000001Y-112494390D01*
X123999999Y-112494390D01*
X123714566Y-112514804D01*
X123434962Y-112575628D01*
X123166833Y-112675635D01*
X122915690Y-112812770D01*
X122915682Y-112812775D01*
X122686612Y-112984254D01*
X122686594Y-112984270D01*
X122484270Y-113186594D01*
X122484254Y-113186612D01*
X122312775Y-113415682D01*
X122312770Y-113415690D01*
X122175635Y-113666833D01*
X122075628Y-113934962D01*
X122014804Y-114214566D01*
X121994390Y-114499998D01*
X120505610Y-114499998D01*
X120485196Y-114214572D01*
X120462136Y-114108568D01*
X120424371Y-113934962D01*
X120424370Y-113934960D01*
X120424369Y-113934954D01*
X120324367Y-113666839D01*
X120187226Y-113415685D01*
X120187224Y-113415682D01*
X120015745Y-113186612D01*
X120015729Y-113186594D01*
X119813405Y-112984270D01*
X119813387Y-112984254D01*
X119584317Y-112812775D01*
X119584309Y-112812770D01*
X119333166Y-112675635D01*
X119333167Y-112675635D01*
X119225915Y-112635632D01*
X119065046Y-112575631D01*
X119065043Y-112575630D01*
X119065037Y-112575628D01*
X118785433Y-112514804D01*
X118500001Y-112494390D01*
X118499999Y-112494390D01*
X118214566Y-112514804D01*
X117934962Y-112575628D01*
X117666833Y-112675635D01*
X117415690Y-112812770D01*
X117415682Y-112812775D01*
X117186612Y-112984254D01*
X117186594Y-112984270D01*
X116984270Y-113186594D01*
X116984254Y-113186612D01*
X116812775Y-113415682D01*
X116812770Y-113415690D01*
X116675635Y-113666833D01*
X116575628Y-113934962D01*
X116514804Y-114214566D01*
X116494390Y-114499998D01*
X115945000Y-114499998D01*
X115945000Y-95942794D01*
X115964685Y-95875755D01*
X115981319Y-95855113D01*
X117336432Y-94500000D01*
X160986620Y-94500000D01*
X161006091Y-94697699D01*
X161049661Y-94841328D01*
X161055000Y-94877323D01*
X161055000Y-97622675D01*
X161049661Y-97658670D01*
X161006091Y-97802300D01*
X160986620Y-98000000D01*
X161006091Y-98197699D01*
X161063760Y-98387808D01*
X161157401Y-98562998D01*
X161157405Y-98563005D01*
X161283431Y-98716568D01*
X161436994Y-98842594D01*
X161437001Y-98842598D01*
X161612191Y-98936239D01*
X161612193Y-98936239D01*
X161612196Y-98936241D01*
X161802299Y-98993908D01*
X161802298Y-98993908D01*
X161820024Y-98995653D01*
X162000000Y-99013380D01*
X162197701Y-98993908D01*
X162387804Y-98936241D01*
X162563004Y-98842595D01*
X162716568Y-98716568D01*
X162842595Y-98563004D01*
X162936241Y-98387804D01*
X162993908Y-98197701D01*
X163013380Y-98000000D01*
X162993908Y-97802299D01*
X162950339Y-97658670D01*
X162945000Y-97622675D01*
X162945000Y-94877323D01*
X162950339Y-94841328D01*
X162962282Y-94801958D01*
X162993908Y-94697701D01*
X163013380Y-94500000D01*
X164986620Y-94500000D01*
X165006091Y-94697699D01*
X165049661Y-94841328D01*
X165055000Y-94877323D01*
X165055000Y-103122675D01*
X165049661Y-103158670D01*
X165006091Y-103302300D01*
X164986620Y-103500000D01*
X165006091Y-103697699D01*
X165063760Y-103887808D01*
X165157401Y-104062998D01*
X165157405Y-104063005D01*
X165283431Y-104216568D01*
X165436994Y-104342594D01*
X165437001Y-104342598D01*
X165612191Y-104436239D01*
X165612193Y-104436239D01*
X165612196Y-104436241D01*
X165802299Y-104493908D01*
X165802298Y-104493908D01*
X165820024Y-104495653D01*
X166000000Y-104513380D01*
X166197701Y-104493908D01*
X166387804Y-104436241D01*
X166563004Y-104342595D01*
X166716568Y-104216568D01*
X166842595Y-104063004D01*
X166936241Y-103887804D01*
X166993908Y-103697701D01*
X167013380Y-103500000D01*
X166993908Y-103302299D01*
X166950339Y-103158670D01*
X166945000Y-103122675D01*
X166945000Y-94877323D01*
X166950339Y-94841328D01*
X166962282Y-94801958D01*
X166993908Y-94697701D01*
X167013380Y-94500000D01*
X166993908Y-94302299D01*
X166936241Y-94112196D01*
X166936239Y-94112193D01*
X166936239Y-94112191D01*
X166842598Y-93937001D01*
X166842594Y-93936994D01*
X166716568Y-93783431D01*
X166563005Y-93657405D01*
X166562998Y-93657401D01*
X166387808Y-93563760D01*
X166292752Y-93534925D01*
X166197701Y-93506092D01*
X166197699Y-93506091D01*
X166197701Y-93506091D01*
X166000000Y-93486620D01*
X165802300Y-93506091D01*
X165612191Y-93563760D01*
X165437001Y-93657401D01*
X165436994Y-93657405D01*
X165283431Y-93783431D01*
X165157405Y-93936994D01*
X165157401Y-93937001D01*
X165063760Y-94112191D01*
X165006091Y-94302300D01*
X164986620Y-94500000D01*
X163013380Y-94500000D01*
X162993908Y-94302299D01*
X162936241Y-94112196D01*
X162936239Y-94112193D01*
X162936239Y-94112191D01*
X162842598Y-93937001D01*
X162842594Y-93936994D01*
X162716568Y-93783431D01*
X162563005Y-93657405D01*
X162562998Y-93657401D01*
X162387808Y-93563760D01*
X162292752Y-93534925D01*
X162197701Y-93506092D01*
X162197699Y-93506091D01*
X162197701Y-93506091D01*
X162000000Y-93486620D01*
X161802300Y-93506091D01*
X161612191Y-93563760D01*
X161437001Y-93657401D01*
X161436994Y-93657405D01*
X161283431Y-93783431D01*
X161157405Y-93936994D01*
X161157401Y-93937001D01*
X161063760Y-94112191D01*
X161006091Y-94302300D01*
X160986620Y-94500000D01*
X117336432Y-94500000D01*
X118234026Y-93602406D01*
X118234029Y-93602403D01*
X118298382Y-93506091D01*
X118337447Y-93447627D01*
X118337448Y-93447625D01*
X118408684Y-93275646D01*
X118419692Y-93220304D01*
X118445000Y-93093074D01*
X118445000Y-89714999D01*
X133834696Y-89714999D01*
X133834696Y-89715000D01*
X133853898Y-90081405D01*
X133905743Y-90408739D01*
X133911295Y-90443794D01*
X133942727Y-90561101D01*
X134006260Y-90798206D01*
X134137746Y-91140739D01*
X134304320Y-91467656D01*
X134504147Y-91775364D01*
X134504149Y-91775366D01*
X134735051Y-92060506D01*
X134994494Y-92319949D01*
X134994498Y-92319952D01*
X135279635Y-92550852D01*
X135587343Y-92750679D01*
X135587348Y-92750682D01*
X135914264Y-92917255D01*
X136256801Y-93048742D01*
X136611206Y-93143705D01*
X136973596Y-93201102D01*
X137319734Y-93219241D01*
X137339999Y-93220304D01*
X137340000Y-93220304D01*
X137340001Y-93220304D01*
X137359203Y-93219297D01*
X137706404Y-93201102D01*
X138068794Y-93143705D01*
X138423199Y-93048742D01*
X138765736Y-92917255D01*
X139092652Y-92750682D01*
X139400366Y-92550851D01*
X139685506Y-92319949D01*
X139944949Y-92060506D01*
X140175851Y-91775366D01*
X140375682Y-91467652D01*
X140542255Y-91140736D01*
X140673742Y-90798199D01*
X140768705Y-90443794D01*
X140826102Y-90081404D01*
X140845304Y-89715000D01*
X140826102Y-89348596D01*
X140768705Y-88986206D01*
X140673742Y-88631801D01*
X140542255Y-88289264D01*
X140375682Y-87962348D01*
X140306043Y-87855113D01*
X140175852Y-87654635D01*
X140003181Y-87441405D01*
X139944949Y-87369494D01*
X139685506Y-87110051D01*
X139400366Y-86879149D01*
X139400364Y-86879147D01*
X139092656Y-86679320D01*
X138765739Y-86512746D01*
X138423206Y-86381260D01*
X138292402Y-86346211D01*
X138068794Y-86286295D01*
X138068790Y-86286294D01*
X138068789Y-86286294D01*
X137706405Y-86228898D01*
X137340001Y-86209696D01*
X137339999Y-86209696D01*
X136973594Y-86228898D01*
X136611211Y-86286294D01*
X136611209Y-86286294D01*
X136256793Y-86381260D01*
X135914260Y-86512746D01*
X135587343Y-86679320D01*
X135279635Y-86879147D01*
X134994498Y-87110047D01*
X134994490Y-87110054D01*
X134735054Y-87369490D01*
X134735047Y-87369498D01*
X134504147Y-87654635D01*
X134304320Y-87962343D01*
X134137746Y-88289260D01*
X134006260Y-88631793D01*
X133911294Y-88986209D01*
X133911294Y-88986211D01*
X133853898Y-89348594D01*
X133834696Y-89714999D01*
X118445000Y-89714999D01*
X118445000Y-74442794D01*
X118464685Y-74375755D01*
X118481319Y-74355113D01*
X121355113Y-71481319D01*
X121416436Y-71447834D01*
X121442794Y-71445000D01*
X170093076Y-71445000D01*
X170093077Y-71444999D01*
X170275646Y-71408684D01*
X170447625Y-71337448D01*
X170447625Y-71337447D01*
X170447627Y-71337447D01*
X170524494Y-71286085D01*
X170602403Y-71234029D01*
X178734029Y-63102403D01*
X178837447Y-62947626D01*
X178837448Y-62947625D01*
X178908684Y-62775646D01*
X178945000Y-62593074D01*
X178945000Y-58102135D01*
X185574500Y-58102135D01*
X185574500Y-59897870D01*
X185574501Y-59897876D01*
X185580908Y-59957483D01*
X185631202Y-60092328D01*
X185631206Y-60092335D01*
X185717452Y-60207544D01*
X185717455Y-60207547D01*
X185832664Y-60293793D01*
X185832671Y-60293797D01*
X185967517Y-60344091D01*
X185967516Y-60344091D01*
X185974444Y-60344835D01*
X186027127Y-60350500D01*
X187822872Y-60350499D01*
X187882483Y-60344091D01*
X188017331Y-60293796D01*
X188132546Y-60207546D01*
X188218796Y-60092331D01*
X188267810Y-59960916D01*
X188309681Y-59904984D01*
X188375145Y-59880566D01*
X188443418Y-59895417D01*
X188471673Y-59916569D01*
X188593599Y-60038495D01*
X188690384Y-60106265D01*
X188787165Y-60174032D01*
X188787167Y-60174033D01*
X188787170Y-60174035D01*
X189001337Y-60273903D01*
X189229592Y-60335063D01*
X189406034Y-60350500D01*
X189464999Y-60355659D01*
X189465000Y-60355659D01*
X189465001Y-60355659D01*
X189523966Y-60350500D01*
X189700408Y-60335063D01*
X189928663Y-60273903D01*
X190142830Y-60174035D01*
X190336401Y-60038495D01*
X190503495Y-59871401D01*
X190633425Y-59685842D01*
X190688002Y-59642217D01*
X190757500Y-59635023D01*
X190819855Y-59666546D01*
X190836575Y-59685842D01*
X190966500Y-59871395D01*
X190966505Y-59871401D01*
X191133599Y-60038495D01*
X191230384Y-60106265D01*
X191327165Y-60174032D01*
X191327167Y-60174033D01*
X191327170Y-60174035D01*
X191541337Y-60273903D01*
X191769592Y-60335063D01*
X191946034Y-60350500D01*
X192004999Y-60355659D01*
X192005000Y-60355659D01*
X192005001Y-60355659D01*
X192063966Y-60350500D01*
X192240408Y-60335063D01*
X192468663Y-60273903D01*
X192682830Y-60174035D01*
X192876401Y-60038495D01*
X193043495Y-59871401D01*
X193173425Y-59685842D01*
X193228002Y-59642217D01*
X193297500Y-59635023D01*
X193359855Y-59666546D01*
X193376575Y-59685842D01*
X193506500Y-59871395D01*
X193506505Y-59871401D01*
X193673599Y-60038495D01*
X193770384Y-60106265D01*
X193867165Y-60174032D01*
X193867167Y-60174033D01*
X193867170Y-60174035D01*
X194081337Y-60273903D01*
X194309592Y-60335063D01*
X194486034Y-60350500D01*
X194544999Y-60355659D01*
X194545000Y-60355659D01*
X194545001Y-60355659D01*
X194603966Y-60350500D01*
X194780408Y-60335063D01*
X195008663Y-60273903D01*
X195222830Y-60174035D01*
X195416401Y-60038495D01*
X195583495Y-59871401D01*
X195713425Y-59685842D01*
X195768002Y-59642217D01*
X195837500Y-59635023D01*
X195899855Y-59666546D01*
X195916575Y-59685842D01*
X196046500Y-59871395D01*
X196046505Y-59871401D01*
X196213599Y-60038495D01*
X196310384Y-60106265D01*
X196407165Y-60174032D01*
X196407167Y-60174033D01*
X196407170Y-60174035D01*
X196621337Y-60273903D01*
X196849592Y-60335063D01*
X197026034Y-60350500D01*
X197084999Y-60355659D01*
X197085000Y-60355659D01*
X197085001Y-60355659D01*
X197143966Y-60350500D01*
X197320408Y-60335063D01*
X197548663Y-60273903D01*
X197762830Y-60174035D01*
X197956401Y-60038495D01*
X198123495Y-59871401D01*
X198259035Y-59677830D01*
X198358903Y-59463663D01*
X198420063Y-59235408D01*
X198440659Y-59000000D01*
X198420063Y-58764592D01*
X198358903Y-58536337D01*
X198259035Y-58322171D01*
X198253425Y-58314158D01*
X198123494Y-58128597D01*
X197956402Y-57961506D01*
X197956395Y-57961501D01*
X197762834Y-57825967D01*
X197762830Y-57825965D01*
X197762828Y-57825964D01*
X197548663Y-57726097D01*
X197548659Y-57726096D01*
X197548655Y-57726094D01*
X197320413Y-57664938D01*
X197320403Y-57664936D01*
X197085001Y-57644341D01*
X197084999Y-57644341D01*
X196849596Y-57664936D01*
X196849586Y-57664938D01*
X196621344Y-57726094D01*
X196621335Y-57726098D01*
X196407171Y-57825964D01*
X196407169Y-57825965D01*
X196213597Y-57961505D01*
X196046505Y-58128597D01*
X195916575Y-58314158D01*
X195861998Y-58357783D01*
X195792500Y-58364977D01*
X195730145Y-58333454D01*
X195713425Y-58314158D01*
X195583494Y-58128597D01*
X195416402Y-57961506D01*
X195416395Y-57961501D01*
X195222834Y-57825967D01*
X195222830Y-57825965D01*
X195222828Y-57825964D01*
X195008663Y-57726097D01*
X195008659Y-57726096D01*
X195008655Y-57726094D01*
X194780413Y-57664938D01*
X194780403Y-57664936D01*
X194545001Y-57644341D01*
X194544999Y-57644341D01*
X194309596Y-57664936D01*
X194309586Y-57664938D01*
X194081344Y-57726094D01*
X194081335Y-57726098D01*
X193867171Y-57825964D01*
X193867169Y-57825965D01*
X193673597Y-57961505D01*
X193506505Y-58128597D01*
X193376575Y-58314158D01*
X193321998Y-58357783D01*
X193252500Y-58364977D01*
X193190145Y-58333454D01*
X193173425Y-58314158D01*
X193043494Y-58128597D01*
X192876402Y-57961506D01*
X192876395Y-57961501D01*
X192682834Y-57825967D01*
X192682830Y-57825965D01*
X192682828Y-57825964D01*
X192468663Y-57726097D01*
X192468659Y-57726096D01*
X192468655Y-57726094D01*
X192240413Y-57664938D01*
X192240403Y-57664936D01*
X192005001Y-57644341D01*
X192004999Y-57644341D01*
X191769596Y-57664936D01*
X191769586Y-57664938D01*
X191541344Y-57726094D01*
X191541335Y-57726098D01*
X191327171Y-57825964D01*
X191327169Y-57825965D01*
X191133597Y-57961505D01*
X190966505Y-58128597D01*
X190836575Y-58314158D01*
X190781998Y-58357783D01*
X190712500Y-58364977D01*
X190650145Y-58333454D01*
X190633425Y-58314158D01*
X190503494Y-58128597D01*
X190336402Y-57961506D01*
X190336395Y-57961501D01*
X190142834Y-57825967D01*
X190142830Y-57825965D01*
X190142828Y-57825964D01*
X189928663Y-57726097D01*
X189928659Y-57726096D01*
X189928655Y-57726094D01*
X189700413Y-57664938D01*
X189700403Y-57664936D01*
X189465001Y-57644341D01*
X189464999Y-57644341D01*
X189229596Y-57664936D01*
X189229586Y-57664938D01*
X189001344Y-57726094D01*
X189001335Y-57726098D01*
X188787171Y-57825964D01*
X188787169Y-57825965D01*
X188593600Y-57961503D01*
X188471673Y-58083430D01*
X188410350Y-58116914D01*
X188340658Y-58111930D01*
X188284725Y-58070058D01*
X188267810Y-58039081D01*
X188218797Y-57907671D01*
X188218793Y-57907664D01*
X188132547Y-57792455D01*
X188132544Y-57792452D01*
X188017335Y-57706206D01*
X188017328Y-57706202D01*
X187882482Y-57655908D01*
X187882483Y-57655908D01*
X187822883Y-57649501D01*
X187822881Y-57649500D01*
X187822873Y-57649500D01*
X187822864Y-57649500D01*
X186027129Y-57649500D01*
X186027123Y-57649501D01*
X185967516Y-57655908D01*
X185832671Y-57706202D01*
X185832664Y-57706206D01*
X185717455Y-57792452D01*
X185717452Y-57792455D01*
X185631206Y-57907664D01*
X185631202Y-57907671D01*
X185580908Y-58042517D01*
X185574501Y-58102116D01*
X185574500Y-58102135D01*
X178945000Y-58102135D01*
X178945000Y-56141258D01*
X178964685Y-56074219D01*
X178981319Y-56053577D01*
X178996017Y-56038879D01*
X179030104Y-56004792D01*
X179030106Y-56004788D01*
X179030109Y-56004786D01*
X179155048Y-55832820D01*
X179155047Y-55832820D01*
X179155051Y-55832816D01*
X179251557Y-55643412D01*
X179317246Y-55441243D01*
X179350500Y-55231287D01*
X179350500Y-54768713D01*
X179317246Y-54558757D01*
X179251557Y-54356588D01*
X179155051Y-54167184D01*
X179155049Y-54167181D01*
X179155048Y-54167179D01*
X179030109Y-53995213D01*
X178879786Y-53844890D01*
X178707820Y-53719951D01*
X178518414Y-53623444D01*
X178518413Y-53623443D01*
X178518412Y-53623443D01*
X178316243Y-53557754D01*
X178316241Y-53557753D01*
X178316240Y-53557753D01*
X178154957Y-53532208D01*
X178106287Y-53524500D01*
X177893713Y-53524500D01*
X177845042Y-53532208D01*
X177683760Y-53557753D01*
X177481585Y-53623444D01*
X177292179Y-53719951D01*
X177120213Y-53844890D01*
X176969894Y-53995209D01*
X176969890Y-53995214D01*
X176850318Y-54159793D01*
X176794989Y-54202459D01*
X176725375Y-54208438D01*
X176663580Y-54175833D01*
X176649682Y-54159793D01*
X176530109Y-53995214D01*
X176530105Y-53995209D01*
X176379786Y-53844890D01*
X176207820Y-53719951D01*
X176018414Y-53623444D01*
X176018413Y-53623443D01*
X176018412Y-53623443D01*
X175816243Y-53557754D01*
X175816241Y-53557753D01*
X175816240Y-53557753D01*
X175654957Y-53532208D01*
X175606287Y-53524500D01*
X175393713Y-53524500D01*
X175345042Y-53532208D01*
X175183760Y-53557753D01*
X174981585Y-53623444D01*
X174792179Y-53719951D01*
X174620213Y-53844890D01*
X174469894Y-53995209D01*
X174469890Y-53995214D01*
X174350318Y-54159793D01*
X174294989Y-54202459D01*
X174225375Y-54208438D01*
X174163580Y-54175833D01*
X174149682Y-54159793D01*
X174030109Y-53995214D01*
X174030105Y-53995209D01*
X173879786Y-53844890D01*
X173707820Y-53719951D01*
X173518414Y-53623444D01*
X173518413Y-53623443D01*
X173518412Y-53623443D01*
X173316243Y-53557754D01*
X173316241Y-53557753D01*
X173316240Y-53557753D01*
X173154957Y-53532208D01*
X173106287Y-53524500D01*
X172893713Y-53524500D01*
X172845042Y-53532208D01*
X172683760Y-53557753D01*
X172481585Y-53623444D01*
X172292179Y-53719951D01*
X172120215Y-53844889D01*
X171981398Y-53983706D01*
X171920075Y-54017190D01*
X171850383Y-54012206D01*
X171794450Y-53970334D01*
X171788178Y-53961120D01*
X171779113Y-53946424D01*
X171692712Y-53806344D01*
X171568656Y-53682288D01*
X171441484Y-53603848D01*
X171419336Y-53590187D01*
X171419331Y-53590185D01*
X171417862Y-53589698D01*
X171252797Y-53535001D01*
X171252795Y-53535000D01*
X171150010Y-53524500D01*
X169849998Y-53524500D01*
X169849981Y-53524501D01*
X169747203Y-53535000D01*
X169747200Y-53535001D01*
X169580668Y-53590185D01*
X169580663Y-53590187D01*
X169431342Y-53682289D01*
X169307289Y-53806342D01*
X169215187Y-53955663D01*
X169215185Y-53955668D01*
X169210326Y-53970333D01*
X169160001Y-54122203D01*
X169160001Y-54122204D01*
X169160000Y-54122204D01*
X169149500Y-54224983D01*
X169149500Y-55775001D01*
X169149501Y-55775018D01*
X169160000Y-55877796D01*
X169160001Y-55877799D01*
X169205894Y-56016294D01*
X169215186Y-56044334D01*
X169307287Y-56193655D01*
X169307289Y-56193657D01*
X169431344Y-56317712D01*
X169496096Y-56357651D01*
X169542821Y-56409599D01*
X169555000Y-56463190D01*
X169555000Y-61057206D01*
X169535315Y-61124245D01*
X169518681Y-61144887D01*
X167144887Y-63518681D01*
X167083564Y-63552166D01*
X167057206Y-63555000D01*
X116406923Y-63555000D01*
X116224361Y-63591314D01*
X116224353Y-63591316D01*
X116052372Y-63662552D01*
X115897601Y-63765967D01*
X115897593Y-63765973D01*
X110765972Y-68897594D01*
X110732543Y-68947626D01*
X110662555Y-69052368D01*
X110662550Y-69052377D01*
X110591316Y-69224353D01*
X110591314Y-69224361D01*
X110555000Y-69406921D01*
X110555000Y-88557205D01*
X110535315Y-88624244D01*
X110518681Y-88644886D01*
X103765973Y-95397593D01*
X103765967Y-95397601D01*
X103662552Y-95552372D01*
X103591316Y-95724353D01*
X103591314Y-95724361D01*
X103555000Y-95906921D01*
X103555000Y-129125500D01*
X103535315Y-129192539D01*
X103482511Y-129238294D01*
X103431001Y-129249500D01*
X103202130Y-129249500D01*
X103202123Y-129249501D01*
X103142516Y-129255908D01*
X103007671Y-129306202D01*
X103007664Y-129306206D01*
X102892455Y-129392452D01*
X102892452Y-129392455D01*
X102806206Y-129507664D01*
X102806202Y-129507671D01*
X102755908Y-129642517D01*
X102749501Y-129702116D01*
X102749501Y-129702123D01*
X102749500Y-129702135D01*
X100500500Y-129702135D01*
X100500500Y-87074999D01*
X102024696Y-87074999D01*
X102024696Y-87075000D01*
X102043898Y-87441405D01*
X102101294Y-87803788D01*
X102101295Y-87803794D01*
X102131477Y-87916436D01*
X102196260Y-88158206D01*
X102327746Y-88500739D01*
X102494320Y-88827656D01*
X102694147Y-89135364D01*
X102866818Y-89348594D01*
X102925051Y-89420506D01*
X103184494Y-89679949D01*
X103343311Y-89808557D01*
X103469635Y-89910852D01*
X103777343Y-90110679D01*
X103777348Y-90110682D01*
X104104264Y-90277255D01*
X104401439Y-90391329D01*
X104442067Y-90406925D01*
X104446801Y-90408742D01*
X104801206Y-90503705D01*
X105163596Y-90561102D01*
X105509734Y-90579241D01*
X105529999Y-90580304D01*
X105530000Y-90580304D01*
X105530001Y-90580304D01*
X105549203Y-90579297D01*
X105896404Y-90561102D01*
X106258794Y-90503705D01*
X106613199Y-90408742D01*
X106955736Y-90277255D01*
X107282652Y-90110682D01*
X107590366Y-89910851D01*
X107875506Y-89679949D01*
X108134949Y-89420506D01*
X108365851Y-89135366D01*
X108565682Y-88827652D01*
X108732255Y-88500736D01*
X108863742Y-88158199D01*
X108958705Y-87803794D01*
X109016102Y-87441404D01*
X109035304Y-87075000D01*
X109016102Y-86708596D01*
X108958705Y-86346206D01*
X108863742Y-85991801D01*
X108732255Y-85649264D01*
X108565682Y-85322348D01*
X108365851Y-85014634D01*
X108134949Y-84729494D01*
X107875506Y-84470051D01*
X107590366Y-84239149D01*
X107590364Y-84239147D01*
X107282656Y-84039320D01*
X106955739Y-83872746D01*
X106613206Y-83741260D01*
X106613199Y-83741258D01*
X106258794Y-83646295D01*
X106258790Y-83646294D01*
X106258789Y-83646294D01*
X105896405Y-83588898D01*
X105530001Y-83569696D01*
X105529999Y-83569696D01*
X105163594Y-83588898D01*
X104801211Y-83646294D01*
X104801209Y-83646294D01*
X104446793Y-83741260D01*
X104104260Y-83872746D01*
X103777343Y-84039320D01*
X103469635Y-84239147D01*
X103184498Y-84470047D01*
X103184490Y-84470054D01*
X102925054Y-84729490D01*
X102925047Y-84729498D01*
X102694147Y-85014635D01*
X102494320Y-85322343D01*
X102327746Y-85649260D01*
X102196260Y-85991793D01*
X102101294Y-86346209D01*
X102101294Y-86346211D01*
X102043898Y-86708594D01*
X102024696Y-87074999D01*
X100500500Y-87074999D01*
X100500500Y-36999995D01*
X103244592Y-36999995D01*
X103244592Y-37000004D01*
X103264196Y-37261620D01*
X103264197Y-37261625D01*
X103322576Y-37517402D01*
X103322578Y-37517411D01*
X103322580Y-37517416D01*
X103418432Y-37761643D01*
X103549614Y-37988857D01*
X103681736Y-38154533D01*
X103713198Y-38193985D01*
X103825163Y-38297872D01*
X103905521Y-38372433D01*
X104122296Y-38520228D01*
X104122301Y-38520230D01*
X104122302Y-38520231D01*
X104122303Y-38520232D01*
X104247843Y-38580688D01*
X104358673Y-38634061D01*
X104358674Y-38634061D01*
X104358677Y-38634063D01*
X104609385Y-38711396D01*
X104868818Y-38750500D01*
X105131182Y-38750500D01*
X105390615Y-38711396D01*
X105641323Y-38634063D01*
X105877704Y-38520228D01*
X106094479Y-38372433D01*
X106286805Y-38193981D01*
X106450386Y-37988857D01*
X106581568Y-37761643D01*
X106634572Y-37626589D01*
X106677387Y-37571376D01*
X106743257Y-37548075D01*
X106811268Y-37564086D01*
X106859827Y-37614323D01*
X106865425Y-37626584D01*
X106918432Y-37761643D01*
X107049614Y-37988857D01*
X107181736Y-38154533D01*
X107213198Y-38193985D01*
X107325163Y-38297872D01*
X107405521Y-38372433D01*
X107622296Y-38520228D01*
X107622301Y-38520230D01*
X107622302Y-38520231D01*
X107622303Y-38520232D01*
X107747843Y-38580688D01*
X107858673Y-38634061D01*
X107858674Y-38634061D01*
X107858677Y-38634063D01*
X108109385Y-38711396D01*
X108368818Y-38750500D01*
X108631182Y-38750500D01*
X108890615Y-38711396D01*
X109141323Y-38634063D01*
X109377704Y-38520228D01*
X109594479Y-38372433D01*
X109786805Y-38193981D01*
X109950386Y-37988857D01*
X110081568Y-37761643D01*
X110134840Y-37625905D01*
X110177655Y-37570693D01*
X110243525Y-37547392D01*
X110311536Y-37563403D01*
X110360094Y-37613640D01*
X110365696Y-37625907D01*
X110418883Y-37761426D01*
X110550027Y-37988573D01*
X110597874Y-38048571D01*
X111360689Y-37285756D01*
X111379668Y-37331574D01*
X111456274Y-37446224D01*
X111553776Y-37543726D01*
X111668426Y-37620332D01*
X111714242Y-37639309D01*
X110950830Y-38402720D01*
X111122546Y-38519793D01*
X111122550Y-38519795D01*
X111358854Y-38633594D01*
X111358858Y-38633595D01*
X111609494Y-38710907D01*
X111609500Y-38710909D01*
X111868848Y-38749999D01*
X111868857Y-38750000D01*
X112131143Y-38750000D01*
X112131151Y-38749999D01*
X112390499Y-38710909D01*
X112390505Y-38710907D01*
X112641143Y-38633595D01*
X112877445Y-38519798D01*
X112877447Y-38519797D01*
X113049168Y-38402720D01*
X112285757Y-37639309D01*
X112331574Y-37620332D01*
X112446224Y-37543726D01*
X112543726Y-37446224D01*
X112620332Y-37331574D01*
X112639309Y-37285756D01*
X113402125Y-38048572D01*
X113449971Y-37988573D01*
X113581114Y-37761430D01*
X113634302Y-37625908D01*
X113677118Y-37570694D01*
X113742988Y-37547392D01*
X113810998Y-37563402D01*
X113859557Y-37613640D01*
X113865159Y-37625906D01*
X113883681Y-37673099D01*
X113918432Y-37761643D01*
X114049614Y-37988857D01*
X114181736Y-38154533D01*
X114213198Y-38193985D01*
X114325163Y-38297872D01*
X114405521Y-38372433D01*
X114622296Y-38520228D01*
X114622301Y-38520230D01*
X114622302Y-38520231D01*
X114622303Y-38520232D01*
X114747843Y-38580688D01*
X114858673Y-38634061D01*
X114858674Y-38634061D01*
X114858677Y-38634063D01*
X115109385Y-38711396D01*
X115368818Y-38750500D01*
X115631182Y-38750500D01*
X115890615Y-38711396D01*
X116141323Y-38634063D01*
X116377704Y-38520228D01*
X116594479Y-38372433D01*
X116786805Y-38193981D01*
X116950386Y-37988857D01*
X117081568Y-37761643D01*
X117134572Y-37626589D01*
X117177387Y-37571376D01*
X117243257Y-37548075D01*
X117311268Y-37564086D01*
X117359827Y-37614323D01*
X117365425Y-37626584D01*
X117418432Y-37761643D01*
X117549614Y-37988857D01*
X117681736Y-38154533D01*
X117713198Y-38193985D01*
X117825163Y-38297872D01*
X117905521Y-38372433D01*
X118000853Y-38437429D01*
X118045154Y-38491457D01*
X118055000Y-38539882D01*
X118055000Y-40057206D01*
X118035315Y-40124245D01*
X118018681Y-40144887D01*
X117644887Y-40518681D01*
X117583564Y-40552166D01*
X117557206Y-40555000D01*
X115406926Y-40555000D01*
X115254643Y-40585290D01*
X115254640Y-40585290D01*
X115232071Y-40589780D01*
X115224353Y-40591316D01*
X115224352Y-40591316D01*
X115224349Y-40591317D01*
X115052376Y-40662550D01*
X115052367Y-40662555D01*
X114897597Y-40765970D01*
X114897593Y-40765973D01*
X108265972Y-47397594D01*
X108238600Y-47438560D01*
X108186876Y-47515971D01*
X108177132Y-47530552D01*
X108162551Y-47552375D01*
X108091316Y-47724353D01*
X108091314Y-47724361D01*
X108055000Y-47906921D01*
X108055000Y-53536809D01*
X108035315Y-53603848D01*
X107996097Y-53642347D01*
X107931347Y-53682285D01*
X107931343Y-53682288D01*
X107807289Y-53806342D01*
X107715187Y-53955663D01*
X107715185Y-53955668D01*
X107710326Y-53970333D01*
X107660001Y-54122203D01*
X107660001Y-54122204D01*
X107660000Y-54122204D01*
X107649500Y-54224983D01*
X107649500Y-55775001D01*
X107649501Y-55775018D01*
X107660000Y-55877796D01*
X107660001Y-55877799D01*
X107705894Y-56016294D01*
X107715186Y-56044334D01*
X107807288Y-56193656D01*
X107931344Y-56317712D01*
X108080666Y-56409814D01*
X108247203Y-56464999D01*
X108349991Y-56475500D01*
X109650008Y-56475499D01*
X109752797Y-56464999D01*
X109919334Y-56409814D01*
X110068656Y-56317712D01*
X110192712Y-56193656D01*
X110284814Y-56044334D01*
X110284814Y-56044331D01*
X110288178Y-56038879D01*
X110340126Y-55992154D01*
X110409088Y-55980931D01*
X110473170Y-56008774D01*
X110481398Y-56016294D01*
X110620213Y-56155109D01*
X110792179Y-56280048D01*
X110792181Y-56280049D01*
X110792184Y-56280051D01*
X110981588Y-56376557D01*
X111183757Y-56442246D01*
X111393713Y-56475500D01*
X111393714Y-56475500D01*
X111606286Y-56475500D01*
X111606287Y-56475500D01*
X111816243Y-56442246D01*
X112018412Y-56376557D01*
X112207816Y-56280051D01*
X112229789Y-56264086D01*
X112379786Y-56155109D01*
X112379788Y-56155106D01*
X112379792Y-56155104D01*
X112530104Y-56004792D01*
X112649683Y-55840204D01*
X112705011Y-55797540D01*
X112774624Y-55791561D01*
X112836420Y-55824166D01*
X112850313Y-55840199D01*
X112952560Y-55980931D01*
X112969896Y-56004792D01*
X113120213Y-56155109D01*
X113292179Y-56280048D01*
X113292181Y-56280049D01*
X113292184Y-56280051D01*
X113481588Y-56376557D01*
X113683757Y-56442246D01*
X113893713Y-56475500D01*
X113893714Y-56475500D01*
X114106286Y-56475500D01*
X114106287Y-56475500D01*
X114316243Y-56442246D01*
X114518412Y-56376557D01*
X114707816Y-56280051D01*
X114729789Y-56264086D01*
X114879786Y-56155109D01*
X114879788Y-56155106D01*
X114879792Y-56155104D01*
X115030104Y-56004792D01*
X115149683Y-55840204D01*
X115205011Y-55797540D01*
X115274624Y-55791561D01*
X115336420Y-55824166D01*
X115350313Y-55840199D01*
X115452560Y-55980931D01*
X115469896Y-56004792D01*
X115620213Y-56155109D01*
X115792179Y-56280048D01*
X115792181Y-56280049D01*
X115792184Y-56280051D01*
X115981588Y-56376557D01*
X116183757Y-56442246D01*
X116393713Y-56475500D01*
X116393714Y-56475500D01*
X116606286Y-56475500D01*
X116606287Y-56475500D01*
X116816243Y-56442246D01*
X117018412Y-56376557D01*
X117207816Y-56280051D01*
X117229789Y-56264086D01*
X117379786Y-56155109D01*
X117379788Y-56155106D01*
X117379792Y-56155104D01*
X117530104Y-56004792D01*
X117530106Y-56004788D01*
X117530109Y-56004786D01*
X117655048Y-55832820D01*
X117655047Y-55832820D01*
X117655051Y-55832816D01*
X117751557Y-55643412D01*
X117817246Y-55441243D01*
X117850500Y-55231287D01*
X117850500Y-54768713D01*
X117817246Y-54558757D01*
X117751557Y-54356588D01*
X117655051Y-54167184D01*
X117655049Y-54167181D01*
X117655048Y-54167179D01*
X117530109Y-53995213D01*
X117481319Y-53946423D01*
X117447834Y-53885100D01*
X117445000Y-53858742D01*
X117445000Y-50442794D01*
X117464685Y-50375755D01*
X117481319Y-50355113D01*
X119355113Y-48481319D01*
X119416436Y-48447834D01*
X119442794Y-48445000D01*
X122545218Y-48445000D01*
X122612257Y-48464685D01*
X122658012Y-48517489D01*
X122667956Y-48586647D01*
X122638931Y-48650203D01*
X122580153Y-48687977D01*
X122577355Y-48688762D01*
X122362002Y-48746466D01*
X122306793Y-48761260D01*
X121964260Y-48892746D01*
X121637343Y-49059320D01*
X121329635Y-49259147D01*
X121044498Y-49490047D01*
X121044490Y-49490054D01*
X120785054Y-49749490D01*
X120785047Y-49749498D01*
X120554147Y-50034635D01*
X120354320Y-50342343D01*
X120187746Y-50669260D01*
X120056260Y-51011793D01*
X119961294Y-51366209D01*
X119961294Y-51366211D01*
X119903898Y-51728594D01*
X119884696Y-52094999D01*
X119884696Y-52095000D01*
X119903898Y-52461405D01*
X119961294Y-52823788D01*
X119961294Y-52823790D01*
X120056260Y-53178206D01*
X120187746Y-53520739D01*
X120354320Y-53847656D01*
X120554147Y-54155364D01*
X120570723Y-54175833D01*
X120785051Y-54440506D01*
X121044494Y-54699949D01*
X121203311Y-54828557D01*
X121329635Y-54930852D01*
X121637343Y-55130679D01*
X121637348Y-55130682D01*
X121964264Y-55297255D01*
X122306801Y-55428742D01*
X122661206Y-55523705D01*
X123023596Y-55581102D01*
X123369734Y-55599241D01*
X123389999Y-55600304D01*
X123390000Y-55600304D01*
X123390001Y-55600304D01*
X123409203Y-55599297D01*
X123756404Y-55581102D01*
X124118794Y-55523705D01*
X124473199Y-55428742D01*
X124815736Y-55297255D01*
X125142652Y-55130682D01*
X125450366Y-54930851D01*
X125735506Y-54699949D01*
X125994949Y-54440506D01*
X126169476Y-54224983D01*
X129149500Y-54224983D01*
X129149500Y-55775001D01*
X129149501Y-55775018D01*
X129160000Y-55877796D01*
X129160001Y-55877799D01*
X129205894Y-56016294D01*
X129215186Y-56044334D01*
X129307288Y-56193656D01*
X129431344Y-56317712D01*
X129580666Y-56409814D01*
X129747203Y-56464999D01*
X129849991Y-56475500D01*
X131150008Y-56475499D01*
X131252797Y-56464999D01*
X131419334Y-56409814D01*
X131568656Y-56317712D01*
X131692712Y-56193656D01*
X131784814Y-56044334D01*
X131784814Y-56044331D01*
X131788178Y-56038879D01*
X131840126Y-55992154D01*
X131909088Y-55980931D01*
X131973170Y-56008774D01*
X131981398Y-56016294D01*
X132120213Y-56155109D01*
X132292179Y-56280048D01*
X132292181Y-56280049D01*
X132292184Y-56280051D01*
X132481588Y-56376557D01*
X132683757Y-56442246D01*
X132893713Y-56475500D01*
X132893714Y-56475500D01*
X133106286Y-56475500D01*
X133106287Y-56475500D01*
X133316243Y-56442246D01*
X133518412Y-56376557D01*
X133707816Y-56280051D01*
X133729789Y-56264086D01*
X133879786Y-56155109D01*
X133879788Y-56155106D01*
X133879792Y-56155104D01*
X134030104Y-56004792D01*
X134149683Y-55840204D01*
X134205011Y-55797540D01*
X134274624Y-55791561D01*
X134336420Y-55824166D01*
X134350313Y-55840199D01*
X134452560Y-55980931D01*
X134469896Y-56004792D01*
X134620213Y-56155109D01*
X134792179Y-56280048D01*
X134792181Y-56280049D01*
X134792184Y-56280051D01*
X134981588Y-56376557D01*
X135183757Y-56442246D01*
X135393713Y-56475500D01*
X135393714Y-56475500D01*
X135606286Y-56475500D01*
X135606287Y-56475500D01*
X135816243Y-56442246D01*
X136018412Y-56376557D01*
X136207816Y-56280051D01*
X136229789Y-56264086D01*
X136379786Y-56155109D01*
X136379788Y-56155106D01*
X136379792Y-56155104D01*
X136530104Y-56004792D01*
X136649683Y-55840204D01*
X136705011Y-55797540D01*
X136774624Y-55791561D01*
X136836420Y-55824166D01*
X136850313Y-55840199D01*
X136952560Y-55980931D01*
X136969896Y-56004792D01*
X137120213Y-56155109D01*
X137292179Y-56280048D01*
X137292181Y-56280049D01*
X137292184Y-56280051D01*
X137481588Y-56376557D01*
X137683757Y-56442246D01*
X137893713Y-56475500D01*
X137893714Y-56475500D01*
X138106286Y-56475500D01*
X138106287Y-56475500D01*
X138316243Y-56442246D01*
X138518412Y-56376557D01*
X138707816Y-56280051D01*
X138729789Y-56264086D01*
X138879786Y-56155109D01*
X138879788Y-56155106D01*
X138879792Y-56155104D01*
X139030104Y-56004792D01*
X139030106Y-56004788D01*
X139030109Y-56004786D01*
X139155048Y-55832820D01*
X139155047Y-55832820D01*
X139155051Y-55832816D01*
X139251557Y-55643412D01*
X139317246Y-55441243D01*
X139350500Y-55231287D01*
X139350500Y-54768713D01*
X139317246Y-54558757D01*
X139251557Y-54356588D01*
X139155051Y-54167184D01*
X139155049Y-54167181D01*
X139155048Y-54167179D01*
X139030109Y-53995213D01*
X138981319Y-53946423D01*
X138947834Y-53885100D01*
X138945000Y-53858742D01*
X138945000Y-50442793D01*
X138964685Y-50375754D01*
X138981319Y-50355112D01*
X139734026Y-49602405D01*
X139734029Y-49602402D01*
X139837448Y-49447625D01*
X139908684Y-49275646D01*
X139945000Y-49093074D01*
X139945000Y-48906925D01*
X139945000Y-43442794D01*
X139964685Y-43375755D01*
X139981319Y-43355113D01*
X140855113Y-42481319D01*
X140916436Y-42447834D01*
X140942794Y-42445000D01*
X148919206Y-42445000D01*
X148986245Y-42464685D01*
X149032000Y-42517489D01*
X149041944Y-42586647D01*
X149012919Y-42650203D01*
X149006887Y-42656681D01*
X143265975Y-48397591D01*
X143265972Y-48397594D01*
X143220069Y-48466295D01*
X143162555Y-48552369D01*
X143162550Y-48552377D01*
X143091316Y-48724353D01*
X143091314Y-48724361D01*
X143055000Y-48906921D01*
X143055000Y-53536809D01*
X143035315Y-53603848D01*
X142996097Y-53642347D01*
X142931347Y-53682285D01*
X142931343Y-53682288D01*
X142807289Y-53806342D01*
X142715187Y-53955663D01*
X142715185Y-53955668D01*
X142710326Y-53970333D01*
X142660001Y-54122203D01*
X142660001Y-54122204D01*
X142660000Y-54122204D01*
X142649500Y-54224983D01*
X142649500Y-55775001D01*
X142649501Y-55775018D01*
X142660000Y-55877796D01*
X142660001Y-55877799D01*
X142705894Y-56016294D01*
X142715186Y-56044334D01*
X142807288Y-56193656D01*
X142931344Y-56317712D01*
X143080666Y-56409814D01*
X143247203Y-56464999D01*
X143349991Y-56475500D01*
X144650008Y-56475499D01*
X144752797Y-56464999D01*
X144919334Y-56409814D01*
X145068656Y-56317712D01*
X145192712Y-56193656D01*
X145284814Y-56044334D01*
X145284814Y-56044331D01*
X145288178Y-56038879D01*
X145340126Y-55992154D01*
X145409088Y-55980931D01*
X145473170Y-56008774D01*
X145481398Y-56016294D01*
X145620213Y-56155109D01*
X145792179Y-56280048D01*
X145792181Y-56280049D01*
X145792184Y-56280051D01*
X145981588Y-56376557D01*
X146183757Y-56442246D01*
X146393713Y-56475500D01*
X146393714Y-56475500D01*
X146606286Y-56475500D01*
X146606287Y-56475500D01*
X146816243Y-56442246D01*
X147018412Y-56376557D01*
X147207816Y-56280051D01*
X147229789Y-56264086D01*
X147379786Y-56155109D01*
X147379788Y-56155106D01*
X147379792Y-56155104D01*
X147530104Y-56004792D01*
X147649683Y-55840204D01*
X147705011Y-55797540D01*
X147774624Y-55791561D01*
X147836420Y-55824166D01*
X147850313Y-55840199D01*
X147952560Y-55980931D01*
X147969896Y-56004792D01*
X148120213Y-56155109D01*
X148292179Y-56280048D01*
X148292181Y-56280049D01*
X148292184Y-56280051D01*
X148481588Y-56376557D01*
X148683757Y-56442246D01*
X148893713Y-56475500D01*
X148893714Y-56475500D01*
X149106286Y-56475500D01*
X149106287Y-56475500D01*
X149316243Y-56442246D01*
X149518412Y-56376557D01*
X149707816Y-56280051D01*
X149729789Y-56264086D01*
X149879786Y-56155109D01*
X149879788Y-56155106D01*
X149879792Y-56155104D01*
X150030104Y-56004792D01*
X150149683Y-55840204D01*
X150205011Y-55797540D01*
X150274624Y-55791561D01*
X150336420Y-55824166D01*
X150350313Y-55840199D01*
X150452560Y-55980931D01*
X150469896Y-56004792D01*
X150620213Y-56155109D01*
X150792179Y-56280048D01*
X150792181Y-56280049D01*
X150792184Y-56280051D01*
X150981588Y-56376557D01*
X151183757Y-56442246D01*
X151393713Y-56475500D01*
X151393714Y-56475500D01*
X151606286Y-56475500D01*
X151606287Y-56475500D01*
X151816243Y-56442246D01*
X152018412Y-56376557D01*
X152207816Y-56280051D01*
X152229789Y-56264086D01*
X152379786Y-56155109D01*
X152379788Y-56155106D01*
X152379792Y-56155104D01*
X152530104Y-56004792D01*
X152530106Y-56004788D01*
X152530109Y-56004786D01*
X152655048Y-55832820D01*
X152655047Y-55832820D01*
X152655051Y-55832816D01*
X152751557Y-55643412D01*
X152817246Y-55441243D01*
X152850500Y-55231287D01*
X152850500Y-54768713D01*
X152817246Y-54558757D01*
X152751557Y-54356588D01*
X152655051Y-54167184D01*
X152655049Y-54167181D01*
X152655048Y-54167179D01*
X152530109Y-53995213D01*
X152481319Y-53946423D01*
X152447834Y-53885100D01*
X152445000Y-53858742D01*
X152445000Y-49442794D01*
X152464685Y-49375755D01*
X152481319Y-49355113D01*
X153355113Y-48481319D01*
X153416436Y-48447834D01*
X153442794Y-48445000D01*
X184100619Y-48445000D01*
X184167658Y-48464685D01*
X184213413Y-48517489D01*
X184223357Y-48586647D01*
X184194332Y-48650203D01*
X184145056Y-48684763D01*
X184136685Y-48687977D01*
X184124263Y-48692745D01*
X183797343Y-48859320D01*
X183489635Y-49059147D01*
X183204498Y-49290047D01*
X183204490Y-49290054D01*
X182945054Y-49549490D01*
X182945051Y-49549494D01*
X182714147Y-49834635D01*
X182514320Y-50142343D01*
X182347746Y-50469260D01*
X182216260Y-50811793D01*
X182121294Y-51166209D01*
X182121294Y-51166211D01*
X182063898Y-51528594D01*
X182053417Y-51728594D01*
X182044696Y-51895000D01*
X182063898Y-52261404D01*
X182121295Y-52623794D01*
X182174883Y-52823788D01*
X182216260Y-52978206D01*
X182347746Y-53320739D01*
X182514320Y-53647656D01*
X182714147Y-53955364D01*
X182737098Y-53983706D01*
X182945051Y-54240506D01*
X183204494Y-54499949D01*
X183363311Y-54628557D01*
X183489635Y-54730852D01*
X183797343Y-54930679D01*
X183797348Y-54930682D01*
X184124264Y-55097255D01*
X184466801Y-55228742D01*
X184821206Y-55323705D01*
X185183596Y-55381102D01*
X185529734Y-55399241D01*
X185549999Y-55400304D01*
X185550000Y-55400304D01*
X185550001Y-55400304D01*
X185569203Y-55399297D01*
X185916404Y-55381102D01*
X186278794Y-55323705D01*
X186633199Y-55228742D01*
X186975736Y-55097255D01*
X187302652Y-54930682D01*
X187610366Y-54730851D01*
X187895506Y-54499949D01*
X188154949Y-54240506D01*
X188385851Y-53955366D01*
X188585682Y-53647652D01*
X188752255Y-53320736D01*
X188883742Y-52978199D01*
X188978705Y-52623794D01*
X189036102Y-52261404D01*
X189055304Y-51895000D01*
X189036102Y-51528596D01*
X188978705Y-51166206D01*
X188883742Y-50811801D01*
X188752255Y-50469264D01*
X188585682Y-50142348D01*
X188585087Y-50141432D01*
X188385852Y-49834635D01*
X188154949Y-49549494D01*
X187895509Y-49290054D01*
X187895501Y-49290047D01*
X187610364Y-49059147D01*
X187302656Y-48859320D01*
X186975736Y-48692745D01*
X186954943Y-48684763D01*
X186899411Y-48642363D01*
X186875618Y-48576669D01*
X186891119Y-48508540D01*
X186940992Y-48459607D01*
X186999381Y-48445000D01*
X192093076Y-48445000D01*
X192093077Y-48444999D01*
X192275646Y-48408684D01*
X192447625Y-48337448D01*
X192447625Y-48337447D01*
X192447627Y-48337447D01*
X192524494Y-48286085D01*
X192602403Y-48234029D01*
X199484029Y-41352402D01*
X199587448Y-41197625D01*
X199658684Y-41025646D01*
X199695000Y-40843074D01*
X199695000Y-40656925D01*
X199695000Y-38874499D01*
X199714685Y-38807460D01*
X199767489Y-38761705D01*
X199819000Y-38750499D01*
X200047871Y-38750499D01*
X200047872Y-38750499D01*
X200107483Y-38744091D01*
X200242331Y-38693796D01*
X200357546Y-38607546D01*
X200443796Y-38492331D01*
X200494091Y-38357483D01*
X200500500Y-38297873D01*
X200500499Y-35702128D01*
X200495299Y-35653757D01*
X200494091Y-35642516D01*
X200443797Y-35507671D01*
X200443793Y-35507664D01*
X200357547Y-35392455D01*
X200357544Y-35392452D01*
X200242335Y-35306206D01*
X200242328Y-35306202D01*
X200107482Y-35255908D01*
X200107483Y-35255908D01*
X200047883Y-35249501D01*
X200047881Y-35249500D01*
X200047873Y-35249500D01*
X200047864Y-35249500D01*
X197452129Y-35249500D01*
X197452123Y-35249501D01*
X197392516Y-35255908D01*
X197257671Y-35306202D01*
X197257664Y-35306206D01*
X197142455Y-35392452D01*
X197142452Y-35392455D01*
X197056206Y-35507664D01*
X197056202Y-35507671D01*
X197005908Y-35642517D01*
X196999501Y-35702116D01*
X196999501Y-35702123D01*
X196999500Y-35702135D01*
X196999500Y-36066449D01*
X196979815Y-36133488D01*
X196927011Y-36179243D01*
X196857853Y-36189187D01*
X196794297Y-36160162D01*
X196768113Y-36128449D01*
X196732317Y-36066449D01*
X196700386Y-36011143D01*
X196536805Y-35806019D01*
X196536804Y-35806018D01*
X196536801Y-35806014D01*
X196344479Y-35627567D01*
X196344467Y-35627559D01*
X196127704Y-35479772D01*
X196127700Y-35479770D01*
X196127697Y-35479768D01*
X196127696Y-35479767D01*
X195891325Y-35365938D01*
X195891327Y-35365938D01*
X195640623Y-35288606D01*
X195640619Y-35288605D01*
X195640615Y-35288604D01*
X195515823Y-35269794D01*
X195381187Y-35249500D01*
X195381182Y-35249500D01*
X195118818Y-35249500D01*
X195118812Y-35249500D01*
X194957247Y-35273853D01*
X194859385Y-35288604D01*
X194859382Y-35288605D01*
X194859376Y-35288606D01*
X194608673Y-35365938D01*
X194372303Y-35479767D01*
X194372302Y-35479768D01*
X194372296Y-35479771D01*
X194372296Y-35479772D01*
X194371654Y-35480210D01*
X194155520Y-35627567D01*
X193963198Y-35806014D01*
X193799614Y-36011143D01*
X193668432Y-36238356D01*
X193615428Y-36373409D01*
X193572612Y-36428623D01*
X193506742Y-36451924D01*
X193438732Y-36435913D01*
X193390173Y-36385675D01*
X193384572Y-36373409D01*
X193355761Y-36300000D01*
X193331568Y-36238357D01*
X193200386Y-36011143D01*
X193036805Y-35806019D01*
X193036804Y-35806018D01*
X193036801Y-35806014D01*
X192844479Y-35627567D01*
X192844467Y-35627559D01*
X192627704Y-35479772D01*
X192627700Y-35479770D01*
X192627697Y-35479768D01*
X192627696Y-35479767D01*
X192391325Y-35365938D01*
X192391327Y-35365938D01*
X192140623Y-35288606D01*
X192140619Y-35288605D01*
X192140615Y-35288604D01*
X192015823Y-35269794D01*
X191881187Y-35249500D01*
X191881182Y-35249500D01*
X191618818Y-35249500D01*
X191618812Y-35249500D01*
X191457247Y-35273853D01*
X191359385Y-35288604D01*
X191359382Y-35288605D01*
X191359376Y-35288606D01*
X191108673Y-35365938D01*
X190872303Y-35479767D01*
X190872302Y-35479768D01*
X190872296Y-35479771D01*
X190872296Y-35479772D01*
X190871654Y-35480210D01*
X190655520Y-35627567D01*
X190463198Y-35806014D01*
X190299614Y-36011143D01*
X190168432Y-36238356D01*
X190115428Y-36373409D01*
X190072612Y-36428623D01*
X190006742Y-36451924D01*
X189938732Y-36435913D01*
X189890173Y-36385675D01*
X189884572Y-36373409D01*
X189855761Y-36300000D01*
X189831568Y-36238357D01*
X189700386Y-36011143D01*
X189536805Y-35806019D01*
X189536804Y-35806018D01*
X189536801Y-35806014D01*
X189344479Y-35627567D01*
X189344467Y-35627559D01*
X189127704Y-35479772D01*
X189127700Y-35479770D01*
X189127697Y-35479768D01*
X189127696Y-35479767D01*
X188891325Y-35365938D01*
X188891327Y-35365938D01*
X188640623Y-35288606D01*
X188640619Y-35288605D01*
X188640615Y-35288604D01*
X188515823Y-35269794D01*
X188381187Y-35249500D01*
X188381182Y-35249500D01*
X188118818Y-35249500D01*
X188118812Y-35249500D01*
X187957247Y-35273853D01*
X187859385Y-35288604D01*
X187859382Y-35288605D01*
X187859376Y-35288606D01*
X187608673Y-35365938D01*
X187372303Y-35479767D01*
X187372302Y-35479768D01*
X187372296Y-35479771D01*
X187372296Y-35479772D01*
X187371654Y-35480210D01*
X187155520Y-35627567D01*
X186963198Y-35806014D01*
X186799614Y-36011143D01*
X186668432Y-36238356D01*
X186615428Y-36373409D01*
X186572612Y-36428623D01*
X186506742Y-36451924D01*
X186438732Y-36435913D01*
X186390173Y-36385675D01*
X186384572Y-36373409D01*
X186355761Y-36300000D01*
X186331568Y-36238357D01*
X186200386Y-36011143D01*
X186036805Y-35806019D01*
X186036804Y-35806018D01*
X186036801Y-35806014D01*
X185844479Y-35627567D01*
X185844467Y-35627559D01*
X185627704Y-35479772D01*
X185627700Y-35479770D01*
X185627697Y-35479768D01*
X185627696Y-35479767D01*
X185391325Y-35365938D01*
X185391327Y-35365938D01*
X185140623Y-35288606D01*
X185140619Y-35288605D01*
X185140615Y-35288604D01*
X185015823Y-35269794D01*
X184881187Y-35249500D01*
X184881182Y-35249500D01*
X184618818Y-35249500D01*
X184618812Y-35249500D01*
X184457247Y-35273853D01*
X184359385Y-35288604D01*
X184359382Y-35288605D01*
X184359376Y-35288606D01*
X184108673Y-35365938D01*
X183872303Y-35479767D01*
X183872302Y-35479768D01*
X183872296Y-35479771D01*
X183872296Y-35479772D01*
X183871654Y-35480210D01*
X183655520Y-35627567D01*
X183463198Y-35806014D01*
X183299614Y-36011143D01*
X183168433Y-36238354D01*
X183115159Y-36374093D01*
X183072343Y-36429306D01*
X183006473Y-36452607D01*
X182938462Y-36436596D01*
X182889904Y-36386358D01*
X182884302Y-36374092D01*
X182831113Y-36238567D01*
X182699972Y-36011426D01*
X182652124Y-35951427D01*
X181889309Y-36714242D01*
X181870332Y-36668426D01*
X181793726Y-36553776D01*
X181696224Y-36456274D01*
X181581574Y-36379668D01*
X181535757Y-36360690D01*
X182299168Y-35597278D01*
X182127454Y-35480206D01*
X182127445Y-35480201D01*
X181891142Y-35366404D01*
X181891144Y-35366404D01*
X181640505Y-35289092D01*
X181640499Y-35289090D01*
X181381151Y-35250000D01*
X181118848Y-35250000D01*
X180859500Y-35289090D01*
X180859494Y-35289092D01*
X180608858Y-35366404D01*
X180608854Y-35366405D01*
X180372547Y-35480205D01*
X180372539Y-35480210D01*
X180200830Y-35597277D01*
X180964243Y-36360690D01*
X180918426Y-36379668D01*
X180803776Y-36456274D01*
X180706274Y-36553776D01*
X180629668Y-36668426D01*
X180610690Y-36714242D01*
X179847874Y-35951427D01*
X179800028Y-36011425D01*
X179668883Y-36238573D01*
X179615696Y-36374092D01*
X179572880Y-36429306D01*
X179507010Y-36452607D01*
X179439000Y-36436596D01*
X179390441Y-36386358D01*
X179384840Y-36374092D01*
X179355761Y-36300000D01*
X179331568Y-36238357D01*
X179200386Y-36011143D01*
X179036805Y-35806019D01*
X179036804Y-35806018D01*
X179036801Y-35806014D01*
X178844479Y-35627567D01*
X178844467Y-35627559D01*
X178627704Y-35479772D01*
X178627700Y-35479770D01*
X178627697Y-35479768D01*
X178627696Y-35479767D01*
X178391325Y-35365938D01*
X178391327Y-35365938D01*
X178140623Y-35288606D01*
X178140619Y-35288605D01*
X178140615Y-35288604D01*
X178015823Y-35269794D01*
X177881187Y-35249500D01*
X177881182Y-35249500D01*
X177618818Y-35249500D01*
X177618812Y-35249500D01*
X177457247Y-35273853D01*
X177359385Y-35288604D01*
X177359382Y-35288605D01*
X177359376Y-35288606D01*
X177108673Y-35365938D01*
X176872303Y-35479767D01*
X176872302Y-35479768D01*
X176872296Y-35479771D01*
X176872296Y-35479772D01*
X176871654Y-35480210D01*
X176655520Y-35627567D01*
X176463198Y-35806014D01*
X176299614Y-36011143D01*
X176168432Y-36238356D01*
X176115428Y-36373409D01*
X176072612Y-36428623D01*
X176006742Y-36451924D01*
X175938732Y-36435913D01*
X175890173Y-36385675D01*
X175884572Y-36373409D01*
X175855761Y-36300000D01*
X175831568Y-36238357D01*
X175700386Y-36011143D01*
X175536805Y-35806019D01*
X175536804Y-35806018D01*
X175536801Y-35806014D01*
X175344479Y-35627567D01*
X175344467Y-35627559D01*
X175127704Y-35479772D01*
X175127700Y-35479770D01*
X175127697Y-35479768D01*
X175127696Y-35479767D01*
X174891325Y-35365938D01*
X174891327Y-35365938D01*
X174640623Y-35288606D01*
X174640619Y-35288605D01*
X174640615Y-35288604D01*
X174515823Y-35269794D01*
X174381187Y-35249500D01*
X174381182Y-35249500D01*
X174118818Y-35249500D01*
X174118812Y-35249500D01*
X173957247Y-35273853D01*
X173859385Y-35288604D01*
X173859382Y-35288605D01*
X173859376Y-35288606D01*
X173608673Y-35365938D01*
X173372303Y-35479767D01*
X173372302Y-35479768D01*
X173372296Y-35479771D01*
X173372296Y-35479772D01*
X173371654Y-35480210D01*
X173155520Y-35627567D01*
X172963198Y-35806014D01*
X172799614Y-36011143D01*
X172668432Y-36238356D01*
X172572582Y-36482578D01*
X172572576Y-36482597D01*
X172514197Y-36738374D01*
X172514196Y-36738379D01*
X172494592Y-36999995D01*
X172494592Y-37000004D01*
X172514196Y-37261620D01*
X172514197Y-37261625D01*
X172572576Y-37517402D01*
X172572578Y-37517411D01*
X172572580Y-37517416D01*
X172668432Y-37761643D01*
X172799614Y-37988857D01*
X172931736Y-38154533D01*
X172963198Y-38193985D01*
X173075163Y-38297872D01*
X173155521Y-38372433D01*
X173372296Y-38520228D01*
X173372301Y-38520230D01*
X173372302Y-38520231D01*
X173372303Y-38520232D01*
X173497843Y-38580688D01*
X173608673Y-38634061D01*
X173608674Y-38634061D01*
X173608677Y-38634063D01*
X173859385Y-38711396D01*
X174118818Y-38750500D01*
X174381182Y-38750500D01*
X174640615Y-38711396D01*
X174891323Y-38634063D01*
X175127704Y-38520228D01*
X175344479Y-38372433D01*
X175536805Y-38193981D01*
X175700386Y-37988857D01*
X175831568Y-37761643D01*
X175884572Y-37626589D01*
X175927387Y-37571376D01*
X175993257Y-37548075D01*
X176061268Y-37564086D01*
X176109827Y-37614323D01*
X176115425Y-37626584D01*
X176168432Y-37761643D01*
X176299614Y-37988857D01*
X176431736Y-38154533D01*
X176463198Y-38193985D01*
X176575163Y-38297872D01*
X176655521Y-38372433D01*
X176872296Y-38520228D01*
X176872301Y-38520230D01*
X176872302Y-38520231D01*
X176872303Y-38520232D01*
X176997843Y-38580688D01*
X177108673Y-38634061D01*
X177108674Y-38634061D01*
X177108677Y-38634063D01*
X177359385Y-38711396D01*
X177618818Y-38750500D01*
X177881182Y-38750500D01*
X178140615Y-38711396D01*
X178391323Y-38634063D01*
X178627704Y-38520228D01*
X178844479Y-38372433D01*
X179036805Y-38193981D01*
X179200386Y-37988857D01*
X179331568Y-37761643D01*
X179384840Y-37625905D01*
X179427655Y-37570693D01*
X179493525Y-37547392D01*
X179561536Y-37563403D01*
X179610094Y-37613640D01*
X179615696Y-37625907D01*
X179668883Y-37761426D01*
X179800027Y-37988573D01*
X179847874Y-38048571D01*
X180610689Y-37285756D01*
X180629668Y-37331574D01*
X180706274Y-37446224D01*
X180803776Y-37543726D01*
X180918426Y-37620332D01*
X180964242Y-37639309D01*
X180200830Y-38402720D01*
X180372546Y-38519793D01*
X180372550Y-38519795D01*
X180608854Y-38633594D01*
X180608858Y-38633595D01*
X180859494Y-38710907D01*
X180859500Y-38710909D01*
X181118848Y-38749999D01*
X181118857Y-38750000D01*
X181381143Y-38750000D01*
X181381151Y-38749999D01*
X181640499Y-38710909D01*
X181640505Y-38710907D01*
X181891143Y-38633595D01*
X182127445Y-38519798D01*
X182127447Y-38519797D01*
X182299168Y-38402720D01*
X181535757Y-37639309D01*
X181581574Y-37620332D01*
X181696224Y-37543726D01*
X181793726Y-37446224D01*
X181870332Y-37331574D01*
X181889309Y-37285756D01*
X182652125Y-38048572D01*
X182699971Y-37988573D01*
X182831114Y-37761430D01*
X182884302Y-37625908D01*
X182927118Y-37570694D01*
X182992988Y-37547392D01*
X183060998Y-37563402D01*
X183109557Y-37613640D01*
X183115159Y-37625906D01*
X183133681Y-37673099D01*
X183168432Y-37761643D01*
X183299614Y-37988857D01*
X183431736Y-38154533D01*
X183463198Y-38193985D01*
X183575163Y-38297872D01*
X183655521Y-38372433D01*
X183872296Y-38520228D01*
X183872301Y-38520230D01*
X183872302Y-38520231D01*
X183872303Y-38520232D01*
X183997843Y-38580688D01*
X184108673Y-38634061D01*
X184108674Y-38634061D01*
X184108677Y-38634063D01*
X184359385Y-38711396D01*
X184618818Y-38750500D01*
X184881182Y-38750500D01*
X185140615Y-38711396D01*
X185391323Y-38634063D01*
X185627704Y-38520228D01*
X185844479Y-38372433D01*
X186036805Y-38193981D01*
X186200386Y-37988857D01*
X186331568Y-37761643D01*
X186384572Y-37626589D01*
X186427387Y-37571376D01*
X186493257Y-37548075D01*
X186561268Y-37564086D01*
X186609827Y-37614323D01*
X186615425Y-37626584D01*
X186668432Y-37761643D01*
X186799614Y-37988857D01*
X186931736Y-38154533D01*
X186963198Y-38193985D01*
X187075163Y-38297872D01*
X187155521Y-38372433D01*
X187250853Y-38437429D01*
X187295154Y-38491457D01*
X187305000Y-38539882D01*
X187305000Y-40307206D01*
X187285315Y-40374245D01*
X187268681Y-40394887D01*
X185644887Y-42018681D01*
X185583564Y-42052166D01*
X185557206Y-42055000D01*
X163580794Y-42055000D01*
X163513755Y-42035315D01*
X163468000Y-41982511D01*
X163458056Y-41913353D01*
X163487081Y-41849797D01*
X163493113Y-41843319D01*
X164984026Y-40352405D01*
X164984025Y-40352405D01*
X164984029Y-40352402D01*
X165087448Y-40197625D01*
X165158684Y-40025646D01*
X165195000Y-39843074D01*
X165195000Y-39656925D01*
X165195000Y-38874499D01*
X165214685Y-38807460D01*
X165267489Y-38761705D01*
X165319000Y-38750499D01*
X165547871Y-38750499D01*
X165547872Y-38750499D01*
X165607483Y-38744091D01*
X165742331Y-38693796D01*
X165857546Y-38607546D01*
X165943796Y-38492331D01*
X165994091Y-38357483D01*
X166000500Y-38297873D01*
X166000499Y-35702128D01*
X165995299Y-35653757D01*
X165994091Y-35642516D01*
X165943797Y-35507671D01*
X165943793Y-35507664D01*
X165857547Y-35392455D01*
X165857544Y-35392452D01*
X165742335Y-35306206D01*
X165742328Y-35306202D01*
X165607482Y-35255908D01*
X165607483Y-35255908D01*
X165547883Y-35249501D01*
X165547881Y-35249500D01*
X165547873Y-35249500D01*
X165547864Y-35249500D01*
X162952129Y-35249500D01*
X162952123Y-35249501D01*
X162892516Y-35255908D01*
X162757671Y-35306202D01*
X162757664Y-35306206D01*
X162642455Y-35392452D01*
X162642452Y-35392455D01*
X162556206Y-35507664D01*
X162556202Y-35507671D01*
X162505908Y-35642517D01*
X162499501Y-35702116D01*
X162499501Y-35702123D01*
X162499500Y-35702135D01*
X162499500Y-36066449D01*
X162479815Y-36133488D01*
X162427011Y-36179243D01*
X162357853Y-36189187D01*
X162294297Y-36160162D01*
X162268113Y-36128449D01*
X162232317Y-36066449D01*
X162200386Y-36011143D01*
X162036805Y-35806019D01*
X162036804Y-35806018D01*
X162036801Y-35806014D01*
X161844479Y-35627567D01*
X161844467Y-35627559D01*
X161627704Y-35479772D01*
X161627700Y-35479770D01*
X161627697Y-35479768D01*
X161627696Y-35479767D01*
X161391325Y-35365938D01*
X161391327Y-35365938D01*
X161140623Y-35288606D01*
X161140619Y-35288605D01*
X161140615Y-35288604D01*
X161015823Y-35269794D01*
X160881187Y-35249500D01*
X160881182Y-35249500D01*
X160618818Y-35249500D01*
X160618812Y-35249500D01*
X160457247Y-35273853D01*
X160359385Y-35288604D01*
X160359382Y-35288605D01*
X160359376Y-35288606D01*
X160108673Y-35365938D01*
X159872303Y-35479767D01*
X159872302Y-35479768D01*
X159872296Y-35479771D01*
X159872296Y-35479772D01*
X159871654Y-35480210D01*
X159655520Y-35627567D01*
X159463198Y-35806014D01*
X159299614Y-36011143D01*
X159168432Y-36238356D01*
X159115428Y-36373409D01*
X159072612Y-36428623D01*
X159006742Y-36451924D01*
X158938732Y-36435913D01*
X158890173Y-36385675D01*
X158884572Y-36373409D01*
X158855761Y-36300000D01*
X158831568Y-36238357D01*
X158700386Y-36011143D01*
X158536805Y-35806019D01*
X158536804Y-35806018D01*
X158536801Y-35806014D01*
X158412890Y-35691042D01*
X158344479Y-35627567D01*
X158344475Y-35627564D01*
X158344468Y-35627559D01*
X158249148Y-35562570D01*
X158204846Y-35508541D01*
X158195000Y-35460117D01*
X158195000Y-35156923D01*
X158158684Y-34974356D01*
X158158684Y-34974354D01*
X158146525Y-34944997D01*
X158146525Y-34944996D01*
X158087449Y-34802377D01*
X158087448Y-34802375D01*
X158087448Y-34802374D01*
X158087446Y-34802371D01*
X158087444Y-34802367D01*
X157984029Y-34647597D01*
X157984026Y-34647593D01*
X155102406Y-31765973D01*
X155102398Y-31765967D01*
X154947626Y-31662552D01*
X154947627Y-31662552D01*
X154775646Y-31591316D01*
X154775638Y-31591314D01*
X154593077Y-31555000D01*
X154593074Y-31555000D01*
X136406926Y-31555000D01*
X136406922Y-31555000D01*
X136260668Y-31584092D01*
X136224359Y-31591314D01*
X136224354Y-31591315D01*
X136153117Y-31620823D01*
X136052374Y-31662552D01*
X136042221Y-31669337D01*
X136042209Y-31669343D01*
X135897601Y-31765967D01*
X135897593Y-31765973D01*
X132265972Y-35397594D01*
X132211067Y-35479767D01*
X132192423Y-35507671D01*
X132180413Y-35525645D01*
X132180412Y-35525646D01*
X132162551Y-35552376D01*
X132091316Y-35724353D01*
X132091314Y-35724361D01*
X132055000Y-35906921D01*
X132055000Y-46622675D01*
X132049661Y-46658670D01*
X132006091Y-46802300D01*
X131986620Y-47000000D01*
X132006091Y-47197699D01*
X132063760Y-47387808D01*
X132157401Y-47562998D01*
X132157405Y-47563005D01*
X132283431Y-47716568D01*
X132390294Y-47804267D01*
X132436996Y-47842595D01*
X132539771Y-47897529D01*
X132589614Y-47946491D01*
X132605075Y-48014628D01*
X132581244Y-48080308D01*
X132568998Y-48094568D01*
X129765972Y-50897594D01*
X129719374Y-50967335D01*
X129719373Y-50967336D01*
X129662551Y-51052375D01*
X129591316Y-51224353D01*
X129591314Y-51224361D01*
X129555000Y-51406921D01*
X129555000Y-53536809D01*
X129535315Y-53603848D01*
X129496097Y-53642347D01*
X129431347Y-53682285D01*
X129431343Y-53682288D01*
X129307289Y-53806342D01*
X129215187Y-53955663D01*
X129215185Y-53955668D01*
X129210326Y-53970333D01*
X129160001Y-54122203D01*
X129160001Y-54122204D01*
X129160000Y-54122204D01*
X129149500Y-54224983D01*
X126169476Y-54224983D01*
X126225851Y-54155366D01*
X126425682Y-53847652D01*
X126592255Y-53520736D01*
X126723742Y-53178199D01*
X126818705Y-52823794D01*
X126876102Y-52461404D01*
X126895304Y-52095000D01*
X126876102Y-51728596D01*
X126818705Y-51366206D01*
X126723742Y-51011801D01*
X126592255Y-50669264D01*
X126425682Y-50342348D01*
X126295206Y-50141432D01*
X126225852Y-50034635D01*
X125994952Y-49749498D01*
X125994949Y-49749494D01*
X125735506Y-49490051D01*
X125613721Y-49391431D01*
X125450364Y-49259147D01*
X125142656Y-49059320D01*
X124815739Y-48892746D01*
X124473206Y-48761260D01*
X124432191Y-48750270D01*
X124118794Y-48666295D01*
X124118790Y-48666294D01*
X124118789Y-48666294D01*
X123756405Y-48608898D01*
X123447819Y-48592726D01*
X123381902Y-48569560D01*
X123338973Y-48514434D01*
X123332663Y-48444850D01*
X123364974Y-48382900D01*
X123406857Y-48354335D01*
X123447623Y-48337449D01*
X123447626Y-48337447D01*
X123602403Y-48234029D01*
X130234029Y-41602403D01*
X130337448Y-41447626D01*
X130408684Y-41275647D01*
X130416962Y-41234028D01*
X130424203Y-41197628D01*
X130424203Y-41197623D01*
X130443144Y-41102405D01*
X130445000Y-41093075D01*
X130445000Y-38874499D01*
X130464685Y-38807460D01*
X130517489Y-38761705D01*
X130569000Y-38750499D01*
X130797871Y-38750499D01*
X130797872Y-38750499D01*
X130857483Y-38744091D01*
X130992331Y-38693796D01*
X131107546Y-38607546D01*
X131193796Y-38492331D01*
X131244091Y-38357483D01*
X131250500Y-38297873D01*
X131250499Y-35702128D01*
X131245299Y-35653757D01*
X131244091Y-35642516D01*
X131193797Y-35507671D01*
X131193793Y-35507664D01*
X131107547Y-35392455D01*
X131107544Y-35392452D01*
X130992335Y-35306206D01*
X130992328Y-35306202D01*
X130857482Y-35255908D01*
X130857483Y-35255908D01*
X130797883Y-35249501D01*
X130797881Y-35249500D01*
X130797873Y-35249500D01*
X130797864Y-35249500D01*
X128202129Y-35249500D01*
X128202123Y-35249501D01*
X128142516Y-35255908D01*
X128007671Y-35306202D01*
X128007664Y-35306206D01*
X127892455Y-35392452D01*
X127892452Y-35392455D01*
X127806206Y-35507664D01*
X127806202Y-35507671D01*
X127755908Y-35642517D01*
X127749501Y-35702116D01*
X127749501Y-35702123D01*
X127749500Y-35702135D01*
X127749500Y-36066449D01*
X127729815Y-36133488D01*
X127677011Y-36179243D01*
X127607853Y-36189187D01*
X127544297Y-36160162D01*
X127518113Y-36128449D01*
X127482317Y-36066449D01*
X127450386Y-36011143D01*
X127286805Y-35806019D01*
X127286804Y-35806018D01*
X127286801Y-35806014D01*
X127094479Y-35627567D01*
X127094467Y-35627559D01*
X126877704Y-35479772D01*
X126877700Y-35479770D01*
X126877697Y-35479768D01*
X126877696Y-35479767D01*
X126641325Y-35365938D01*
X126641327Y-35365938D01*
X126390623Y-35288606D01*
X126390619Y-35288605D01*
X126390615Y-35288604D01*
X126265823Y-35269794D01*
X126131187Y-35249500D01*
X126131182Y-35249500D01*
X125868818Y-35249500D01*
X125868812Y-35249500D01*
X125707247Y-35273853D01*
X125609385Y-35288604D01*
X125609382Y-35288605D01*
X125609376Y-35288606D01*
X125358673Y-35365938D01*
X125122303Y-35479767D01*
X125122302Y-35479768D01*
X125122296Y-35479771D01*
X125122296Y-35479772D01*
X125121654Y-35480210D01*
X124905520Y-35627567D01*
X124713198Y-35806014D01*
X124549614Y-36011143D01*
X124418432Y-36238356D01*
X124365428Y-36373409D01*
X124322612Y-36428623D01*
X124256742Y-36451924D01*
X124188732Y-36435913D01*
X124140173Y-36385675D01*
X124134572Y-36373409D01*
X124105761Y-36300000D01*
X124081568Y-36238357D01*
X123950386Y-36011143D01*
X123786805Y-35806019D01*
X123786804Y-35806018D01*
X123786801Y-35806014D01*
X123594479Y-35627567D01*
X123594467Y-35627559D01*
X123377704Y-35479772D01*
X123377700Y-35479770D01*
X123377697Y-35479768D01*
X123377696Y-35479767D01*
X123141325Y-35365938D01*
X123141327Y-35365938D01*
X122890623Y-35288606D01*
X122890619Y-35288605D01*
X122890615Y-35288604D01*
X122765823Y-35269794D01*
X122631187Y-35249500D01*
X122631182Y-35249500D01*
X122368818Y-35249500D01*
X122368812Y-35249500D01*
X122207247Y-35273853D01*
X122109385Y-35288604D01*
X122109382Y-35288605D01*
X122109376Y-35288606D01*
X121858673Y-35365938D01*
X121622303Y-35479767D01*
X121622302Y-35479768D01*
X121622296Y-35479771D01*
X121622296Y-35479772D01*
X121621654Y-35480210D01*
X121405520Y-35627567D01*
X121213198Y-35806014D01*
X121049614Y-36011143D01*
X120918432Y-36238356D01*
X120865428Y-36373409D01*
X120822612Y-36428623D01*
X120756742Y-36451924D01*
X120688732Y-36435913D01*
X120640173Y-36385675D01*
X120634572Y-36373409D01*
X120605761Y-36300000D01*
X120581568Y-36238357D01*
X120450386Y-36011143D01*
X120286805Y-35806019D01*
X120286804Y-35806018D01*
X120286801Y-35806014D01*
X120094479Y-35627567D01*
X120094467Y-35627559D01*
X119877704Y-35479772D01*
X119877700Y-35479770D01*
X119877697Y-35479768D01*
X119877696Y-35479767D01*
X119641325Y-35365938D01*
X119641327Y-35365938D01*
X119390623Y-35288606D01*
X119390619Y-35288605D01*
X119390615Y-35288604D01*
X119265823Y-35269794D01*
X119131187Y-35249500D01*
X119131182Y-35249500D01*
X118868818Y-35249500D01*
X118868812Y-35249500D01*
X118707247Y-35273853D01*
X118609385Y-35288604D01*
X118609382Y-35288605D01*
X118609376Y-35288606D01*
X118358673Y-35365938D01*
X118122303Y-35479767D01*
X118122302Y-35479768D01*
X118122296Y-35479771D01*
X118122296Y-35479772D01*
X118121654Y-35480210D01*
X117905520Y-35627567D01*
X117713198Y-35806014D01*
X117549614Y-36011143D01*
X117418432Y-36238356D01*
X117365428Y-36373409D01*
X117322612Y-36428623D01*
X117256742Y-36451924D01*
X117188732Y-36435913D01*
X117140173Y-36385675D01*
X117134572Y-36373409D01*
X117105761Y-36300000D01*
X117081568Y-36238357D01*
X116950386Y-36011143D01*
X116786805Y-35806019D01*
X116786804Y-35806018D01*
X116786801Y-35806014D01*
X116594479Y-35627567D01*
X116594467Y-35627559D01*
X116377704Y-35479772D01*
X116377700Y-35479770D01*
X116377697Y-35479768D01*
X116377696Y-35479767D01*
X116141325Y-35365938D01*
X116141327Y-35365938D01*
X115890623Y-35288606D01*
X115890619Y-35288605D01*
X115890615Y-35288604D01*
X115765823Y-35269794D01*
X115631187Y-35249500D01*
X115631182Y-35249500D01*
X115368818Y-35249500D01*
X115368812Y-35249500D01*
X115207247Y-35273853D01*
X115109385Y-35288604D01*
X115109382Y-35288605D01*
X115109376Y-35288606D01*
X114858673Y-35365938D01*
X114622303Y-35479767D01*
X114622302Y-35479768D01*
X114622296Y-35479771D01*
X114622296Y-35479772D01*
X114621654Y-35480210D01*
X114405520Y-35627567D01*
X114213198Y-35806014D01*
X114049614Y-36011143D01*
X113918433Y-36238354D01*
X113865159Y-36374093D01*
X113822343Y-36429306D01*
X113756473Y-36452607D01*
X113688462Y-36436596D01*
X113639904Y-36386358D01*
X113634302Y-36374092D01*
X113581113Y-36238567D01*
X113449972Y-36011426D01*
X113402124Y-35951427D01*
X112639309Y-36714242D01*
X112620332Y-36668426D01*
X112543726Y-36553776D01*
X112446224Y-36456274D01*
X112331574Y-36379668D01*
X112285757Y-36360690D01*
X113049168Y-35597278D01*
X112877454Y-35480206D01*
X112877445Y-35480201D01*
X112641142Y-35366404D01*
X112641144Y-35366404D01*
X112390505Y-35289092D01*
X112390499Y-35289090D01*
X112131151Y-35250000D01*
X111868848Y-35250000D01*
X111609500Y-35289090D01*
X111609494Y-35289092D01*
X111358858Y-35366404D01*
X111358854Y-35366405D01*
X111122547Y-35480205D01*
X111122539Y-35480210D01*
X110950830Y-35597277D01*
X111714243Y-36360690D01*
X111668426Y-36379668D01*
X111553776Y-36456274D01*
X111456274Y-36553776D01*
X111379668Y-36668426D01*
X111360690Y-36714242D01*
X110597875Y-35951427D01*
X110597874Y-35951427D01*
X110550028Y-36011425D01*
X110418883Y-36238573D01*
X110365696Y-36374092D01*
X110322880Y-36429306D01*
X110257010Y-36452607D01*
X110189000Y-36436596D01*
X110140441Y-36386358D01*
X110134840Y-36374092D01*
X110105761Y-36300000D01*
X110081568Y-36238357D01*
X109950386Y-36011143D01*
X109786805Y-35806019D01*
X109786804Y-35806018D01*
X109786801Y-35806014D01*
X109594479Y-35627567D01*
X109594467Y-35627559D01*
X109377704Y-35479772D01*
X109377700Y-35479770D01*
X109377697Y-35479768D01*
X109377696Y-35479767D01*
X109141325Y-35365938D01*
X109141327Y-35365938D01*
X108890623Y-35288606D01*
X108890619Y-35288605D01*
X108890615Y-35288604D01*
X108765823Y-35269794D01*
X108631187Y-35249500D01*
X108631182Y-35249500D01*
X108368818Y-35249500D01*
X108368812Y-35249500D01*
X108207247Y-35273853D01*
X108109385Y-35288604D01*
X108109382Y-35288605D01*
X108109376Y-35288606D01*
X107858673Y-35365938D01*
X107622303Y-35479767D01*
X107622302Y-35479768D01*
X107622296Y-35479771D01*
X107622296Y-35479772D01*
X107621654Y-35480210D01*
X107405520Y-35627567D01*
X107213198Y-35806014D01*
X107049614Y-36011143D01*
X106918432Y-36238356D01*
X106865428Y-36373409D01*
X106822612Y-36428623D01*
X106756742Y-36451924D01*
X106688732Y-36435913D01*
X106640173Y-36385675D01*
X106634572Y-36373409D01*
X106605761Y-36300000D01*
X106581568Y-36238357D01*
X106450386Y-36011143D01*
X106286805Y-35806019D01*
X106286804Y-35806018D01*
X106286801Y-35806014D01*
X106094479Y-35627567D01*
X106094467Y-35627559D01*
X105877704Y-35479772D01*
X105877700Y-35479770D01*
X105877697Y-35479768D01*
X105877696Y-35479767D01*
X105641325Y-35365938D01*
X105641327Y-35365938D01*
X105390623Y-35288606D01*
X105390619Y-35288605D01*
X105390615Y-35288604D01*
X105265823Y-35269794D01*
X105131187Y-35249500D01*
X105131182Y-35249500D01*
X104868818Y-35249500D01*
X104868812Y-35249500D01*
X104707247Y-35273853D01*
X104609385Y-35288604D01*
X104609382Y-35288605D01*
X104609376Y-35288606D01*
X104358673Y-35365938D01*
X104122303Y-35479767D01*
X104122302Y-35479768D01*
X104122296Y-35479771D01*
X104122296Y-35479772D01*
X104121654Y-35480210D01*
X103905520Y-35627567D01*
X103713198Y-35806014D01*
X103549614Y-36011143D01*
X103418432Y-36238356D01*
X103322582Y-36482578D01*
X103322576Y-36482597D01*
X103264197Y-36738374D01*
X103264196Y-36738379D01*
X103244592Y-36999995D01*
X100500500Y-36999995D01*
X100500500Y-30624500D01*
X100520185Y-30557461D01*
X100572989Y-30511706D01*
X100624500Y-30500500D01*
X203375500Y-30500500D01*
X203442539Y-30520185D01*
G37*
%TD.AperFunction*%
%TA.AperFunction,Conductor*%
G36*
X196314855Y-104666546D02*
G01*
X196331575Y-104685842D01*
X196461500Y-104871395D01*
X196461505Y-104871401D01*
X196628599Y-105038495D01*
X196628604Y-105038499D01*
X196629968Y-105039643D01*
X196630407Y-105040303D01*
X196632427Y-105042323D01*
X196632021Y-105042728D01*
X196668669Y-105097815D01*
X196669776Y-105167676D01*
X196632937Y-105227046D01*
X196589267Y-105252336D01*
X196580669Y-105255184D01*
X196580663Y-105255187D01*
X196431342Y-105347289D01*
X196307289Y-105471342D01*
X196215187Y-105620663D01*
X196215182Y-105620674D01*
X196191205Y-105693032D01*
X196151432Y-105750477D01*
X196086916Y-105777299D01*
X196076138Y-105777412D01*
X195442962Y-106410589D01*
X195425925Y-106347007D01*
X195360099Y-106232993D01*
X195267007Y-106139901D01*
X195152993Y-106074075D01*
X195089410Y-106057037D01*
X195721373Y-105425073D01*
X195721373Y-105425072D01*
X195645405Y-105371880D01*
X195601780Y-105317304D01*
X195594586Y-105247805D01*
X195626108Y-105185451D01*
X195645399Y-105168734D01*
X195831401Y-105038495D01*
X195998495Y-104871401D01*
X196128425Y-104685842D01*
X196183002Y-104642217D01*
X196252500Y-104635023D01*
X196314855Y-104666546D01*
G37*
%TD.AperFunction*%
%TD*%
M02*
